<svg xmlns="http://www.w3.org/2000/svg" width="477" height="642" viewBox="0 0 477 642">
  <g id="Group_4355" data-name="Group 4355" transform="translate(-406.5 -734.5)">
    <g id="Group_831" data-name="Group 831" transform="translate(389.748 769.16)">
      <path id="Fill_635" data-name="Fill 635" d="M1.677,7.38S6.644.686,22.289.044C34.882-.472,37.846,3.711,39.774,5.087s0,11.007-1.653,18.16-2.6,10.295-6.352,14.031c-3.865,3.853-9.383,4.952-13.806,2.2S8.029,29.026,4.44,23.247-1.913,12.7,1.677,7.38" transform="translate(210.726 1.267)" fill="#fff"/>
      <path id="Fill_636" data-name="Fill 636" d="M24.391,43.209a11.175,11.175,0,0,1-5.912-1.7C13.191,38.219,7.01,28.816,4.6,24.927c-3.36-5.407-6.835-11-2.74-17.061C2.074,7.574,7.345.7,23.341.044,24.052.015,24.754,0,25.428,0c9.789,0,13.385,3.04,15.317,4.673l.09.076c.252.212.469.395.676.543,1.676,1.19,2.109,4.928-1.222,19.3-1.617,6.977-2.575,10.51-6.642,14.562A13.166,13.166,0,0,1,24.391,43.209ZM25.464,2.2c-.636,0-1.321.014-2.035.043C8.808,2.845,3.866,8.876,3.663,9.132c-3.049,4.517-.972,8.543,2.811,14.635C8.3,26.705,14.65,36.533,19.647,39.647a8.858,8.858,0,0,0,4.743,1.36A10.977,10.977,0,0,0,32.084,37.6c3.489-3.479,4.384-6.307,6.053-13.5C41.476,9.685,40.572,7.424,40.215,7.075c-.257-.186-.545-.425-.894-.717C37.481,4.8,34.4,2.2,25.464,2.2Z" transform="translate(209.629 0.166)" fill="#0253a2"/>
      <path id="Fill_637" data-name="Fill 637" d="M2.454,26.538s-4.691-4.676-1.1-11.554S13.222,4.53,17.087,2.6,22.881-.973,28.406.677s6.9,2.2,7.454,6.6S38.9,20.764,38.9,26.814s-.827,11.007-3.865,12.38-4.423,2.478-8.288,1.1S3.281,27.917,2.454,26.538" transform="translate(175.991 13.105)" fill="#fff"/>
      <path id="Fill_638" data-name="Fill 638" d="M30.968,43.13a10.339,10.339,0,0,1-3.486-.693C24.11,41.234,5.046,30.805,2.773,28.414a11.005,11.005,0,0,1-1.3-12.836C4.928,8.943,12.268,5.367,16.654,3.23c.373-.182.722-.354,1.035-.512.351-.173.681-.344,1-.509l.347-.179C21.125.941,22.928,0,25.493,0A15.152,15.152,0,0,1,29.82.722c5.758,1.722,7.61,2.506,8.236,7.524.181,1.429.569,3.359,1.019,5.6l.045.222.023.116c.873,4.32,1.958,9.7,1.958,13.736,0,7.842-1.392,11.97-4.514,13.384-.263.118-.51.235-.749.348l-.269.127A10.247,10.247,0,0,1,30.968,43.13ZM25.493,2.2c-2.02,0-3.447.744-5.421,1.774l-.013.007c-.43.226-.894.464-1.379.708-.216.108-.449.222-.694.342l-.362.177C13.485,7.223,6.559,10.6,3.428,16.592s.742,10.1.908,10.271l.134.16c1.37,1.448,19.549,11.843,23.748,13.341a8.389,8.389,0,0,0,2.749.567A8.224,8.224,0,0,0,34.6,39.793l.012-.006.06-.028c.317-.149.646-.3,1-.464,2.165-.979,3.218-4.7,3.218-11.38,0-3.858-1.074-9.158-1.937-13.417l-.079-.392c-.443-2.209-.826-4.115-1.009-5.587-.469-3.695-1.189-4.047-6.68-5.688A13.022,13.022,0,0,0,25.493,2.2Z" transform="translate(174.89 12.005)" fill="#0253a2"/>
      <path id="Fill_639" data-name="Fill 639" d="M6.571,33.583S2.982,30.556,2.155,23.128-1.717,9.648,1.321,6.344,5.186-.26,9.878.016A26.734,26.734,0,0,1,23.684,5.245,21.833,21.833,0,0,1,32.24,19.826c.834,6.329,1.11,15.407-4.133,16.509S15.4,41.012,6.571,33.583" transform="translate(156.415 36.603)" fill="#fff"/>
      <path id="Fill_640" data-name="Fill 640" d="M19.272,40.367A18.661,18.661,0,0,1,6.955,35.526c-.16-.134-3.927-3.373-4.8-11.177a60.768,60.768,0,0,0-1.138-6.339l-.022-.1-.006-.028C0,13.321-.858,9.382,1.609,6.7A29.461,29.461,0,0,0,3.483,4.387l.032-.042C5.193,2.111,6.778,0,10.447,0c.194,0,.395.006.6.018A27.656,27.656,0,0,1,25.438,5.457a22.971,22.971,0,0,1,9,15.327c1.4,10.616-.329,16.746-5,17.728-.68.144-1.413.335-2.188.537l-.143.037-.036.009A30.21,30.21,0,0,1,19.272,40.367ZM10.441,2.2C7.88,2.2,6.846,3.579,5.281,5.665c-.606.808-1.263,1.669-2.042,2.525-1.7,1.849-.989,5.117-.088,9.255a64.064,64.064,0,0,1,1.2,6.663c.744,6.693,3.9,9.617,4.036,9.738a16.529,16.529,0,0,0,10.887,4.319,28.412,28.412,0,0,0,7.261-1.207c.881-.231,1.674-.436,2.443-.6,4.476-.941,3.969-9.983,3.268-15.289a20.725,20.725,0,0,0-8.11-13.838A25.768,25.768,0,0,0,10.919,2.217C10.769,2.209,10.607,2.2,10.441,2.2Z" transform="translate(155.315 35.502)" fill="#0253a2"/>
      <path id="Fill_641" data-name="Fill 641" d="M4.946,34.187s-3.865-2.2-3.589-7.979-3.865-6.878,1.1-13.756S13.227.62,17.643.071s9.666,2.2,12.98,4.676S42.493,9.975,42.768,15.2s3.314,6.055,0,11.007-2.763,7.429-8.839,10.18-4.691,4.4-10.761,4.952S6.6,36.114,4.946,34.187" transform="translate(132.363 65.438)" fill="#fff"/>
      <path id="Fill_642" data-name="Fill 642" d="M23.427,43.579c-6.359,0-15.975-5.221-18.086-7.44-.713-.467-4.255-3.094-3.978-8.882a12.034,12.034,0,0,0-.7-4.4l-.007-.021c-.788-2.578-1.533-5.013,2.018-9.929C8.067,5.445,14.028.65,18.617.081A10.345,10.345,0,0,1,19.937,0C25.309,0,30.831,3.8,32.4,4.968a29.76,29.76,0,0,0,3.336,1.976l.073.04.013.007c3.979,2.15,8.931,4.825,9.161,9.255a13.653,13.653,0,0,0,.872,3.983c.744,2.169,1.386,4.043-1.049,7.691a34.421,34.421,0,0,0-2,3.434l-.08.152c-1.415,2.716-2.533,4.861-7.225,6.986a21,21,0,0,0-4.465,2.658c-1.573,1.179-2.71,2.03-6.66,2.387C24.065,43.565,23.756,43.579,23.427,43.579ZM19.937,2.2a8.762,8.762,0,0,0-1.045.062C14.956,2.754,9.429,7.326,4.469,14.2c-2.915,4.035-2.4,5.7-1.7,8a14,14,0,0,1,.8,5.166c-.237,4.985,2.9,6.9,3.039,6.974l.155.093.127.141c1.4,1.619,10.784,6.81,16.507,6.81.27,0,.532-.012.779-.034,3.323-.3,4.105-.886,5.526-1.948a23.037,23.037,0,0,1,4.884-2.91c4.012-1.818,4.829-3.391,6.183-6l.008-.015A38.032,38.032,0,0,1,42.96,26.7c1.833-2.741,1.468-3.812.806-5.755a15.528,15.528,0,0,1-.99-4.583c-.172-3.2-4.524-5.553-8.021-7.44L34.6,8.837a30.378,30.378,0,0,1-3.534-2.11C29.646,5.666,24.638,2.2,19.937,2.2Z" transform="translate(131.255 64.337)" fill="#0253a2"/>
      <path id="Fill_643" data-name="Fill 643" d="M30.042,43.257s-14.908.276-18.773-2.2S.5,39.131.777,34.453-.876,25.925.5,22.072s1.378-5.5,6.352-12.106S13.756.335,16.236.059,19.55.335,27.555,4.188s15.467,4.954,15.467,7.7,1.653,12.381-.283,15.959-8.832,14.855-12.7,15.406" transform="translate(115.272 97.913)" fill="#fff"/>
      <path id="Fill_644" data-name="Fill 644" d="M29.825,45.468c-5.348,0-14.8-.31-18.046-2.386a17.508,17.508,0,0,0-4.421-1.7C4.167,40.458.55,39.414.782,35.489a24.606,24.606,0,0,0-.387-5.2l0-.024c-.372-2.543-.723-4.945.176-7.46.212-.591.39-1.126.562-1.643l.026-.079C2.075,18.29,2.8,16.087,7.074,10.4l.616-.823Q8.273,8.8,8.8,8.1C12.763,2.786,14.571.361,17.223.067A9.681,9.681,0,0,1,18.3,0c1.949,0,3.406.7,8.825,3.321l.014.007,2.011.968a86.324,86.324,0,0,0,8.191,3.321c4.754,1.729,7.894,2.871,7.894,5.374,0,.6.094,1.644.2,2.848l.02.225c.411,4.4.973,10.429-.631,13.41l-.009.016c-.855,1.558-8.494,15.242-13.509,15.957l-.134.012S30.651,45.468,29.825,45.468ZM18.3,2.2a7.574,7.574,0,0,0-.827.053c-1.694.186-3.425,2.506-6.873,7.129l-.022.029-.152.2c-.5.675-1.019,1.364-1.584,2.111-4.047,5.382-4.692,7.337-5.585,10.041q-.073.218-.147.442c-.141.424-.286.86-.455,1.332-.718,1.991-.422,4.026-.08,6.381l.006.043a26.847,26.847,0,0,1,.409,5.652c-.112,1.965,1.432,2.621,4.982,3.648a19.165,19.165,0,0,1,5,1.963c2.346,1.5,10.244,2.037,16.853,2.037.7,0,1.145-.006,1.226-.007,2.73-.5,8.726-9.086,11.827-14.83,1.294-2.4.722-8.509.38-12.162-.134-1.412-.239-2.527-.239-3.276,0-.968-3.422-2.21-6.44-3.306a88.549,88.549,0,0,1-8.394-3.407l-2.011-.971C21.1,2.86,19.741,2.2,18.3,2.2Z" transform="translate(114.166 96.813)" fill="#0253a2"/>
      <path id="Fill_645" data-name="Fill 645" d="M2.873,39.943a35.677,35.677,0,0,1-2.48-19.26C2.046,9.954,2.6,6.928,6.469,3.349s5.242-4.678,14.625-1.374,20.158.551,21.26,4.126,2.763,10.731,0,17.609-6.628,16.509-9.934,19.536S18.332,47.1,14.475,46s-10.492-4.4-11.6-6.052" transform="translate(102.96 135.07)" fill="#fff"/>
      <path id="Fill_646" data-name="Fill 646" d="M20.132,48.662a19.512,19.512,0,0,1-4.856-.507c-3.84-1.1-10.838-4.445-12.212-6.5l-.074-.131A36.586,36.586,0,0,1,.406,21.617l.005-.035C2.031,11.1,2.577,7.57,6.825,3.644,9.021,1.608,10.755,0,13.943,0c1.991,0,4.572.609,8.631,2.037,4.3,1.514,9.01,1.713,12.794,1.873h.03c4.825.2,8.311.35,9.123,2.965,2.083,6.751,2.072,13.094-.031,18.342l-.026.065c-2.831,7.044-6.707,16.69-10.19,19.874C31.636,47.565,25.094,48.662,20.132,48.662ZM13.943,2.2c-2.223,0-3.329.936-5.621,3.053-3.547,3.289-4.074,5.951-5.735,16.7A35.072,35.072,0,0,0,4.941,40.49c.955,1.252,6.881,4.389,10.938,5.547a16.919,16.919,0,0,0,4.253.423c4.579,0,10.567-1.026,12.645-2.926,3.124-2.851,7.045-12.625,9.64-19.092l.009-.022c1.924-4.776,1.917-10.619-.022-16.9-.349-1.131-3.778-1.274-7.094-1.413-3.942-.165-8.848-.37-13.474-2C18.031,2.773,15.67,2.2,13.943,2.2Z" transform="translate(101.852 133.969)" fill="#0253a2"/>
      <path id="Fill_647" data-name="Fill 647" d="M9.925,41.821C7.46,41.645-.292,39.9.267,33.567s-1.661-6.051,1.378-17.884S5.509,0,8.823,0s9.658,4.678,16.01,4.952,12.7-2.474,15.735.551,3.865,5.228,4.423,12.382,3.857,10.73-1.11,15.406-4.691,6.33-12.421,7.43a129.64,129.64,0,0,1-21.536,1.1" transform="translate(94.53 176.387)" fill="#fff"/>
      <path id="Fill_648" data-name="Fill 648" d="M14.673,44.122c-1.493,0-2.781-.036-3.725-.1-.24-.017-5.92-.453-8.98-4.026a7.091,7.091,0,0,1-1.7-5.42A22.793,22.793,0,0,0,.18,29.8l0-.016c-.261-2.639-.53-5.367,1.5-13.275l.4-1.568C4.94,3.765,5.9,0,9.927,0c1.654,0,3.743.91,6.162,1.965l.035.015c3.029,1.326,6.462,2.828,9.86,2.974.284.012.578.018.876.018a44.509,44.509,0,0,0,5.652-.481,38.306,38.306,0,0,1,4.73-.42,7.152,7.152,0,0,1,5.214,1.752C45.74,9.1,46.626,11.546,47.192,18.9a36.088,36.088,0,0,0,.862,5.176l.039.179c.87,3.865,1.622,7.2-2.348,10.935-1.06.995-1.868,1.847-2.582,2.6-2.666,2.8-4,4.205-10.441,5.119A141.534,141.534,0,0,1,14.673,44.122ZM9.927,2.2c-2.209,0-3.068,2.973-5.7,13.283l-.4,1.571C1.882,24.582,2.121,27,2.375,29.562l0,.019,0,.024a24.685,24.685,0,0,1,.086,5.157,4.918,4.918,0,0,0,1.186,3.8c2.035,2.384,6.076,3.161,7.462,3.259.883.063,2.114.1,3.56.1A139.1,139.1,0,0,0,32.41,40.732c5.674-.808,6.621-1.8,9.152-4.456l.044-.046c.726-.761,1.548-1.624,2.622-2.636,3.05-2.868,2.547-5.119,1.714-8.847l-.022-.1a37.4,37.4,0,0,1-.925-5.579c-.56-7.162-1.422-9.02-4.1-11.689a4.884,4.884,0,0,0-3.658-1.109,36.278,36.278,0,0,0-4.355.391l-.082.01a46.051,46.051,0,0,1-5.929.5c-.335,0-.668-.007-.99-.021C22.077,6.988,18.284,5.33,15.237,4,13.128,3.074,11.136,2.2,9.927,2.2Z" transform="translate(93.425 175.287)" fill="#0253a2"/>
      <path id="Fill_649" data-name="Fill 649" d="M26.834,45.7s-13.8-.551-18.773-9.631S-.5,28.094.056,19.291-.22,2.783,6.683.856s17.947,0,24.016,0,10.768-1.1,11.595,4.128a96.023,96.023,0,0,1,.834,22.559c-.834,7.979-6.352,18.708-16.293,18.161" transform="translate(93.355 216.527)" fill="#fff"/>
      <path id="Fill_650" data-name="Fill 650" d="M28.668,47.925c-.261,0-.519-.007-.789-.022-.587-.022-14.449-.649-19.683-10.2a38.439,38.439,0,0,0-4.6-6.638l-.02-.025C1.226,28.218-.323,26.356.057,20.322c.065-1,.107-2,.148-2.956l.032-.735C.54,9.19.8,2.764,7.488.9A31.147,31.147,0,0,1,15.734,0c3.209,0,6.548.259,9.494.488L25.3.494c2.426.186,4.715.362,6.5.362.892,0,1.748-.024,2.576-.047l.114,0C35.319.781,36.062.76,36.777.76c3.338,0,6.962.4,7.715,5.152a97.482,97.482,0,0,1,.834,22.846C44.559,36.169,39.358,47.925,28.668,47.925ZM15.734,2.2a28.931,28.931,0,0,0-7.648.818c-4.893,1.365-5.317,5.866-5.645,13.7-.041,1.109-.1,2.42-.179,3.739-.321,5.167.792,6.506,3.008,9.173a39.948,39.948,0,0,1,4.87,7.012c2.38,4.352,7.078,6.58,10.6,7.683A31.79,31.79,0,0,0,27.982,45.7c.256.015.467.022.686.022,4.9,0,13.166-4.668,14.462-17.194a95.135,95.135,0,0,0-.82-22.275c-.4-2.557-1.642-3.3-5.532-3.3-.612,0-1.251.018-1.927.037l-.291.008c-.963.029-1.835.053-2.757.053-1.9,0-4.252-.182-6.74-.375C22.145,2.456,18.84,2.2,15.734,2.2Z" transform="translate(92.252 215.427)" fill="#0253a2"/>
      <path id="Fill_651" data-name="Fill 651" d="M38.9,7.381S33.936.685,18.291.043C5.706-.47,2.742,3.711.806,5.088s0,11.005,1.661,18.158,2.6,10.3,6.345,14.033c3.865,3.852,9.39,4.952,13.806,2.2s9.941-10.454,13.531-16.233S42.5,12.7,38.9,7.381" transform="translate(253.849 1.267)" fill="#fff"/>
      <path id="Fill_652" data-name="Fill 652" d="M18.4,43.211a13.164,13.164,0,0,1-9.255-4.052C5.071,35.1,4.114,31.567,2.5,24.594-.83,10.225-.4,6.486,1.277,5.293c.222-.158.465-.36.76-.614C3.98,3.044,7.6,0,17.333,0c.7,0,1.389.015,2.116.045C35.473.7,40.694,7.537,40.908,7.827c4.119,6.1.648,11.693-2.708,17.1-2.423,3.9-8.625,13.31-13.881,16.588A11.181,11.181,0,0,1,18.4,43.211ZM17.333,2.2C8.408,2.2,5.319,4.8,3.474,6.351c-.3.258-.624.525-.916.733C2.207,7.438,1.318,9.711,4.65,24.1c1.669,7.2,2.565,10.026,6.056,13.5a10.982,10.982,0,0,0,7.7,3.407,8.863,8.863,0,0,0,4.746-1.363c4.991-3.11,11.345-12.941,13.173-15.88C40.1,17.679,42.178,13.654,39.1,9.1c-.205-.255-5.2-6.256-19.741-6.852C18.644,2.216,17.981,2.2,17.333,2.2Z" transform="translate(252.737 0.166)" fill="#0253a2"/>
      <path id="Fill_653" data-name="Fill 653" d="M36.444,26.543s4.691-4.681,1.1-11.558S25.676,4.53,21.8,2.6,16.01-.973,10.492.677s-6.9,2.2-7.454,6.607S0,20.764,0,26.816.827,37.823,3.865,39.2s4.416,2.476,8.281,1.1,23.465-12.381,24.3-13.755" transform="translate(290.273 13.105)" fill="#fff"/>
      <path id="Fill_654" data-name="Fill 654" d="M10.134,43.13a10.3,10.3,0,0,1-4.588-1.347c-.324-.155-.671-.32-1.033-.484C1.392,39.888,0,35.761,0,27.917,0,23.877,1.086,18.5,1.959,14.184l.023-.115c.453-2.22.881-4.316,1.064-5.822C3.68,3.229,5.53,2.444,11.282.722A15.231,15.231,0,0,1,15.609,0c2.559,0,4.358.935,6.441,2.019l.021.011.143.075c.381.2.775.405,1.2.614.295.149.622.308.97.478l.065.032.014.007c4.383,2.139,11.719,5.719,15.17,12.344a11.248,11.248,0,0,1,.856,9.233,10.461,10.461,0,0,1-2.147,3.605c-2.268,2.446-21.907,13.021-24.713,14.02A10.354,10.354,0,0,1,10.134,43.13ZM15.609,2.2a13.1,13.1,0,0,0-3.694.631c-5.492,1.646-6.211,2-6.673,5.69-.192,1.543-.6,3.575-1.083,5.927l-.012.059c-.863,4.254-1.937,9.548-1.937,13.41,0,6.677,1.053,10.4,3.218,11.378.36.163.693.32,1.012.47l.052.025a8.228,8.228,0,0,0,3.641,1.14,8.337,8.337,0,0,0,2.749-.569c4.166-1.48,22.357-11.873,23.755-13.333l.134-.163c.167-.171,4.039-4.264.9-10.273C34.555,10.608,27.626,7.227,23.485,5.207l-.08-.039c-.352-.171-.683-.331-.983-.481-.391-.2-.762-.388-1.122-.574l-.258-.133-.013-.007C19.056,2.944,17.63,2.2,15.609,2.2Z" transform="translate(289.163 12.005)" fill="#0253a2"/>
      <path id="Fill_655" data-name="Fill 655" d="M26.14,33.584s3.589-3.029,4.416-10.457,3.865-13.482.827-16.783S27.517-.258,22.826.016A26.719,26.719,0,0,0,9.02,5.243,21.84,21.84,0,0,0,.463,19.824c-.827,6.33-1.11,15.409,4.14,16.51s12.7,4.676,21.536-2.75" transform="translate(316.037 36.604)" fill="#fff"/>
      <path id="Fill_656" data-name="Fill 656" d="M15.65,40.363a30.211,30.211,0,0,1-7.827-1.279l-.094-.025c-.792-.207-1.54-.4-2.244-.547-4.726-.994-6.41-6.96-5-17.73a22.97,22.97,0,0,1,9-15.327A27.618,27.618,0,0,1,23.872.018C24.078.006,24.283,0,24.48,0c3.663,0,5.236,2.1,6.9,4.318l.019.025.09.119c.553.73,1.124,1.486,1.816,2.239,2.476,2.689,1.616,6.637.619,11.208a61.494,61.494,0,0,0-1.162,6.441c-.872,7.856-4.764,11.142-4.8,11.174A18.64,18.64,0,0,1,15.65,40.363ZM24.467,2.2c-.135,0-.29,0-.461.012A25.746,25.746,0,0,0,10.787,7.229,20.747,20.747,0,0,0,2.67,21.067C1.977,26.374,1.48,35.419,5.938,36.358c.8.167,1.637.386,2.443.6l.027.007a28.47,28.47,0,0,0,7.241,1.2,16.52,16.52,0,0,0,10.888-4.32c.032-.027,3.268-2.9,4.028-9.738A64.131,64.131,0,0,1,31.7,17.716l.059-.274,0-.02c.9-4.13,1.609-7.392-.086-9.234a31.838,31.838,0,0,1-2.047-2.527C28.072,3.577,27.038,2.2,24.467,2.2Z" transform="translate(314.925 35.504)" fill="#0253a2"/>
      <path id="Fill_657" data-name="Fill 657" d="M39.355,34.189s3.872-2.2,3.6-7.981,3.857-6.878-1.11-13.756S31.074.622,26.658.071s-9.666,2.2-12.972,4.679S1.808,9.976,1.533,15.2s-3.306,6.054,0,11.005S4.3,33.638,10.372,36.389s4.691,4.4,10.768,4.954S37.7,36.116,39.355,34.189" transform="translate(328.491 65.438)" fill="#fff"/>
      <path id="Fill_658" data-name="Fill 658" d="M23.088,43.579c-.341,0-.659-.014-.944-.041-3.946-.359-5.08-1.21-6.65-2.387a21.245,21.245,0,0,0-4.47-2.66c-4.7-2.128-5.815-4.274-7.23-6.99l-.007-.013a36.379,36.379,0,0,0-2.064-3.571C-.71,24.274-.072,22.4.666,20.236l.014-.04a13.572,13.572,0,0,0,.859-3.951c.239-4.435,5.2-7.111,9.178-9.262l.1-.056A30.147,30.147,0,0,0,14.13,4.97C15.686,3.8,21.181,0,26.588,0a10.727,10.727,0,0,1,1.317.079C32.5.653,38.459,5.45,43.843,12.91c3.552,4.914,2.807,7.349,2.019,9.926a12.01,12.01,0,0,0-.7,4.418c.273,5.8-3.264,8.42-3.976,8.887C39.061,38.36,29.431,43.579,23.088,43.579Zm3.5-41.38c-4.733,0-9.717,3.468-11.131,4.531a31.883,31.883,0,0,1-3.6,2.141l-.086.047c-3.5,1.889-7.856,4.239-8.021,7.442a15.9,15.9,0,0,1-.99,4.581l-.006.017c-.66,1.938-1.024,3.006.809,5.74A37.359,37.359,0,0,1,5.68,30.349l.073.138c1.364,2.613,2.187,4.191,6.18,6a23.027,23.027,0,0,1,4.858,2.883l.029.022c1.421,1.065,2.2,1.652,5.525,1.953.246.023.506.034.775.034,5.745,0,15.119-5.189,16.508-6.807l.127-.146.165-.093c.134-.078,3.269-1.971,3.029-6.974a13.991,13.991,0,0,1,.806-5.164c.7-2.308,1.209-3.976-1.7-8C37.087,7.326,31.56,2.754,27.631,2.264A8.212,8.212,0,0,0,26.588,2.2Z" transform="translate(327.383 64.338)" fill="#0253a2"/>
      <path id="Fill_659" data-name="Fill 659" d="M13.632,43.255s14.908.276,18.773-2.2,10.768-1.924,10.492-6.6,1.661-8.529.276-12.381-1.378-5.5-6.345-12.106-6.9-9.628-9.39-9.9S24.124.336,16.119,4.187.659,9.14.659,11.89-.994,24.271.935,27.849s8.832,14.858,12.7,15.406" transform="translate(346.209 97.916)" fill="#fff"/>
      <path id="Fill_660" data-name="Fill 660" d="M16.076,45.465c-.846,0-1.344-.009-1.348-.01l-.141-.012C9.381,44.706,1.152,29.623,1.071,29.471c-1.6-2.97-1.042-9-.634-13.405.131-1.354.232-2.44.232-3.075,0-2.51,3.14-3.65,7.892-5.377l.02-.007A85.933,85.933,0,0,0,16.755,4.3l2.039-.985C24.2.7,25.65,0,27.6,0a9.853,9.853,0,0,1,1.078.067c2.65.294,4.459,2.72,8.422,8.035l.138.185c.5.671,1.016,1.365,1.584,2.118,4.269,5.671,5,7.879,5.92,10.675l.068.2c.16.478.325.972.52,1.517.9,2.517.551,4.924.181,7.473a25.193,25.193,0,0,0-.4,5.213c.23,3.928-3.383,4.971-6.57,5.891a17.272,17.272,0,0,0-4.423,1.7C30.878,45.156,21.423,45.465,16.076,45.465ZM27.6,2.2c-1.44,0-2.8.654-7.842,3.089l-2.042.987a88.841,88.841,0,0,1-8.392,3.4c-3.022,1.1-6.448,2.34-6.448,3.309,0,.694-.091,1.711-.207,3l-.025.278c-.342,3.652-.913,9.765.373,12.159,3.109,5.745,9.109,14.331,11.825,14.828.172,0,.6.007,1.236.007,6.609,0,14.506-.534,16.845-2.035a18.965,18.965,0,0,1,4.985-1.96l.019-.006c3.556-1.027,5.1-1.682,4.982-3.648a26.839,26.839,0,0,1,.409-5.652c.349-2.369.65-4.416-.067-6.424-.207-.573-.4-1.136-.6-1.772l-.012-.036c-.9-2.7-1.548-4.652-5.583-10.008-.629-.836-1.207-1.61-1.719-2.3L35.27,9.34c-3.43-4.593-5.152-6.9-6.839-7.086A7.692,7.692,0,0,0,27.6,2.2Z" transform="translate(345.097 96.815)" fill="#0253a2"/>
      <path id="Fill_661" data-name="Fill 661" d="M40.99,39.941a35.72,35.72,0,0,0,2.487-19.26C41.817,9.951,41.266,6.926,37.4,3.348S32.159-1.327,22.768,1.973,2.617,2.524,1.508,6.1s-2.755,10.733,0,17.611,6.628,16.507,9.941,19.534S25.531,47.094,29.4,46s10.492-4.4,11.595-6.055" transform="translate(358.332 135.072)" fill="#fff"/>
      <path id="Fill_662" data-name="Fill 662" d="M25.938,48.662c-4.959,0-11.5-1.1-14.134-3.507C8.316,41.969,4.445,32.331,1.618,25.294l-.03-.074C-.519,19.979-.53,13.636,1.557,6.876c.805-2.617,4.289-2.764,9.111-2.967,3.795-.158,8.517-.354,12.837-1.872C27.563.609,30.144,0,32.135,0c3.174,0,4.91,1.6,7.106,3.633l.011.01c4.241,3.923,4.786,7.453,6.406,17.932l.006.04A36.577,36.577,0,0,1,43.08,41.521l-.074.129c-1.346,2.024-8.454,5.435-12.2,6.505A19.552,19.552,0,0,1,25.938,48.662Zm6.2-46.46c-1.725,0-4.088.571-7.9,1.91-4.617,1.626-9.523,1.831-13.465,2-3.32.139-6.753.282-7.1,1.413C2.317,11.9,1.217,18.374,3.635,24.4c2.6,6.478,6.523,16.269,9.659,19.131,2.084,1.9,8.07,2.929,12.645,2.929a16.919,16.919,0,0,0,4.253-.423c4.057-1.155,9.982-4.293,10.938-5.549A35.128,35.128,0,0,0,43.484,21.95C41.822,11.2,41.295,8.534,37.749,5.255,35.464,3.138,34.361,2.2,32.135,2.2Z" transform="translate(357.232 133.972)" fill="#0253a2"/>
      <path id="Fill_663" data-name="Fill 663" d="M35.185,41.821c2.465-.174,10.217-1.926,9.666-8.255s1.661-6.053-1.378-17.882S39.6,0,36.294,0,26.628,4.679,20.276,4.954,7.58,2.476,4.541,5.5.676,10.73.125,17.885s.812,8.527,2.2,14.305c2.026,8.5.268,9.355,8.005,10.456s20.992-.548,24.857-.825" transform="translate(365.516 176.389)" fill="#fff"/>
      <path id="Fill_664" data-name="Fill 664" d="M17.89,45.219a48.166,48.166,0,0,1-6.613-.385c-6.722-.956-7.148-2.05-8.057-7.062l-.029-.158c-.2-1.095-.451-2.457-.844-4.069-.339-1.445-.693-2.628-1.006-3.671l-.029-.1-.007-.022A24.678,24.678,0,0,1,.129,18.9C.7,11.545,1.581,9.1,4.865,5.824a7.137,7.137,0,0,1,5.212-1.755,37.852,37.852,0,0,1,4.667.414l.055.007a43.949,43.949,0,0,0,5.643.483c.3,0,.606-.006.9-.019,3.406-.146,6.838-1.649,9.867-2.974C33.635.917,35.734,0,37.4,0c4.017,0,4.98,3.767,7.839,14.95l.4,1.561c2.039,7.948,1.763,10.664,1.5,13.29l-.007.077a22.459,22.459,0,0,0-.076,4.693A7.1,7.1,0,0,1,45.353,40c-2.442,2.854-6.942,3.88-8.98,4.024-.588.041-1.406.117-2.353.206l-.537.05C29.478,44.651,23.426,45.219,17.89,45.219ZM10.077,6.271A4.847,4.847,0,0,0,6.429,7.38C3.7,10.1,2.886,11.858,2.333,19.069a22.531,22.531,0,0,0,1.1,10.082c.339,1.135.7,2.369,1.066,3.883.424,1.782.69,3.264.884,4.346.789,4.343.82,4.512,6.2,5.277a45.888,45.888,0,0,0,6.3.363c5.437,0,11.428-.564,15.392-.937,1.131-.106,2.206-.206,2.934-.258,1.381-.1,5.415-.875,7.462-3.259a4.909,4.909,0,0,0,1.176-3.8,24.578,24.578,0,0,1,.086-5.134l0-.047,0-.019c.253-2.561.493-4.98-1.439-12.5l-.4-1.564C40.461,5.175,39.6,2.2,37.4,2.2c-1.217,0-3.205.873-5.31,1.8l-.032.014c-3.041,1.327-6.826,2.977-10.623,3.142-.319.014-.651.021-.984.021a46.069,46.069,0,0,1-5.921-.5l-.014,0A36.6,36.6,0,0,0,10.077,6.271Z" transform="translate(364.41 175.289)" fill="#0253a2"/>
      <path id="Fill_665" data-name="Fill 665" d="M10.693,42.125s20.717,3.028,25.691-6.052S44.94,28.1,44.389,19.292,44.665,2.783,37.762.856s-17.947,0-24.016,0S2.978-.243,2.144,4.985-.626,18.74.2,26.718.752,42.675,10.693,42.125" transform="translate(365.15 218.729)" fill="#fff"/>
      <path id="Fill_666" data-name="Fill 666" d="M19.409,44.81a61.062,61.062,0,0,1-7.662-.478c-.3.014-.6.022-.892.022-9.137,0-9.8-7.245-10.44-14.251L.4,29.919C.336,29.266.274,28.595.2,27.931-.5,21.125.757,13.995,1.672,8.788c.159-.885.315-1.8.492-2.874C2.915,1.159,6.54.76,9.879.76c.711,0,1.456.021,2.286.045l.1,0c.831.023,1.691.047,2.585.047,1.795,0,4.1-.178,6.536-.366l.032,0C24.372.259,27.719,0,30.923,0a31.185,31.185,0,0,1,8.243.9c6.683,1.868,6.948,8.3,7.254,15.741.036,1,.088,2.319.177,3.687.373,6.041-1.173,7.9-3.514,10.718A38.139,38.139,0,0,0,38.459,37.7C35.242,43.577,26.324,44.81,19.409,44.81Zm-7.565-2.687h0l.112.014a58.323,58.323,0,0,0,7.452.473c6.316,0,14.411-1.034,17.106-5.963a40.571,40.571,0,0,1,4.831-6.974l.032-.039c2.22-2.67,3.335-4.011,3.015-9.176-.084-1.318-.14-2.658-.184-3.734-.32-7.84-.74-12.342-5.637-13.709A28.979,28.979,0,0,0,30.923,2.2c-3.074,0-6.361.252-9.262.475l-.07.005c-2.376.185-4.833.375-6.74.375-.929,0-1.829-.025-2.747-.053l-.128,0c-.737-.02-1.432-.04-2.1-.04-3.892,0-5.133.739-5.535,3.294-.132.823-.291,1.736-.46,2.7l-.037.21C2.954,14.25,1.73,21.208,2.4,27.7c.081.717.148,1.441.212,2.141l.005.058c.691,7.6,1.458,12.25,8.236,12.25.27,0,.568-.009.885-.026Z" transform="translate(364.044 217.629)" fill="#0253a2"/>
      <path id="Fill_667" data-name="Fill 667" d="M28.247,47.755c-4.408.444-9.941,1.836-18.408-1.1s-9.2-6.6-9.569-10.639C-.84,23.91,1.744,14.74,3.211,11.8S11.313.434,19.78.065,27.874.8,36.341,5.2s6.628,4.4,5.525,13.574S44.5,31.752,39.29,38.952c-4.788,6.6-7.365,8.437-11.044,8.8" transform="translate(98.757 304.628)" fill="#fff"/>
      <path id="Fill_668" data-name="Fill 668" d="M21.289,50.677A32.364,32.364,0,0,1,10.572,48.8C1.746,45.735.683,41.741.267,37.217c-1.059-11.6,1.25-21.186,3.06-24.8C5.187,8.705,12.175.445,20.826.067,21.852.022,22.729,0,23.508,0c4.8,0,6.394.891,10.246,3.044l.083.046c1.145.641,2.441,1.366,4.116,2.239,7.325,3.8,7.634,4.8,6.665,10.83-.158.963-.373,2.28-.557,3.849a36.146,36.146,0,0,0,.056,8.092c.387,4.124.722,7.686-2.835,12.6-4.776,6.591-7.649,8.839-11.827,9.252-.658.067-1.333.153-1.987.237l-.017,0A47.023,47.023,0,0,1,21.289,50.677ZM23.508,2.2c-.725,0-1.571.021-2.584.065C13.09,2.606,6.73,10.545,5.3,13.4c-1.174,2.34-3.97,11.145-2.831,23.618.306,3.369.622,6.853,8.834,9.7a30.046,30.046,0,0,0,9.986,1.76,45.522,45.522,0,0,0,5.89-.469l.015,0c.7-.09,1.386-.177,2.039-.244,3.072-.306,5.392-1.633,10.261-8.351,3.067-4.234,2.8-7.112,2.429-11.1a37.377,37.377,0,0,1-.06-8.569c.192-1.543.391-2.8.567-3.909l0-.026c.827-5.135.843-5.233-5.5-8.53-1.682-.875-3.047-1.635-4.143-2.246l-.118-.066C28.886,2.843,27.743,2.2,23.508,2.2Z" transform="translate(97.658 303.527)" fill="#0253a2"/>
      <path id="Fill_669" data-name="Fill 669" d="M25.143,43.613c-1.981-.164-9.569,2.2-13.985,2.568S4.53,43.98,4.9,39.213,4.158,30.405,1.581,24.17-2.1,2.159,11.9,1.057s21.35-2.2,23.554,1.469,5.525,5.5,4.416,13.206,0,19.075-2.949,22.745a13.627,13.627,0,0,1-11.773,5.136" transform="translate(99.284 351.326)" fill="#fff"/>
      <path id="Fill_670" data-name="Fill 670" d="M11.443,48.416a6.357,6.357,0,0,1-4.863-1.872c-1.33-1.432-1.9-3.557-1.69-6.314.373-4.754-.848-8.778-3.232-14.541-1.676-4.055-2.966-12.71.708-18.674C4.57,3.44,8.115,1.437,12.9,1.062,14.442.94,15.9.819,17.377.7l.158-.013C22.143.3,25.781,0,28.719,0c3.6,0,7.158.371,8.772,3.06a23.885,23.885,0,0,0,1.5,2.14c1.962,2.614,3.992,5.317,3.067,11.789-.366,2.545-.484,5.579-.6,8.513l-.013.345c-.215,6.041-.418,11.747-2.568,14.419A14.743,14.743,0,0,1,27.349,45.86c-.4,0-.811-.017-1.2-.05-.051,0-.107-.006-.168-.006a34,34,0,0,0-5.116.962l-.367.084-.016,0a65.814,65.814,0,0,1-8.139,1.524C12.038,48.4,11.743,48.416,11.443,48.416ZM28.719,2.2c-2.852,0-6.458.3-11.024.675l-.139.011c-1.187.1-2.769.233-4.483.366C9.028,3.575,6.059,5.227,4.25,8.167,1.182,13.141,2.081,20.918,3.7,24.852,6.211,30.934,7.5,35.213,7.095,40.4c-.165,2.084.219,3.692,1.109,4.65a4.224,4.224,0,0,0,3.241,1.169c.229,0,.469-.01.713-.031a64.221,64.221,0,0,0,7.819-1.475L20,44.705a35.586,35.586,0,0,1,6.057-1.1c.1,0,.189,0,.271.01.34.028.686.043,1.027.043a12.548,12.548,0,0,0,9.8-4.769c1.676-2.09,1.883-7.666,2.082-13.057l0-.068c.107-2.952.227-6.3.626-9.087.8-5.564-.8-7.693-2.651-10.158A27.391,27.391,0,0,1,35.6,4.193C34.758,2.8,32.7,2.2,28.719,2.2Z" transform="translate(98.187 350.225)" fill="#0253a2"/>
      <path id="Fill_671" data-name="Fill 671" d="M20.51,49.206c-1.467,0-12.511-.733-13.248-5.5A58.316,58.316,0,0,0,2.474,27.2C-1.354,18.294-.832,10.686,4.686,5.55,12.87-2.062,28.612-.318,31.553,1.882S41.13,9.588,41.13,16.555s1.467,20.179-.372,22.379S23.459,49.206,20.51,49.206" transform="translate(106.858 394.155)" fill="#fff"/>
      <path id="Fill_672" data-name="Fill 672" d="M21.63,51.406c-.133,0-13.391-.277-14.342-6.434A57.024,57.024,0,0,0,2.58,28.73C-1.56,19.114-.7,11.2,5.052,5.845,10.521.759,18.532,0,22.82,0c4.537,0,8.861.864,10.515,2.1,4.57,3.414,10.017,8.883,10.017,15.554,0,1.968.113,4.382.261,7.333.423,8.636.575,14.005-.887,15.75C40.722,43.138,25.022,51.406,21.63,51.406ZM22.82,2.2c-3.965,0-11.35.682-16.264,5.253C.229,13.344,2.007,21.8,4.612,27.864A59.458,59.458,0,0,1,9.468,44.638C10.006,48.111,19.1,49.2,21.63,49.2c2.4,0,17.625-7.751,19.4-9.874,1.011-1.21.635-8.98.386-14.121l-.006-.114-.032-.662c-.122-2.5-.238-4.856-.238-6.779,0-5.763-4.964-10.681-9.128-13.792C31.089,3.174,27.629,2.2,22.82,2.2Z" transform="translate(105.739 393.055)" fill="#0253a2"/>
      <path id="Fill_673" data-name="Fill 673" d="M30.584,41.455S25.066,47.325,18.8,46.59C16.495,46.316,7.1,34.234,6.285,33.015,3.344,28.612.4,24.944.4,21.278.4,16.873-3.284,8.8,11.811,2.933S30.212,1.1,33.9,5.5s7.357,12.106,7.357,15.777S38.314,39.986,30.584,41.455" transform="translate(123.659 436.76)" fill="#fff"/>
      <path id="Fill_674" data-name="Fill 674" d="M21.013,48.856a10.933,10.933,0,0,1-1.229-.074C16.575,48.4,6.569,34.862,6.477,34.726,6.06,34.1,5.63,33.469,5.2,32.842,2.625,29.094.4,25.857.4,22.378c0-.548-.07-1.2-.144-1.89l-.021-.2C-.3,15.516-1.107,8.305,12.516,3.008,17.727.984,21.86,0,25.154,0c5.771,0,8.259,2.977,10.665,5.857,3.609,4.318,7.646,12.3,7.646,16.521,0,3.765-2.929,19.2-11.22,21.18C30.978,44.8,26.421,48.856,21.013,48.856ZM25.154,2.2c-3.017,0-6.887.935-11.832,2.857C1.281,9.74,1.92,15.453,2.434,20.043l.022.2a20.532,20.532,0,0,1,.158,2.131c0,2.8,2.043,5.774,4.409,9.221l.249.365q.515.756,1.047,1.543C9.724,35.615,18.236,46.121,20.069,46.6c.336.033.654.05.944.05,5.259,0,9.827-4.8,9.869-4.853l.244-.258.359-.067c3.657-.7,6.048-5.05,7.409-8.578a35.815,35.815,0,0,0,2.369-10.517c0-3.312-3.519-10.777-7.105-15.071l-.013-.016C31.857,4.56,29.881,2.2,25.154,2.2Z" transform="translate(122.551 435.66)" fill="#0253a2"/>
      <path id="Fill_675" data-name="Fill 675" d="M31.792,38.649c-2.606,2-10.679,4.03-11.781,3.3S8.6,37.914,4.552,31.309-1.7,12.6,1.611,7.828,13.019-2.075,18.172.86s13.62,5.87,16.2,12.112,5.525,19.436-2.577,25.678" transform="translate(150.793 471.849)" fill="#fff"/>
      <path id="Fill_676" data-name="Fill 676" d="M21.967,44.306a2.629,2.629,0,0,1-1.475-.342c-.133-.083-.684-.321-1.218-.55l-.1-.043-.019-.008c-3.288-1.416-10.987-4.732-14.45-10.382C.445,26.039-1.8,13.484,1.794,8.306,4.631,4.223,10.652,0,15.816,0a8.03,8.03,0,0,1,4,1c1.062.6,2.266,1.211,3.542,1.854C28.229,5.3,34.289,8.336,36.482,13.649c2.882,6.961,5.51,20.475-2.919,26.968C31.086,42.519,24.522,44.306,21.967,44.306ZM15.816,2.2c-4.383,0-9.748,3.821-12.2,7.361C.605,13.876,2.773,25.614,6.59,31.838c3.116,5.078,10.361,8.181,13.455,9.506l.161.07a13.948,13.948,0,0,1,1.427.666,2.218,2.218,0,0,0,.335.022c2.17,0,8.164-1.627,10.24-3.228,7.379-5.679,4.875-18,2.233-24.388-1.877-4.55-7.3-7.266-12.078-9.661l-.547-.278c-1.1-.56-2.147-1.088-3.094-1.63A5.787,5.787,0,0,0,15.816,2.2Z" transform="translate(149.702 470.749)" fill="#0253a2"/>
      <path id="Fill_677" data-name="Fill 677" d="M.417,27.993s-1.839-14.3,2.212-17.974S16.978-.988,21.029.111s9.569,1.469,8.1,7.711,3.679,12.468-3.314,17.6S2.628,30.932.417,27.993" transform="translate(175.177 504.509)" fill="#fff"/>
      <path id="Fill_678" data-name="Fill 678" d="M9.635,32.039c-2.713,0-7.489-.3-8.987-2.286l-.172-.232-.038-.289C.244,27.708-1.333,14.229,3,10.309,6.56,7.08,16.092,0,21.231,0a4.741,4.741,0,0,1,1.2.148c.442.125.951.251,1.556.385l.015,0c3.736.9,8.853,2.128,7.313,8.637a16.552,16.552,0,0,0,.118,6.183l0,.014c.559,3.907,1.192,8.335-3.849,12.045C22.937,30.828,15.01,32.039,9.635,32.039ZM21.231,2.2c-4,0-12.9,6.237-16.747,9.728C1.046,15.048,2.518,28.049,2.583,28.6c.728.571,3.013,1.241,7.053,1.241,5.436,0,12.691-1.3,16.645-4.2,3.972-2.914,3.53-6.018,2.971-9.948l0-.019a18.635,18.635,0,0,1-.08-7.006c.99-4.172-1.516-4.994-5.688-5.989L23.3,2.637c-.5-.12-.977-.233-1.444-.365A2.513,2.513,0,0,0,21.231,2.2Z" transform="translate(174.06 503.41)" fill="#0253a2"/>
      <path id="Fill_679" data-name="Fill 679" d="M25.592,32.78c-3.314,2.2-14.357-2.568-18.408-6.969S-1.648,20.676.556,17.374,10.5,6.368,15.286,2.331s9.934-2.2,12.146.735S28.9,30.584,25.592,32.78" transform="translate(196.752 518.802)" fill="#fff"/>
      <path id="Fill_680" data-name="Fill 680" d="M24.358,35.534c-4.855,0-13.209-3.9-16.867-7.882A25.187,25.187,0,0,0,3.4,24.216l-.012-.009C1.11,22.564-1.249,20.864.759,17.857c2.277-3.4,10.031-11.133,14.933-15.267A10.213,10.213,0,0,1,22.288,0a9.071,9.071,0,0,1,7.141,3.5c2.053,2.719,1.75,17.373.478,24.788-.834,4.841-1.874,6.033-2.584,6.508A5.3,5.3,0,0,1,24.358,35.534ZM22.288,2.2a7.971,7.971,0,0,0-5.174,2.07C12.353,8.282,4.721,15.906,2.6,19.081c-.717,1.072-.633,1.387,2.092,3.347A27.028,27.028,0,0,1,9.114,26.16c3.211,3.488,11.046,7.177,15.244,7.177a3.321,3.321,0,0,0,1.743-.371c.089-.071.9-.819,1.623-5.047,1.424-8.274,1.189-21.443-.06-23.095A6.823,6.823,0,0,0,22.288,2.2Z" transform="translate(195.632 517.704)" fill="#0253a2"/>
      <path id="Fill_681" data-name="Fill 681" d="M.074,20.235c1.1-6.241,7.208-12.3,9.2-15.043,5.89-8.074,8.832-5.87,13.62.735s6.628,9.9,6.255,14.672-6.992,8.445-12.883,8.809-17.3-2.939-16.2-9.173" transform="translate(225.948 526.946)" fill="#fff"/>
      <path id="Fill_682" data-name="Fill 682" d="M16.451,31.637c-4.978,0-11.9-1.932-14.909-5.513a5.943,5.943,0,0,1-1.451-4.98c.92-5.227,5.024-10.167,7.739-13.437l.021-.026c.7-.841,1.25-1.509,1.638-2.035C12.335,1.742,14.647,0,16.987,0c2.746,0,4.979,2.341,7.909,6.383,4.7,6.489,6.873,10.125,6.465,15.406-.418,5.376-7.535,9.417-13.919,9.819C17.127,31.623,16.791,31.637,16.451,31.637ZM16.987,2.2c-1.517,0-3.385,1.548-5.712,4.734-.4.552-.945,1.207-1.576,1.965l-.15.18-.036.044c-2.559,3.089-6.425,7.758-7.248,12.4a3.719,3.719,0,0,0,.968,3.185C5.686,27.626,12,29.433,16.451,29.433c.3,0,.578-.007.856-.022,5.347-.335,11.529-3.618,11.849-7.794.335-4.328-1.218-7.277-6.053-13.943C20.66,4.3,18.785,2.2,16.987,2.2Z" transform="translate(224.844 525.845)" fill="#0253a2"/>
      <path id="Fill_683" data-name="Fill 683" d="M14.591,47.758c4.416.44,9.941,1.834,18.408-1.1s9.2-6.6,9.569-10.64c1.11-12.1-1.474-21.277-2.941-24.211S31.525.435,23.058.066,14.963.8,6.5,5.2-.131,9.605.971,18.777-1.665,31.752,3.547,38.954c4.788,6.6,7.365,8.436,11.044,8.8" transform="translate(368.386 304.629)" fill="#fff"/>
      <path id="Fill_684" data-name="Fill 684" d="M23.736,50.677a47.086,47.086,0,0,1-6.134-.482l-.042-.005c-.718-.092-1.364-.173-1.994-.237-4.183-.416-7.059-2.665-11.834-9.255C.176,35.786.51,32.229.9,28.111a36.338,36.338,0,0,0,.06-8.1C.77,18.436.554,17.12.4,16.159-.571,10.132-.262,9.14,7.063,5.327c1.7-.885,3.005-1.613,4.2-2.283C15.114.891,16.709,0,21.508,0c.774,0,1.649.022,2.675.067C32.836.445,39.828,8.7,41.688,12.413c1.813,3.615,4.125,13.2,3.063,24.8-.418,4.524-1.483,8.519-10.307,11.579A32.275,32.275,0,0,1,23.736,50.677ZM21.508,2.2c-4.219,0-5.365.639-9.159,2.757C11.21,5.6,9.812,6.378,8.081,7.278c-6.344,3.3-6.328,3.4-5.5,8.533l0,.026c.176,1.109.375,2.366.567,3.909a37.341,37.341,0,0,1-.06,8.566c-.37,3.98-.637,6.855,2.429,11.1,4.878,6.72,7.2,8.048,10.261,8.353.591.06,1.191.134,1.826.213l.23.028a45.358,45.358,0,0,0,5.9.471,30.078,30.078,0,0,0,9.977-1.757c8.2-2.846,8.528-6.329,8.841-9.7,1.139-12.481-1.662-21.284-2.837-23.623-1.43-2.853-7.789-10.79-15.624-11.131C23.079,2.223,22.233,2.2,21.508,2.2Z" transform="translate(367.307 303.528)" fill="#0253a2"/>
      <path id="Fill_685" data-name="Fill 685" d="M14.941,43.612c1.981-.165,9.576,2.2,13.992,2.566s6.628-2.2,6.255-6.968.737-8.805,3.314-15.042S42.181,2.157,28.2,1.058,6.846-1.144,4.634,2.524-.884,8.026.219,15.732s0,19.075,2.949,22.745a13.625,13.625,0,0,0,11.773,5.136" transform="translate(370.613 351.328)" fill="#fff"/>
      <path id="Fill_686" data-name="Fill 686" d="M30.843,48.416c-.284,0-.576-.013-.894-.041a65.53,65.53,0,0,1-8.143-1.523l-.424-.1a33.781,33.781,0,0,0-5.065-.953q-.1,0-.175.007c-.4.033-.805.05-1.2.05A14.743,14.743,0,0,1,3.409,40.265c-2.147-2.671-2.353-8.38-2.57-14.424-.1-2.885-.222-6.154-.61-8.855C-.693,10.522,1.338,7.816,3.3,5.2l.032-.043a24.624,24.624,0,0,0,1.458-2.1C6.41.37,9.965,0,13.567,0c2.962,0,6.65.307,11.32.7l.036,0c1.6.133,3.058.252,4.466.363,4.783.375,8.326,2.378,10.531,5.951,3.669,5.961,2.381,14.619.708,18.677-2.378,5.764-3.6,9.788-3.232,14.538.208,2.755-.36,4.879-1.69,6.314A6.336,6.336,0,0,1,30.843,48.416ZM16.269,43.6A36.092,36.092,0,0,1,22.255,44.7l.039.009a64.805,64.805,0,0,0,7.835,1.478c.248.021.492.032.723.032a4.209,4.209,0,0,0,3.231-1.17c.888-.958,1.272-2.565,1.109-4.648-.395-5.2.888-9.476,3.395-15.545,1.623-3.927,2.525-11.7-.55-16.688-1.809-2.939-4.777-4.59-8.824-4.908q-2.176-.172-4.137-.338l-.331-.028-.024,0C20.1,2.5,16.443,2.2,13.567,2.2c-3.983,0-6.041.595-6.883,1.989A26.842,26.842,0,0,1,5.071,6.517C3.219,8.978,1.619,11.1,2.419,16.676a90.407,90.407,0,0,1,.624,9.085l0,.044c.2,5.4.407,10.993,2.086,13.086a12.556,12.556,0,0,0,9.807,4.767c.34,0,.673-.014,1.018-.043C16.066,43.607,16.168,43.6,16.269,43.6Z" transform="translate(369.508 350.228)" fill="#0253a2"/>
      <path id="Fill_687" data-name="Fill 687" d="M21.172,49.208c1.474,0,12.518-.735,13.248-5.5A58.316,58.316,0,0,1,39.208,27.2c3.828-8.9,3.314-16.508-2.212-21.645C28.82-2.063,13.077-.318,10.128,1.882S.559,9.586.559,16.558-.915,36.735.924,38.935s17.3,10.273,20.248,10.273" transform="translate(361.44 394.157)" fill="#fff"/>
      <path id="Fill_688" data-name="Fill 688" d="M22.275,51.409c-3.394,0-19.094-8.271-21.1-10.67C-.283,38.985-.132,33.617.292,24.984v-.019c.134-2.714.26-5.277.26-7.306C.552,10.988,6,5.517,10.567,2.1,12.231.864,16.555,0,21.084,0c4.288,0,12.3.76,17.775,5.848,5.75,5.355,6.6,13.268,2.463,22.882a57.415,57.415,0,0,0-4.705,16.243C35.663,51.132,22.408,51.409,22.275,51.409ZM21.084,2.2c-4.808,0-8.269.972-9.19,1.662C7.729,6.976,2.764,11.9,2.764,17.658c0,2.086-.126,4.677-.26,7.419v.014c-.26,5.182-.654,13.013.373,14.239,1.772,2.123,17,9.876,19.4,9.876,2.526,0,11.624-1.094,12.159-4.569A59.714,59.714,0,0,1,39.3,27.864C41.9,21.807,43.679,13.35,37.346,7.457,32.432,2.885,25.048,2.2,21.084,2.2Z" transform="translate(360.338 393.056)" fill="#0253a2"/>
      <path id="Fill_689" data-name="Fill 689" d="M10.679,41.453s5.518,5.87,11.773,5.136c2.308-.275,11.7-12.357,12.518-13.575,2.941-4.4,5.89-8.071,5.89-11.738,0-4.405,3.679-12.475-11.408-18.343S11.043,1.1,7.365,5.5,0,17.608,0,21.276,2.941,39.984,10.679,41.453" transform="translate(345.066 436.761)" fill="#fff"/>
      <path id="Fill_690" data-name="Fill 690" d="M22.466,48.856c-5.44,0-9.976-4.051-11.237-5.293C2.931,41.581,0,26.144,0,22.378,0,18.163,4.026,10.2,7.627,5.9,10.047,3,12.55,0,18.318,0c3.294,0,7.43.984,12.645,3.008,13.622,5.3,12.81,12.508,12.272,17.278l-.015.145c-.076.714-.147,1.386-.147,1.947,0,3.463-2.216,6.7-4.782,10.452l-.014.02c-.4.581-.821,1.194-1.274,1.874-.1.136-10.122,13.682-13.314,14.058A11.351,11.351,0,0,1,22.466,48.856ZM18.318,2.2c-4.718,0-6.679,2.335-8.949,5.04l-.016.019c-3.6,4.316-7.141,11.8-7.141,15.117A35.814,35.814,0,0,0,4.581,32.895c1.363,3.53,3.755,7.884,7.409,8.576l.356.067.246.261c.044.049,4.629,4.853,9.874,4.853a8.738,8.738,0,0,0,.968-.053c1.8-.475,10.316-10.987,11.729-13.1.41-.611.831-1.231,1.289-1.893,2.366-3.455,4.409-6.439,4.409-9.231a20.267,20.267,0,0,1,.186-2.336l0-.014c.5-4.586,1.131-10.292-10.889-14.969C25.215,3.136,21.341,2.2,18.318,2.2Z" transform="translate(343.956 435.661)" fill="#0253a2"/>
      <path id="Fill_691" data-name="Fill 691" d="M5.291,38.648c2.606,2,10.679,4.03,11.781,3.3s11.416-4.037,15.459-10.642S38.787,12.6,35.48,7.835,24.064-2.074,18.911.859s-13.62,5.87-16.2,12.112S-2.8,32.407,5.291,38.648" transform="translate(322.104 471.849)" fill="#fff"/>
      <path id="Fill_692" data-name="Fill 692" d="M17.3,44.306c-2.562,0-9.128-1.787-11.6-3.689C-2.729,34.123-.1,20.61,2.785,13.649,4.983,8.34,11.039,5.3,15.906,2.857l.481-.242c1.1-.555,2.148-1.08,3.072-1.606A7.943,7.943,0,0,1,23.448,0c5.17,0,11.194,4.223,14.031,8.306,3.588,5.177,1.341,17.732-2.912,24.675-3.484,5.677-11.187,8.98-14.476,10.39-.523.224-1.174.5-1.32.593A2.581,2.581,0,0,1,17.3,44.306ZM23.448,2.2a5.769,5.769,0,0,0-2.9.712c-1.092.621-2.3,1.232-3.648,1.908C12.126,7.219,6.71,9.932,4.824,14.486,2.19,20.876-.3,33.2,7.06,38.874c2.069,1.6,8.065,3.228,10.24,3.228a2.205,2.205,0,0,0,.335-.022,13.485,13.485,0,0,1,1.444-.671l.134-.058c3.1-1.323,10.344-4.42,13.472-9.513,3.813-6.222,5.98-17.959,2.979-22.28C33.208,6.022,27.84,2.2,23.448,2.2Z" transform="translate(321.013 470.749)" fill="#0253a2"/>
      <path id="Fill_693" data-name="Fill 693" d="M29.176,27.993s1.839-14.308-2.2-17.982S12.614-.987,8.563.111-1.006,1.573.469,7.814-3.217,20.29,3.775,25.425s23.2,5.5,25.4,2.568" transform="translate(305.211 504.517)" fill="#fff"/>
      <path id="Fill_694" data-name="Fill 694" d="M22.176,32.032c-5.378,0-13.309-1.211-17.962-4.624C-.809,23.719-.187,19.3.362,15.393l0-.023a16.625,16.625,0,0,0,.12-6.2C-1.049,2.646,4.077,1.426,7.82.535c.5-.12,1.038-.25,1.549-.387A4.809,4.809,0,0,1,10.574,0c5.15,0,14.675,7.075,18.23,10.3,4.471,4.043,2.643,18.317,2.563,18.923l-.038.289-.17.239C29.659,31.736,24.887,32.032,22.176,32.032ZM10.574,2.2a2.546,2.546,0,0,0-.624.074c-.489.132-1.031.267-1.609.4-4.176.994-6.686,1.816-5.7,5.991a18.4,18.4,0,0,1-.078,6.992l0,.021c-.56,3.934-1,7.041,2.972,9.96,3.957,2.9,11.213,4.2,16.649,4.2,4.034,0,6.316-.668,7.046-1.241.552-4.667.868-14.16-1.9-16.668C23.461,8.434,14.561,2.2,10.574,2.2Z" transform="translate(304.116 503.418)" fill="#0253a2"/>
      <path id="Fill_695" data-name="Fill 695" d="M3.1,32.778c3.306,2.2,14.35-2.568,18.4-6.969s8.839-5.136,6.628-8.438S18.191,6.366,13.41,2.328,3.469.132,1.264,3.063-.21,30.581,3.1,32.778" transform="translate(284.54 518.804)" fill="#fff"/>
      <path id="Fill_696" data-name="Fill 696" d="M6.559,35.534A5.314,5.314,0,0,1,3.594,34.8c-.711-.475-1.751-1.666-2.577-6.5C-.262,20.89-.571,6.237,1.488,3.5A9.071,9.071,0,0,1,8.629,0a10.213,10.213,0,0,1,6.6,2.589c4.9,4.13,12.65,11.865,14.933,15.275,2.014,3-.344,4.7-2.625,6.344l-.012.009a24.811,24.811,0,0,0-4.088,3.436C19.837,31.556,11.321,35.534,6.559,35.534ZM8.629,2.2A6.823,6.823,0,0,0,3.253,4.825C2,6.483,1.77,19.657,3.193,27.927c.76,4.415,1.6,5.016,1.631,5.04a3.3,3.3,0,0,0,1.736.371c4.194,0,12.03-3.685,15.244-7.17a26.926,26.926,0,0,1,4.423-3.739c2.727-1.962,2.811-2.276,2.092-3.347-2.1-3.143-9.731-10.772-14.512-14.813A7.983,7.983,0,0,0,8.629,2.2Z" transform="translate(283.431 517.704)" fill="#0253a2"/>
      <path id="Fill_697" data-name="Fill 697" d="M29.124,20.232c-1.1-6.241-7.208-12.3-9.2-15.043-5.89-8.067-8.832-5.87-13.62.735S-.32,15.831.045,20.6s7,8.445,12.883,8.809,17.306-2.939,16.2-9.173" transform="translate(254.834 526.949)" fill="#fff"/>
      <path id="Fill_698" data-name="Fill 698" d="M14.957,31.63c-.362,0-.719-.017-.99-.031C7.583,31.2.467,27.16.048,21.782c-.408-5.272,1.763-8.907,6.465-15.4C9.438,2.341,11.669,0,14.422,0c2.345,0,4.658,1.739,7.5,5.64.42.567,1.037,1.313,1.64,2.035l.009.01c2.719,3.272,6.828,8.217,7.749,13.459a5.95,5.95,0,0,1-1.444,4.97C26.856,29.7,19.936,31.63,14.957,31.63ZM14.422,2.2c-1.8,0-3.673,2.093-6.113,5.47C3.471,14.333,1.917,17.282,2.253,21.61c.32,4.176,6.5,7.459,11.849,7.794.274.014.562.022.856.022,4.45,0,10.772-1.807,13.226-4.727a3.728,3.728,0,0,0,.961-3.177c-.822-4.639-4.683-9.3-7.237-12.392l-.045-.055-.033-.039c-.681-.815-1.27-1.519-1.7-2.105C17.807,3.746,15.939,2.2,14.422,2.2Z" transform="translate(253.727 525.852)" fill="#0253a2"/>
      <path id="Fill_699" data-name="Fill 699" d="M0,9.9S10.485,1.1,15.459,0L0,9.9" transform="translate(184.038 24.587)" fill="#fff"/>
      <path id="Fill_700" data-name="Fill 700" d="M1.422,11.819,0,10.135C.439,9.769,10.761,1.144,15.936,0l.477,2.148C12.555,3,4.282,9.418,1.422,11.819" transform="translate(183.323 23.512)" fill="#0253a2"/>
      <path id="Fill_701" data-name="Fill 701" d="M0,5.217S15.459-1.385,23.189.265L0,5.217" transform="translate(216.059 8.363)" fill="#fff"/>
      <path id="Fill_702" data-name="Fill 702" d="M.871,7.325,0,5.3C.648,5.027,15.876-1.415,23.852.285L23.39,2.438C16.085.876,1.02,7.261.871,7.325" transform="translate(215.627 7.266)" fill="#0253a2"/>
      <path id="Fill_703" data-name="Fill 703" d="M0,0S13.248,1.1,18.773,5.5L0,0" transform="translate(265.758 9.178)" fill="#fff"/>
      <path id="Fill_704" data-name="Fill 704" d="M18.177,7.46C12.98,3.32.134,2.2,0,2.194L.186,0c.551.047,13.65,1.181,19.369,5.742L18.177,7.46" transform="translate(265.661 8.081)" fill="#0253a2"/>
      <path id="Fill_705" data-name="Fill 705" d="M8.281,0s1.11,1.1,2.212,5.5-.551,5.5-2.763,7.154-5.518,2.2-7.73,2.75L8.281,0" transform="translate(140.415 79.614)" fill="#fff"/>
      <path id="Fill_706" data-name="Fill 706" d="M.536,17.253,0,15.117c.357-.088.737-.177,1.147-.27,2.011-.464,4.52-1.042,6.188-2.292l.164-.122c2.055-1.533,3.09-2.3,2.189-5.884-.976-3.9-1.929-5-1.944-5.015L9.331,0c.223.22,1.378,1.541,2.5,6.015,1.251,5-.819,6.545-3.008,8.179l-.164.122c-2.04,1.529-4.8,2.165-7.015,2.676-.395.09-.767.176-1.11.261" transform="translate(140.147 78.835)" fill="#0253a2"/>
      <path id="Fill_707" data-name="Fill 707" d="M11.086.052S2.53-.5,1.7,1.976-.233,9.682.043,11.884L11.086.052" transform="translate(149.479 85.614)" fill="#fff"/>
      <path id="Fill_708" data-name="Fill 708" d="M.052,13.137C-.269,10.579.975,5.1,1.757,2.745,2.777-.3,10.053-.071,12.264.07l-.141,2.2c-3.969-.252-7.983.318-8.273,1.175C3.038,5.888,2,10.922,2.241,12.864l-2.189.273" transform="translate(148.376 84.498)" fill="#0253a2"/>
      <path id="Fill_709" data-name="Fill 709" d="M0,16.509s7.179-1.651,8.564-3.576,2.48-2.477,1.929-5.229S8.288,0,8.288,0L0,16.509" transform="translate(123.295 109.328)" fill="#fff"/>
      <path id="Fill_710" data-name="Fill 710" d="M.5,17.929,0,15.785c2.815-.649,7.127-2.052,7.908-3.144.283-.391.551-.73.8-1.04.946-1.177,1.3-1.618.953-3.332C9.122,5.613,7.5.745,7.484.7L9.576,0c.067.2,1.683,5.049,2.249,7.836a5.239,5.239,0,0,1-1.393,5.136c-.223.283-.469.591-.73.948C8.162,16.075,1.765,17.638.5,17.929" transform="translate(123.049 108.98)" fill="#0253a2"/>
      <path id="Fill_711" data-name="Fill 711" d="M8.515.045S1.061-.506.234,2.247A8.6,8.6,0,0,0,4.1,11.327L8.515.045" transform="translate(132.726 118.087)" fill="#fff"/>
      <path id="Fill_712" data-name="Fill 712" d="M4.647,13.39A9.655,9.655,0,0,1,.283,3.042C1.311-.383,8.311-.043,9.7.06l-.164,2.2c-3.1-.228-6.806.3-7.141,1.42a7.531,7.531,0,0,0,3.366,7.813l-1.117,1.9" transform="translate(131.62 116.975)" fill="#0253a2"/>
      <path id="Fill_713" data-name="Fill 713" d="M3.878,0s-1.936,3.851.551,6.877S9.4,7.976,6.083,12.1-1.1,16.78.289,21.459L3.878,0" transform="translate(120.526 147.299)" fill="#fff"/>
      <path id="Fill_714" data-name="Fill 714" d="M.331,22.262c-1.139-3.867.864-5.577,2.986-7.389a22.088,22.088,0,0,0,3.016-2.963,16.519,16.519,0,0,0,1.214-1.651l-.134-.068A7.863,7.863,0,0,1,4.68,8.067C1.775,4.528,3.905.183,3.994,0L5.968.984,4.985.492l.99.488c-.067.132-1.571,3.269.417,5.693A5.652,5.652,0,0,0,8.425,8.231c.588.3,1.258.643,1.43,1.455.2.919-.372,1.813-1.8,3.6a23.708,23.708,0,0,1-3.3,3.259c-2.026,1.728-3.038,2.6-2.3,5.1l-2.122.621" transform="translate(119.419 146.807)" fill="#0253a2"/>
      <path id="Fill_715" data-name="Fill 715" d="M2.212,0s3.038,1.1.551,6.054A25.436,25.436,0,0,0,0,14.583s3.589-1.376,5.525,4.4L2.212,0" transform="translate(115.841 146.196)" fill="#fff"/>
      <path id="Fill_716" data-name="Fill 716" d="M5.7,20.368c-.618-1.849-1.482-3.08-2.51-3.561a2.272,2.272,0,0,0-1.564-.162L0,17.27l.134-1.737A26.237,26.237,0,0,1,3.008,6.6c1-2,.946-3.129.73-3.726a1.444,1.444,0,0,0-.7-.812L3.82,0A3.59,3.59,0,0,1,5.771,2.011c.588,1.476.32,3.35-.789,5.569a27.793,27.793,0,0,0-2.435,6.808,4.6,4.6,0,0,1,1.594.428c1.6.755,2.837,2.388,3.664,4.855l-2.1.7" transform="translate(114.612 145.162)" fill="#0253a2"/>
      <path id="Fill_717" data-name="Fill 717" d="M4.363,13.2s-5.525-1.1-4.14-6.6A44.235,44.235,0,0,1,2.152,0L4.363,13.2" transform="translate(117.003 191.32)" fill="#fff"/>
      <path id="Fill_718" data-name="Fill 718" d="M5.253,14.777A7.328,7.328,0,0,1,.867,11.862,6.241,6.241,0,0,1,.256,6.828C1.626,1.365,2.207.123,2.274,0L4.248.986A47.905,47.905,0,0,0,2.4,7.362a4.131,4.131,0,0,0,.328,3.31,5.1,5.1,0,0,0,2.964,1.947l-.439,2.157" transform="translate(115.897 190.827)" fill="#0253a2"/>
      <path id="Fill_719" data-name="Fill 719" d="M11.043,8.019s.827-4.678-3.038-6.878S2.487.315,0,1.967L11.043,8.019" transform="translate(102.593 199.808)" fill="#fff"/>
      <path id="Fill_720" data-name="Fill 720" d="M12.741,9.308l-2.174-.383,1.087.191-1.087-.188c.022-.16.626-3.956-2.5-5.734C5,1.449,3.8,2.255,1.608,3.722l-.387.258L0,2.15.38,1.9C2.7.334,4.907-1.14,9.167,1.284c4.483,2.555,3.612,7.8,3.574,8.025" transform="translate(101.982 198.71)" fill="#0253a2"/>
      <path id="Fill_721" data-name="Fill 721" d="M8.281,8.8S2.2,9.9,1.1,5.777A26.4,26.4,0,0,1,0,0L8.281,8.8" transform="translate(108.669 187.192)" fill="#fff"/>
      <path id="Fill_722" data-name="Fill 722" d="M7.692,10.048c-2.517,0-5.7-.829-6.546-3.987A27.18,27.18,0,0,1,0,0H2.212A26.622,26.622,0,0,0,3.277,5.494C4.1,8.585,9.145,7.729,9.2,7.72l.387,2.166a10.689,10.689,0,0,1-1.891.162" transform="translate(107.56 187.192)" fill="#0253a2"/>
      <path id="Fill_723" data-name="Fill 723" d="M0,6.6A8.9,8.9,0,0,0,3.314,0L0,6.6" transform="translate(106.458 192.97)" fill="#fff"/>
      <path id="Fill_724" data-name="Fill 724" d="M1.333,7.484,0,5.725A7.861,7.861,0,0,0,2.882,0h2.2A9.992,9.992,0,0,1,1.333,7.484" transform="translate(105.788 192.97)" fill="#0253a2"/>
      <path id="Fill_725" data-name="Fill 725" d="M1.931,13.482S-2.761,7.7,2.482,0L1.931,13.482" transform="translate(115.295 232.864)" fill="#fff"/>
      <path id="Fill_726" data-name="Fill 726" d="M2.155,14.793C2.1,14.728-2.983,8.285,2.654,0L4.486,1.236c-4.7,6.9-.774,11.964-.611,12.176l-1.72,1.381" transform="translate(114.207 232.246)" fill="#0253a2"/>
      <path id="Fill_727" data-name="Fill 727" d="M0,12.381S9.666,7.979,6.9,0L0,12.381" transform="translate(104.246 230.663)" fill="#fff"/>
      <path id="Fill_728" data-name="Fill 728" d="M.916,13.741l-.916-2C.357,11.577,8.713,7.647,6.315.718L8.4,0C10.842,7.058,4.572,12.074.916,13.741" transform="translate(103.792 230.304)" fill="#0253a2"/>
      <path id="Fill_729" data-name="Fill 729" d="M4.14,1.374,0,0,4.14,1.374" transform="translate(111.149 235.066)" fill="#fff"/>
      <path id="Fill_730" data-name="Fill 730" d="M4.14,3.463,0,2.089.7,0,4.84,1.374l-.7,2.088" transform="translate(110.799 234.021)" fill="#0253a2"/>
      <path id="Fill_731" data-name="Fill 731" d="M8.564,8.527A31.6,31.6,0,0,0,0,0L8.564,8.527" transform="translate(314.065 25.962)" fill="#fff"/>
      <path id="Fill_732" data-name="Fill 732" d="M8.206,10.067A30.548,30.548,0,0,0,0,1.878L1.154,0a32.369,32.369,0,0,1,8.906,8.866l-1.854,1.2" transform="translate(313.492 25.023)" fill="#0253a2"/>
      <path id="Fill_733" data-name="Fill 733" d="M.007,11C-.268,10.178,7.461,6.327,4.7,0L.007,11" transform="translate(346.913 84.842)" fill="#fff"/>
      <path id="Fill_734" data-name="Fill 734" d="M2.112,11.805a.878.878,0,0,0,.06-.709l-2.1.695c-.3-.9.372-1.5,1.385-2.405C3.914,7.186,6.4,4.534,4.8.878L6.825,0C9.193,5.417,4.964,9.2,2.931,11.023a9.745,9.745,0,0,0-.819.782" transform="translate(345.799 84.402)" fill="#0253a2"/>
      <path id="Fill_735" data-name="Fill 735" d="M5.242.217s-7.73-2.2-4.416,7.428L5.242.217" transform="translate(352.997 84.9)" fill="#fff"/>
      <path id="Fill_736" data-name="Fill 736" d="M.88,9.1c-1.258-3.66-1.169-6.286.283-7.8C3.084-.728,6.5.213,6.644.254l-.6,2.117c-.633-.175-2.45-.438-3.284.442-.8.853-.73,2.831.209,5.57L.88,9.1" transform="translate(351.901 83.804)" fill="#0253a2"/>
      <path id="Fill_737" data-name="Fill 737" d="M0,6.881S6.9,8.256,9.39,6.33s4.691-4.4,4.967-6.33L0,6.881" transform="translate(358.79 112.078)" fill="#fff"/>
      <path id="Fill_738" data-name="Fill 738" d="M5,8.617a27.9,27.9,0,0,1-5-.5L.432,5.959c2.48.491,6.978.834,8.5-.341C11.49,3.632,13.278,1.427,13.479,0l2.189.312c-.432,3-4.23,6.148-5.384,7.043C9.018,8.335,6.955,8.617,5,8.617" transform="translate(358.574 111.921)" fill="#0253a2"/>
      <path id="Fill_739" data-name="Fill 739" d="M15.184.655s-6.9-1.925-10.768.827A10.748,10.748,0,0,0,0,8.083L15.184.655" transform="translate(365.693 125.731)" fill="#fff"/>
      <path id="Fill_740" data-name="Fill 740" d="M2.189,9.345,0,9.028A11.853,11.853,0,0,1,4.87,1.687C9.115-1.338,16.279.611,16.576.694l-.6,2.12c-.06-.018-6.441-1.746-9.822.663A9.583,9.583,0,0,0,2.189,9.345" transform="translate(364.599 124.631)" fill="#0253a2"/>
      <path id="Fill_741" data-name="Fill 741" d="M0,0S4.416,3.025,3.865,7.428L0,0" transform="translate(368.181 118.408)" fill="#fff"/>
      <path id="Fill_742" data-name="Fill 742" d="M5.585,8.472,3.4,8.2C3.857,4.5.037,1.84,0,1.815L1.251,0c.2.14,4.96,3.462,4.334,8.472" transform="translate(367.555 117.501)" fill="#0253a2"/>
      <path id="Fill_743" data-name="Fill 743" d="M13.248.32S6.9-2.153,0,6.651L13.248.32" transform="translate(375.635 163.484)" fill="#fff"/>
      <path id="Fill_744" data-name="Fill 744" d="M1.743,8.435,0,7.08C7.32-2.263,14.231.288,14.521.4l-.8,2.051.4-1.026-.387,1.029c-.238-.085-5.741-2-11.989,5.979" transform="translate(374.763 162.377)" fill="#0253a2"/>
      <path id="Fill_745" data-name="Fill 745" d="M10.492,0A21.255,21.255,0,0,1,0,9.08L10.492,0" transform="translate(375.635 147.57)" fill="#fff"/>
      <path id="Fill_746" data-name="Fill 746" d="M.834,10.592,0,8.553A20.231,20.231,0,0,0,9.919,0l1.973.984A22.154,22.154,0,0,1,.834,10.592" transform="translate(375.218 147.078)" fill="#0253a2"/>
      <path id="Fill_747" data-name="Fill 747" d="M3.038,8.529S4.14,1.926,0,0L3.038,8.529" transform="translate(380.602 155)" fill="#fff"/>
      <path id="Fill_748" data-name="Fill 748" d="M4.595,9.707,2.42,9.345l1.087.181L2.42,9.346c.007-.057.909-5.806-2.42-7.352L.938,0C5.786,2.254,4.647,9.4,4.595,9.707" transform="translate(380.133 154.003)" fill="#0253a2"/>
      <path id="Fill_749" data-name="Fill 749" d="M10.912,26.6a27.122,27.122,0,0,0-6.9-9.905c-5.25-4.95-5.8,2.752,1.1-7.979,1.206-1.879,2.13-3.361,2.83-4.528,3.284-5.5,1.586-4,1.586-4L10.912,26.6" transform="translate(382.67 187.006)" fill="#fff"/>
      <path id="Fill_750" data-name="Fill 750" d="M11.274,28.052a26.275,26.275,0,0,0-6.613-9.457c-1.891-1.786-2.9-1.574-2.9-1.573l-.983.332L0,15.452l.923-.463c.015-.007,1.512-.85,4.669-5.766C6.724,7.462,7.67,5.948,8.4,4.727a16.869,16.869,0,0,0,1.877-3.57.964.964,0,0,0,.447.876.951.951,0,0,0,.961.073L10.209.466A1.348,1.348,0,0,1,12.041.273c.879.721.566,1.712-1.743,5.579C9.554,7.095,8.6,8.628,7.454,10.41a36.647,36.647,0,0,1-3.634,4.9A9.5,9.5,0,0,1,6.181,17a27.886,27.886,0,0,1,7.186,10.356l-2.093.7,1.05-.349-1.05.35" transform="translate(381.257 185.903)" fill="#0253a2"/>
      <path id="Fill_751" data-name="Fill 751" d="M0,12.382S0,8.529,4.416,6.053C4.416,6.053.551,1.1.551,0L0,12.382" transform="translate(391.094 191.044)" fill="#fff"/>
      <path id="Fill_752" data-name="Fill 752" d="M2.2,12.469,0,12.46A8.645,8.645,0,0,1,3.91,5.847C1.676,2.9.551.966.551.079h2.2V0A30.244,30.244,0,0,0,6.389,5.455l.789,1.009L6.062,7.09C2.3,9.2,2.212,12.336,2.2,12.469" transform="translate(389.992 190.965)" fill="#0253a2"/>
      <path id="Fill_753" data-name="Fill 753" d="M8.832,14.858s1.385-6.6-2.2-10.18A20.463,20.463,0,0,0,0,0L8.832,14.858" transform="translate(379.775 240.293)" fill="#fff"/>
      <path id="Fill_754" data-name="Fill 754" d="M10.3,16.118,8.132,15.67c.015-.06,1.206-6.074-1.906-9.179A19.85,19.85,0,0,0,0,2.068L.752,0A21.488,21.488,0,0,1,7.789,4.934c3.962,3.95,2.569,10.889,2.51,11.183" transform="translate(379.395 239.258)" fill="#0253a2"/>
      <path id="Fill_755" data-name="Fill 755" d="M0,1.375s2.212,6.6,7.454,4.953A8.756,8.756,0,0,0,13.531,0L0,1.375" transform="translate(379.775 231.489)" fill="#fff"/>
      <path id="Fill_756" data-name="Fill 756" d="M6.866,7.893C3.075,7.893.76,4.19,0,1.921l2.093-.7c.082.229,1.944,5.556,6.077,4.255A7.6,7.6,0,0,0,13.493,0l2.174.388A9.814,9.814,0,0,1,8.832,7.576a6.5,6.5,0,0,1-1.966.318" transform="translate(378.725 231.291)" fill="#0253a2"/>
      <path id="Fill_757" data-name="Fill 757" d="M0,10.455S6.9,7.981,2.487,0L0,10.455" transform="translate(388.331 236.44)" fill="#fff"/>
      <path id="Fill_758" data-name="Fill 758" d="M.752,12.023,0,9.953a5.477,5.477,0,0,0,2.956-2.9c.6-1.62.246-3.635-1.057-5.99L3.835,0C5.466,2.955,5.868,5.6,5.012,7.85a7.659,7.659,0,0,1-4.26,4.172" transform="translate(387.952 235.909)" fill="#0253a2"/>
      <path id="Fill_759" data-name="Fill 759" d="M3.314,0s4.967,4.954,4.14,11.007S2.763,22.012,0,22.837L3.314,0" transform="translate(111.7 319.531)" fill="#fff"/>
      <path id="Fill_760" data-name="Fill 760" d="M.633,24.668,0,22.56c2.256-.673,5.883-5.155,6.672-10.924C7.417,6.212,2.889,1.6,2.845,1.554L4.408,0c.223.218,5.347,5.414,4.453,11.933C7.983,18.344,3.895,23.693.633,24.668" transform="translate(111.388 318.753)" fill="#0253a2"/>
      <path id="Fill_761" data-name="Fill 761" d="M6.721,0s-14.357,7.429-1.1,17.061L6.721,0" transform="translate(119.337 324.758)" fill="#fff"/>
      <path id="Fill_762" data-name="Fill 762" d="M6.068,18.927C1.8,15.824-.232,12.545.021,9.181.446,3.618,7.036.145,7.319,0l1.02,1.953c-.06.03-5.794,3.061-6.114,7.4-.194,2.551,1.541,5.174,5.146,7.8l-1.3,1.778" transform="translate(118.232 323.782)" fill="#0253a2"/>
      <path id="Fill_763" data-name="Fill 763" d="M0,23.387c.827.276,6.62-3.576,7.447-5.776S8.005,2.2,8.281,0L0,23.387" transform="translate(108.945 363.553)" fill="#fff"/>
      <path id="Fill_764" data-name="Fill 764" d="M.35,24.617a1.068,1.068,0,0,1-.35-.05l.693-2.088a.668.668,0,0,0-.305-.039c1.087-.189,5.771-3.467,6.382-5.08.462-1.235.544-7.774.6-11.68C7.4,2.978,7.424.845,7.536,0L9.725.271C9.636,1,9.606,3.284,9.576,5.707c-.082,6.342-.186,10.944-.745,12.426C8.057,20.2,2.487,24.617.35,24.617" transform="translate(108.595 363.417)" fill="#0253a2"/>
      <path id="Fill_765" data-name="Fill 765" d="M0,5.78S6.9,0,10.768,0L0,5.78" transform="translate(110.323 368.506)" fill="#fff"/>
      <path id="Fill_766" data-name="Fill 766" d="M1.415,7.723,0,6.037C.737,5.42,7.328,0,11.475,0V2.2C8.638,2.2,3.254,6.187,1.415,7.723" transform="translate(109.615 367.406)" fill="#0253a2"/>
      <path id="Fill_767" data-name="Fill 767" d="M4.423,4.954C4.7,3.85,0,0,0,0L4.423,4.954" transform="translate(116.392 381.163)" fill="#fff"/>
      <path id="Fill_768" data-name="Fill 768" d="M6.2,6.07,4.051,5.537a.425.425,0,0,0-.007.272C3.865,5.243,1.981,3.323,0,1.7L1.407,0C6.635,4.292,6.315,5.584,6.2,6.07" transform="translate(115.692 380.314)" fill="#0253a2"/>
      <path id="Fill_769" data-name="Fill 769" d="M.834,25.585S6.9,18.432,5.525,11.83A31.881,31.881,0,0,0,0,0L.834,25.585" transform="translate(119.981 405.652)" fill="#fff"/>
      <path id="Fill_770" data-name="Fill 770" d="M2.539,26.979.849,25.558c.06-.068,5.712-6.831,4.461-12.821A30.977,30.977,0,0,0,0,1.365L1.735,0A32.851,32.851,0,0,1,7.469,12.288C8.944,19.334,2.8,26.67,2.539,26.979" transform="translate(119.117 404.969)" fill="#0253a2"/>
      <path id="Fill_771" data-name="Fill 771" d="M10.768,2.476S1.653,4.127,0,0L10.768,2.476" transform="translate(125.782 424.36)" fill="#fff"/>
      <path id="Fill_772" data-name="Fill 772" d="M7.849,4.328c-3,0-6.687-.629-7.849-3.51L2.055,0C3.128,2.681,9.465,2.186,11.6,1.8L12,3.967a24.9,24.9,0,0,1-4.148.361" transform="translate(124.754 423.951)" fill="#0253a2"/>
      <path id="Fill_773" data-name="Fill 773" d="M0,5.5S5.25,2.476,5.525,0L0,5.5" transform="translate(118.328 413.904)" fill="#fff"/>
      <path id="Fill_774" data-name="Fill 774" d="M1.1,6.578,0,4.673C1.921,3.562,4.833,1.308,4.974,0l2.2.243C6.851,3.126,2.063,6.026,1.1,6.578" transform="translate(117.777 413.782)" fill="#0253a2"/>
      <path id="Fill_775" data-name="Fill 775" d="M8.281.824S.827,1.652,0,0L8.281.824" transform="translate(123.853 412.804)" fill="#fff"/>
      <path id="Fill_776" data-name="Fill 776" d="M5.436,2.721C2.9,2.721.64,2.328,0,1.051L1.973.067,1.929,0c.559.518,3.924.654,7.216.289L9.39,2.476a36.722,36.722,0,0,1-3.954.245" transform="translate(122.863 412.245)" fill="#0253a2"/>
      <path id="Fill_777" data-name="Fill 777" d="M10.768,12.106S14.908,3.576,0,0L10.768,12.106" transform="translate(135.723 457.926)" fill="#fff"/>
      <path id="Fill_778" data-name="Fill 778" d="M12.019,13.656l-1.988-.96,1,.479-1-.473a5.722,5.722,0,0,0-.149-4.646C8.616,5.434,5.2,3.388,0,2.14L.514,0C6.494,1.435,10.321,3.841,11.9,7.151a7.949,7.949,0,0,1,.119,6.5" transform="translate(135.463 456.856)" fill="#0253a2"/>
      <path id="Fill_779" data-name="Fill 779" d="M7.037,16.782s-3.314-3.576-5.794-5.776S.41,3.576,2.621,0L7.037,16.782" transform="translate(145.523 451.598)" fill="#fff"/>
      <path id="Fill_780" data-name="Fill 780" d="M7.327,18.106c-.03-.036-3.306-3.562-5.719-5.7C-1.289,9.839.111,4.326,2.785,0L4.669,1.155C2.531,4.6,1.251,9.144,3.075,10.76c2.495,2.211,5.741,5.7,5.875,5.852L7.327,18.106" transform="translate(144.422 451.021)" fill="#0253a2"/>
      <path id="Fill_781" data-name="Fill 781" d="M0,0S4.416,4.952,8.556,4.676L0,0" transform="translate(137.101 451.598)" fill="#fff"/>
      <path id="Fill_782" data-name="Fill 782" d="M9.055,6.519C4.565,6.519.194,1.675,0,1.463L1.653,0C2.785,1.265,6.345,4.5,9.308,4.31l.149,2.2q-.2.013-.4.013" transform="translate(136.275 450.867)" fill="#0253a2"/>
      <path id="Fill_783" data-name="Fill 783" d="M.25,15.139S-1.686,5.507,5.217,0L.25,15.139" transform="translate(161.701 485.71)" fill="#fff"/>
      <path id="Fill_784" data-name="Fill 784" d="M.278,16.208C.2,15.785-1.7,5.848,5.64,0L7.025,1.714C.74,6.724,2.43,15.689,2.445,15.778l-2.167.43" transform="translate(160.586 484.857)" fill="#0253a2"/>
      <path id="Fill_785" data-name="Fill 785" d="M9.383,2.753S.827,2.2,0,0L9.383,2.753" transform="translate(162.502 492.865)" fill="#fff"/>
      <path id="Fill_786" data-name="Fill 786" d="M10.351,4.238C7.566,4.059.976,3.362,0,.772L2.07,0c.335.809,4.356,1.781,8.422,2.041l-.141,2.2" transform="translate(161.467 492.479)" fill="#0253a2"/>
      <path id="Fill_787" data-name="Fill 787" d="M0,15.963s8.564,1.922,11.595-4.126A13.866,13.866,0,0,0,11.595,0L0,15.963" transform="translate(328.422 482.408)" fill="#fff"/>
      <path id="Fill_788" data-name="Fill 788" d="M3.329,17.871A16.58,16.58,0,0,1,0,17.544l.484-2.152L.238,16.468l.246-1.076c.074.022,7.752,1.655,10.366-3.54a12.908,12.908,0,0,0,.007-10.835L12.816,0a14.859,14.859,0,0,1,.007,12.831c-2.115,4.215-6.449,5.039-9.495,5.039" transform="translate(328.184 481.903)" fill="#0253a2"/>
      <path id="Fill_789" data-name="Fill 789" d="M11.863,0A16.691,16.691,0,0,0,0,10.731L11.863,0" transform="translate(336.435 490.119)" fill="#fff"/>
      <path id="Fill_790" data-name="Fill 790" d="M2.063,12.215,0,11.429A17.713,17.713,0,0,1,12.719,0l.365,2.174L12.9,1.091l.186,1.084C12.771,2.226,5.369,3.6,2.063,12.215" transform="translate(335.4 489.028)" fill="#0253a2"/>
      <path id="Fill_791" data-name="Fill 791" d="M0,18.437S11.043,15.96,4.416,0L0,18.437" transform="translate(356.586 447.195)" fill="#fff"/>
      <path id="Fill_792" data-name="Fill 792" d="M.491,19.931.007,17.784l.246,1.074L0,17.785a7.66,7.66,0,0,0,4.7-3.852C6.307,10.8,5.957,6.4,3.649.842L5.689,0c2.577,6.206,2.9,11.246.953,14.981A9.9,9.9,0,0,1,.491,19.931" transform="translate(356.333 446.774)" fill="#0253a2"/>
      <path id="Fill_793" data-name="Fill 793" d="M10.215,0S-6.071,5.228,2.485,18.987L10.215,0" transform="translate(363.484 448.845)" fill="#fff"/>
      <path id="Fill_794" data-name="Fill 794" d="M2.654,20.614C.018,16.377-.659,12.44.644,8.911,2.952,2.641,10.66.105,10.987,0l.678,2.1c-.074.022-7.015,2.324-8.951,7.584-1.05,2.858-.439,6.148,1.817,9.776L2.654,20.614" transform="translate(362.376 447.797)" fill="#0253a2"/>
      <path id="Fill_795" data-name="Fill 795" d="M6.345,10.457S8.281,1.377,0,0L6.345,10.457" transform="translate(374.808 418.306)" fill="#fff"/>
      <path id="Fill_796" data-name="Fill 796" d="M7.618,11.771l-2.167-.456,1.08.228-1.08-.226c.007-.039.789-3.916-1.057-6.61A6.31,6.31,0,0,0,0,2.171L.365,0A8.426,8.426,0,0,1,6.225,3.477c2.376,3.481,1.43,8.1,1.393,8.294" transform="translate(374.622 417.221)" fill="#0253a2"/>
      <path id="Fill_797" data-name="Fill 797" d="M0,9.355S9.941,13.207,12.7,0L0,9.355" transform="translate(373.974 403.449)" fill="#fff"/>
      <path id="Fill_798" data-name="Fill 798" d="M3.589,11.2A10.669,10.669,0,0,1,0,10.606L.8,8.555.395,9.58.8,8.553a8.355,8.355,0,0,0,6.337-.414C9.517,6.838,11.163,4.1,12.019,0l2.16.449c-1,4.775-3.023,8.017-6.017,9.636A9.528,9.528,0,0,1,3.589,11.2" transform="translate(373.579 403.224)" fill="#0253a2"/>
      <path id="Fill_799" data-name="Fill 799" d="M0,11.832S7.73,11.556,3.038,0L0,11.832" transform="translate(380.602 411.152)" fill="#fff"/>
      <path id="Fill_800" data-name="Fill 800" d="M.082,13.344l-.074-2.2.037,1.1L0,11.145A3.785,3.785,0,0,0,2.815,9.51c1.11-1.733.849-4.736-.76-8.684L4.1,0c1.921,4.728,2.107,8.338.551,10.73A6.039,6.039,0,0,1,.082,13.344" transform="translate(380.557 410.74)" fill="#0253a2"/>
      <path id="Fill_801" data-name="Fill 801" d="M0,23.111c.827.274,8.832-2.753,8-10.731S3.582,0,3.582,0L0,23.111" transform="translate(381.711 357.778)" fill="#fff"/>
      <path id="Fill_802" data-name="Fill 802" d="M.469,24.916A1.469,1.469,0,0,1,0,24.85l.693-2.088a.61.61,0,0,0-.216-.039,9.376,9.376,0,0,0,4.788-3.032,8.248,8.248,0,0,0,1.988-6.5c-.782-7.565-4.14-11.757-4.178-11.8L4.788,0C4.945.19,8.6,4.75,9.45,12.961a10.651,10.651,0,0,1-4.1,9.691C3.865,23.841,1.713,24.916.469,24.916" transform="translate(381.361 357.083)" fill="#0253a2"/>
      <path id="Fill_803" data-name="Fill 803" d="M0,8.255S12.972,2.752,14.074,0L0,8.255" transform="translate(382.262 361.352)" fill="#fff"/>
      <path id="Fill_804" data-name="Fill 804" d="M.864,9.677,0,7.652C6.032,5.091,12.905,1.437,13.486,0l2.048.819C14.35,3.766,4.006,8.345.864,9.677" transform="translate(381.83 360.943)" fill="#0253a2"/>
      <path id="Fill_805" data-name="Fill 805" d="M7.179,5.778S1.661.55,0,0L7.179,5.778" transform="translate(388.607 375.66)" fill="#fff"/>
      <path id="Fill_806" data-name="Fill 806" d="M6.769,7.62C4.14,5.133.894,2.384,0,2.088L.7,0C2.5.6,7.342,5.123,8.3,6.025L6.769,7.62" transform="translate(388.257 374.615)" fill="#0253a2"/>
      <path id="Fill_807" data-name="Fill 807" d="M9.107,10.455S12.7,1.924,0,0L9.107,10.455" transform="translate(378.948 327.788)" fill="#fff"/>
      <path id="Fill_808" data-name="Fill 808" d="M10.291,11.969l-2.04-.847a6.088,6.088,0,0,0-.3-4.877C6.769,4.166,4.1,2.8,0,2.176L.328,0C5.146.73,8.363,2.476,9.889,5.189a8.255,8.255,0,0,1,.4,6.78" transform="translate(378.785 326.7)" fill="#0253a2"/>
      <path id="Fill_809" data-name="Fill 809" d="M.539,0S-3.326,7.429,9.646,13.206L.539,0" transform="translate(382.55 316.507)" fill="#fff"/>
      <path id="Fill_810" data-name="Fill 810" d="M10.3,14.717C5,12.357,1.7,9.412.489,5.965A7.93,7.93,0,0,1,.66,0L2.626,1.013,1.643.507l.983.5A5.719,5.719,0,0,0,2.6,5.3c1,2.789,3.977,5.352,8.608,7.412l-.9,2.01" transform="translate(381.446 316)" fill="#0253a2"/>
    </g>
    <g id="Group_4349" data-name="Group 4349">
      <line id="Line_41" data-name="Line 41" y2="642" transform="translate(642.5 734.5)" fill="none" stroke="rgba(112,112,112,0.2)" stroke-width="2"/>
      <line id="Line_42" data-name="Line 42" x2="477" transform="translate(406.5 1055.5)" fill="none" stroke="rgba(112,112,112,0.2)" stroke-width="2"/>
    </g>
    <g id="Group_4354" data-name="Group 4354">
      <g id="Group_4350" data-name="Group 4350">
        <text id="_8" data-name="8" transform="translate(532 1013)" fill="#333" font-size="13" font-family="Poppins-Regular, Poppins" letter-spacing="0.025em"><tspan x="0" y="0">8</tspan></text>
        <text id="_7" data-name="7" transform="translate(534 976)" fill="#333" font-size="13" font-family="Poppins-Regular, Poppins" letter-spacing="0.025em"><tspan x="0" y="0">7</tspan></text>
        <text id="_6" data-name="6" transform="translate(537 940)" fill="#333" font-size="13" font-family="Poppins-Regular, Poppins" letter-spacing="0.025em"><tspan x="0" y="0">6</tspan></text>
        <text id="_5" data-name="5" transform="translate(548 908)" fill="#333" font-size="13" font-family="Poppins-Regular, Poppins" letter-spacing="0.025em"><tspan x="0" y="0">5</tspan></text>
        <text id="_4" data-name="4" transform="translate(562 877)" fill="#333" font-size="13" font-family="Poppins-Regular, Poppins" letter-spacing="0.025em"><tspan x="0" y="0">4</tspan></text>
        <text id="_3" data-name="3" transform="translate(581 852)" fill="#333" font-size="13" font-family="Poppins-Regular, Poppins" letter-spacing="0.025em"><tspan x="0" y="0">3</tspan></text>
        <text id="_2" data-name="2" transform="translate(601 837)" fill="#333" font-size="13" font-family="Poppins-Regular, Poppins" letter-spacing="0.025em"><tspan x="0" y="0">2</tspan></text>
        <text id="_1" data-name="1" transform="translate(627 828)" fill="#333" font-size="13" font-family="Poppins-Regular, Poppins" letter-spacing="0.025em"><tspan x="0" y="0">1</tspan></text>
      </g>
      <g id="Group_4351" data-name="Group 4351">
        <text id="_8-2" data-name="8" transform="translate(743 1013)" fill="#333" font-size="13" font-family="Poppins-Regular, Poppins" letter-spacing="0.025em"><tspan x="0" y="0">8</tspan></text>
        <text id="_7-2" data-name="7" transform="translate(742 976)" fill="#333" font-size="13" font-family="Poppins-Regular, Poppins" letter-spacing="0.025em"><tspan x="0" y="0">7</tspan></text>
        <text id="_6-2" data-name="6" transform="translate(739 940)" fill="#333" font-size="13" font-family="Poppins-Regular, Poppins" letter-spacing="0.025em"><tspan x="0" y="0">6</tspan></text>
        <text id="_5-2" data-name="5" transform="translate(726 904)" fill="#333" font-size="13" font-family="Poppins-Regular, Poppins" letter-spacing="0.025em"><tspan x="0" y="0">5</tspan></text>
        <text id="_4-2" data-name="4" transform="translate(710 876)" fill="#333" font-size="13" font-family="Poppins-Regular, Poppins" letter-spacing="0.025em"><tspan x="0" y="0">4</tspan></text>
        <text id="_3-2" data-name="3" transform="translate(699 852)" fill="#333" font-size="13" font-family="Poppins-Regular, Poppins" letter-spacing="0.025em"><tspan x="0" y="0">3</tspan></text>
        <text id="_2-2" data-name="2" transform="translate(679 837)" fill="#333" font-size="13" font-family="Poppins-Regular, Poppins" letter-spacing="0.025em"><tspan x="0" y="0">2</tspan></text>
        <text id="_1-2" data-name="1" transform="translate(655 828)" fill="#333" font-size="13" font-family="Poppins-Regular, Poppins" letter-spacing="0.025em"><tspan x="0" y="0">1</tspan></text>
      </g>
      <g id="Group_4352" data-name="Group 4352">
        <text id="_8-3" data-name="8" transform="translate(746 1107)" fill="#333" font-size="13" font-family="Poppins-Regular, Poppins" letter-spacing="0.025em"><tspan x="0" y="0">8</tspan></text>
        <text id="_7-3" data-name="7" transform="translate(750 1148)" fill="#333" font-size="13" font-family="Poppins-Regular, Poppins" letter-spacing="0.025em"><tspan x="0" y="0">7</tspan></text>
        <text id="_6-3" data-name="6" transform="translate(740 1186)" fill="#333" font-size="13" font-family="Poppins-Regular, Poppins" letter-spacing="0.025em"><tspan x="0" y="0">6</tspan></text>
        <text id="_5-3" data-name="5" transform="translate(729 1215)" fill="#333" font-size="13" font-family="Poppins-Regular, Poppins" letter-spacing="0.025em"><tspan x="0" y="0">5</tspan></text>
        <text id="_4-3" data-name="4" transform="translate(711 1243)" fill="#333" font-size="13" font-family="Poppins-Regular, Poppins" letter-spacing="0.025em"><tspan x="0" y="0">4</tspan></text>
        <text id="_3-3" data-name="3" transform="translate(691 1271)" fill="#333" font-size="13" font-family="Poppins-Regular, Poppins" letter-spacing="0.025em"><tspan x="0" y="0">3</tspan></text>
        <text id="_2-3" data-name="2" transform="translate(670 1283)" fill="#333" font-size="13" font-family="Poppins-Regular, Poppins" letter-spacing="0.025em"><tspan x="0" y="0">2</tspan></text>
        <text id="_1-3" data-name="1" transform="translate(651 1291)" fill="#333" font-size="13" font-family="Poppins-Regular, Poppins" letter-spacing="0.025em"><tspan x="0" y="0">1</tspan></text>
      </g>
      <g id="Group_4353" data-name="Group 4353">
        <text id="_8-4" data-name="8" transform="translate(534 1107)" fill="#333" font-size="13" font-family="Poppins-Regular, Poppins" letter-spacing="0.025em"><tspan x="0" y="0">8</tspan></text>
        <text id="_7-4" data-name="7" transform="translate(534 1148)" fill="#333" font-size="13" font-family="Poppins-Regular, Poppins" letter-spacing="0.025em"><tspan x="0" y="0">7</tspan></text>
        <text id="_6-4" data-name="6" transform="translate(542 1186)" fill="#333" font-size="13" font-family="Poppins-Regular, Poppins" letter-spacing="0.025em"><tspan x="0" y="0">6</tspan></text>
        <text id="_5-4" data-name="5" transform="translate(554 1215)" fill="#333" font-size="13" font-family="Poppins-Regular, Poppins" letter-spacing="0.025em"><tspan x="0" y="0">5</tspan></text>
        <text id="_4-4" data-name="4" transform="translate(570 1243)" fill="#333" font-size="13" font-family="Poppins-Regular, Poppins" letter-spacing="0.025em"><tspan x="0" y="0">4</tspan></text>
        <text id="_3-4" data-name="3" transform="translate(588 1271)" fill="#333" font-size="13" font-family="Poppins-Regular, Poppins" letter-spacing="0.025em"><tspan x="0" y="0">3</tspan></text>
        <text id="_2-4" data-name="2" transform="translate(610 1283)" fill="#333" font-size="13" font-family="Poppins-Regular, Poppins" letter-spacing="0.025em"><tspan x="0" y="0">2</tspan></text>
        <text id="_1-4" data-name="1" transform="translate(632 1291)" fill="#333" font-size="13" font-family="Poppins-Regular, Poppins" letter-spacing="0.025em"><tspan x="0" y="0">1</tspan></text>
      </g>
    </g>
  </g>
</svg>
