<svg xmlns="http://www.w3.org/2000/svg" width="18" height="18" viewBox="0 0 18 18">
  <g id="Group_11035" data-name="Group 11035" transform="translate(0.053 0.145)">
    <path id="bx-eraser" d="M2.433,12.293l3.173,3.268a.724.724,0,0,0,.522.223h8.857V14.264H9.849l5.33-5.491a1.554,1.554,0,0,0,0-2.15L11.525,2.86a1.448,1.448,0,0,0-2.087,0L5.933,6.47,2.424,10.152A1.559,1.559,0,0,0,2.433,12.293Zm8.049-8.358L14.135,7.7,12.227,9.664,8.573,5.9ZM6.982,7.54l.548-.564,3.653,3.763L7.82,14.2a.774.774,0,0,0-.051.06H6.433L3.478,11.218Z" transform="translate(0.106 -0.188)" fill="#ff5757"/>
    <rect id="Rectangle_132" data-name="Rectangle 132" width="18" height="18" transform="translate(-0.053 -0.145)" fill="none"/>
  </g>
</svg>
