<svg width="22" height="22" viewBox="0 0 22 22" fill="none" xmlns="http://www.w3.org/2000/svg">
<mask id="mask0_940_4607" style="mask-type:luminance" maskUnits="userSpaceOnUse" x="1" y="2" width="20" height="18">
<path fill-rule="evenodd" clip-rule="evenodd" d="M1.83301 2.75H20.1789V19.42H1.83301V2.75Z" fill="white"/>
</mask>
<g mask="url(#mask0_940_4607)">
<path fill-rule="evenodd" clip-rule="evenodd" d="M11.0116 4.125C10.5753 4.125 10.1866 4.3505 9.96844 4.72908L3.37027 16.247C3.15577 16.6228 3.1576 17.0711 3.37485 17.446C3.5921 17.8209 3.98077 18.0455 4.41435 18.0455H17.5988C18.0314 18.0455 18.4201 17.8209 18.6374 17.446C18.8555 17.0711 18.8574 16.6228 18.641 16.247L12.0548 4.72908C11.8375 4.3505 11.4489 4.125 11.0116 4.125M17.5988 19.4205H4.41435C3.48485 19.4205 2.6516 18.9402 2.18502 18.1353C1.71844 17.3314 1.71569 16.3698 2.17677 15.5641L8.77677 4.04525C9.2406 3.234 10.0757 2.75 11.0116 2.75H11.0125C11.9475 2.75 12.7844 3.23492 13.2483 4.04708L19.8354 15.5641C20.2965 16.3698 20.2938 17.3314 19.8272 18.1353C19.3606 18.9402 18.5274 19.4205 17.5988 19.4205" fill="#FF2E2E"/>
</g>
<path fill-rule="evenodd" clip-rule="evenodd" d="M11.0029 12.9842C10.6234 12.9842 10.3154 12.6762 10.3154 12.2967V9.45508C10.3154 9.07558 10.6234 8.76758 11.0029 8.76758C11.3824 8.76758 11.6904 9.07558 11.6904 9.45508V12.2967C11.6904 12.6762 11.3824 12.9842 11.0029 12.9842" fill="#FF2E2E"/>
<path fill-rule="evenodd" clip-rule="evenodd" d="M11.0052 16.0404C10.4983 16.0404 10.084 15.6306 10.084 15.1237C10.084 14.6168 10.4901 14.207 10.9961 14.207H11.0052C11.5122 14.207 11.9219 14.6168 11.9219 15.1237C11.9219 15.6306 11.5122 16.0404 11.0052 16.0404" fill="#FF2E2E"/>
</svg>
