<svg xmlns="http://www.w3.org/2000/svg" width="422.429" height="330.387" viewBox="0 0 422.429 330.387">
  <g id="Group_4143" data-name="Group 4143" transform="translate(-63.427 -33.738)">
    <g id="Group_3805" data-name="Group 3805" transform="translate(430.725 136.687)">
      <g id="Group_3784" data-name="Group 3784" transform="translate(34.133 38.369)">
        <g id="Group_3777" data-name="Group 3777" transform="translate(2.11 2.165)">
          <g id="Group_3776" data-name="Group 3776">
            <path id="Path_201030" data-name="Path 201030" d="M502.808,200.116A8.925,8.925,0,1,1,503.3,187.5,8.927,8.927,0,0,1,502.808,200.116Z" transform="translate(-487.823 -184.637)" fill="#00c1e8"/>
          </g>
        </g>
        <g id="Group_3779" data-name="Group 3779" transform="translate(2.367 2.393)">
          <g id="Group_3778" data-name="Group 3778">
            <path id="Path_201031" data-name="Path 201031" d="M492.214,188.655c3.377-3.123,8.858-2.769,12.683.654-.222-.293-.459-.579-.714-.855-3.825-4.138-9.861-4.78-13.48-1.434s-3.453,9.414.373,13.551c.255.277.522.535.8.78C488.759,197.269,488.837,191.777,492.214,188.655Z" transform="translate(-488.094 -184.877)" fill="#fff"/>
          </g>
        </g>
        <g id="Group_3781" data-name="Group 3781" transform="translate(4.602)">
          <g id="Group_3780" data-name="Group 3780">
            <path id="Path_201032" data-name="Path 201032" d="M501.242,200.5a1.578,1.578,0,0,1,.088-2.23,7.349,7.349,0,0,0-8.543-11.828,1.577,1.577,0,1,1-1.529-2.759,10.5,10.5,0,0,1,12.214,16.9A1.578,1.578,0,0,1,501.242,200.5Z" transform="translate(-490.444 -182.36)" fill="#1e0f41"/>
          </g>
        </g>
        <g id="Group_3783" data-name="Group 3783" transform="translate(0 6.288)">
          <g id="Group_3782" data-name="Group 3782">
            <path id="Path_201033" data-name="Path 201033" d="M488.392,200.326a10.541,10.541,0,0,1-2.321-10.241,1.578,1.578,0,1,1,3.014.932,7.349,7.349,0,0,0,12.006,7.574,1.578,1.578,0,0,1,2.142,2.317A10.516,10.516,0,0,1,488.392,200.326Z" transform="translate(-485.604 -188.973)" fill="#1e0f41"/>
          </g>
        </g>
      </g>
      <g id="Group_3794" data-name="Group 3794" transform="translate(23.484)">
        <g id="Group_3786" data-name="Group 3786" transform="translate(1.931 2.115)">
          <g id="Group_3785" data-name="Group 3785">
            <path id="Path_201034" data-name="Path 201034" d="M492.982,161.325a9.855,9.855,0,1,1,.546-13.927A9.856,9.856,0,0,1,492.982,161.325Z" transform="translate(-476.436 -144.233)" fill="#df445f"/>
          </g>
        </g>
        <g id="Group_3788" data-name="Group 3788" transform="translate(2.216 2.367)">
          <g id="Group_3787" data-name="Group 3787">
            <path id="Path_201035" data-name="Path 201035" d="M481.285,148.669c3.729-3.448,9.781-3.058,14.005.722-.246-.322-.507-.639-.789-.944-4.224-4.569-10.888-5.277-14.885-1.582s-3.812,10.394.412,14.963c.281.305.576.59.879.861C477.469,158.18,477.556,152.117,481.285,148.669Z" transform="translate(-476.735 -144.497)" fill="#fff"/>
          </g>
        </g>
        <g id="Group_3793" data-name="Group 3793">
          <g id="Group_3790" data-name="Group 3790" transform="translate(0.001 9.983)">
            <g id="Group_3789" data-name="Group 3789">
              <path id="Path_201036" data-name="Path 201036" d="M477.442,161.71a11.386,11.386,0,0,1-3.036-7.606,1.578,1.578,0,0,1,3.155-.04,8.279,8.279,0,0,0,16.341,1.767,1.578,1.578,0,0,1,3.075.712,11.43,11.43,0,0,1-19.535,5.167Z" transform="translate(-474.406 -152.507)" fill="#1e0f41"/>
            </g>
          </g>
          <g id="Group_3792" data-name="Group 3792">
            <g id="Group_3791" data-name="Group 3791">
              <path id="Path_201037" data-name="Path 201037" d="M474.824,154.639a1.569,1.569,0,0,1-.418-1.051,11.434,11.434,0,0,1,21.257-6,1.577,1.577,0,1,1-2.71,1.615,8.279,8.279,0,0,0-15.392,4.34,1.578,1.578,0,0,1-2.737,1.091Z" transform="translate(-474.405 -142.008)" fill="#1e0f41"/>
            </g>
          </g>
        </g>
      </g>
      <g id="Group_3804" data-name="Group 3804" transform="translate(0 23.253)">
        <g id="Group_3796" data-name="Group 3796" transform="translate(1.793 1.827)">
          <g id="Group_3795" data-name="Group 3795">
            <path id="Path_201038" data-name="Path 201038" d="M460.781,177.876a5.474,5.474,0,1,1,.3-7.734A5.473,5.473,0,0,1,460.781,177.876Z" transform="translate(-451.593 -168.384)" fill="#f5a25c"/>
          </g>
        </g>
        <g id="Group_3798" data-name="Group 3798" transform="translate(1.951 1.967)">
          <g id="Group_3797" data-name="Group 3797">
            <path id="Path_201039" data-name="Path 201039" d="M454.821,171.427a5.1,5.1,0,0,1,7.243-.179c-.137-.179-.281-.355-.438-.524-2.346-2.538-6.047-2.931-8.267-.88s-2.118,5.773.229,8.311c.156.169.319.328.488.478A5.105,5.105,0,0,1,454.821,171.427Z" transform="translate(-451.758 -168.531)" fill="#fff"/>
          </g>
        </g>
        <g id="Group_3803" data-name="Group 3803">
          <g id="Group_3800" data-name="Group 3800" transform="translate(0 2.027)">
            <g id="Group_3799" data-name="Group 3799">
              <path id="Path_201040" data-name="Path 201040" d="M451.571,178.4a7.054,7.054,0,0,1-.288-9.219,1.577,1.577,0,0,1,2.45,1.987,3.9,3.9,0,0,0,4.46,6.078,1.578,1.578,0,0,1,1.156,2.936,7.068,7.068,0,0,1-7.031-1.083A7.154,7.154,0,0,1,451.571,178.4Z" transform="translate(-449.707 -168.594)" fill="#1e0f41"/>
            </g>
          </g>
          <g id="Group_3802" data-name="Group 3802" transform="translate(1.223)">
            <g id="Group_3801" data-name="Group 3801">
              <path id="Path_201041" data-name="Path 201041" d="M451.41,171.136a1.579,1.579,0,0,1-.065-2.063,7.049,7.049,0,0,1,9.917-1.035,7.077,7.077,0,0,1,2.525,6.581,1.578,1.578,0,0,1-3.118-.492,3.907,3.907,0,0,0-1.394-3.638,3.9,3.9,0,0,0-5.48.571,1.578,1.578,0,0,1-2.219.232A1.527,1.527,0,0,1,451.41,171.136Z" transform="translate(-450.993 -166.462)" fill="#1e0f41"/>
            </g>
          </g>
        </g>
      </g>
    </g>
    <g id="Group_3814" data-name="Group 3814" transform="translate(185.797 33.738)">
      <g id="Group_3807" data-name="Group 3807" transform="translate(0.973 1.357)">
        <g id="Group_3806" data-name="Group 3806">
          <path id="Path_201042" data-name="Path 201042" d="M194.237,40.6A9.959,9.959,0,1,1,198.575,54,9.96,9.96,0,0,1,194.237,40.6Z" transform="translate(-193.144 -35.165)" fill="#00c1e8"/>
        </g>
      </g>
      <g id="Group_3809" data-name="Group 3809" transform="translate(4.056 1.291)">
        <g id="Group_3808" data-name="Group 3808">
          <path id="Path_201043" data-name="Path 201043" d="M209.921,48.523c-2.334,4.572-8.21,6.312-13.535,4.2.346.221.7.429,1.078.62,5.6,2.861,12.168,1.209,14.67-3.689s-.009-11.189-5.609-14.049c-.374-.191-.752-.358-1.133-.51C210.224,38.172,212.257,43.952,209.921,48.523Z" transform="translate(-196.386 -35.095)" fill="#fff"/>
        </g>
      </g>
      <g id="Group_3811" data-name="Group 3811" transform="translate(0 5.427)">
        <g id="Group_3810" data-name="Group 3810">
          <path id="Path_201044" data-name="Path 201044" d="M195.771,39.639a1.761,1.761,0,0,1,.766,2.369,8.2,8.2,0,0,0,13.5,9.1,1.76,1.76,0,1,1,2.664,2.3,11.721,11.721,0,0,1-19.3-13A1.76,1.76,0,0,1,195.771,39.639Z" transform="translate(-192.121 -39.446)" fill="#1e0f41"/>
        </g>
      </g>
      <g id="Group_3813" data-name="Group 3813" transform="translate(1.088)">
        <g id="Group_3812" data-name="Group 3812">
          <path id="Path_201045" data-name="Path 201045" d="M209.227,35.019a11.764,11.764,0,0,1,6.375,9.832,1.761,1.761,0,1,1-3.516.185,8.2,8.2,0,0,0-15.491-3.309,1.76,1.76,0,0,1-3.135-1.6A11.734,11.734,0,0,1,209.227,35.019Z" transform="translate(-193.266 -33.738)" fill="#1e0f41"/>
        </g>
      </g>
    </g>
    <g id="Group_3823" data-name="Group 3823" transform="translate(434.077 55.881)">
      <g id="Group_3816" data-name="Group 3816" transform="translate(0.973 1.356)">
        <g id="Group_3815" data-name="Group 3815">
          <path id="Path_201046" data-name="Path 201046" d="M455.348,63.882a9.96,9.96,0,1,1,4.339,13.4A9.961,9.961,0,0,1,455.348,63.882Z" transform="translate(-454.255 -58.452)" fill="#00c1e8"/>
        </g>
      </g>
      <g id="Group_3818" data-name="Group 3818" transform="translate(4.056 1.29)">
        <g id="Group_3817" data-name="Group 3817">
          <path id="Path_201047" data-name="Path 201047" d="M471.033,71.81c-2.335,4.572-8.211,6.312-13.535,4.2.345.221.7.429,1.077.62,5.6,2.861,12.168,1.209,14.671-3.689s-.01-11.189-5.609-14.049c-.374-.191-.753-.358-1.134-.51C471.335,61.459,473.369,67.239,471.033,71.81Z" transform="translate(-457.498 -58.382)" fill="#fff"/>
        </g>
      </g>
      <g id="Group_3820" data-name="Group 3820" transform="translate(0 5.427)">
        <g id="Group_3819" data-name="Group 3819">
          <path id="Path_201048" data-name="Path 201048" d="M456.882,62.926a1.76,1.76,0,0,1,.767,2.369,8.2,8.2,0,0,0,13.5,9.1,1.761,1.761,0,1,1,2.664,2.3,11.721,11.721,0,0,1-19.3-13A1.76,1.76,0,0,1,456.882,62.926Z" transform="translate(-453.232 -62.733)" fill="#1e0f41"/>
        </g>
      </g>
      <g id="Group_3822" data-name="Group 3822" transform="translate(1.089)">
        <g id="Group_3821" data-name="Group 3821">
          <path id="Path_201049" data-name="Path 201049" d="M470.338,58.307a11.761,11.761,0,0,1,6.375,9.831,1.76,1.76,0,1,1-3.515.185,8.2,8.2,0,0,0-15.491-3.309,1.761,1.761,0,0,1-3.136-1.6A11.733,11.733,0,0,1,470.338,58.307Z" transform="translate(-454.377 -57.025)" fill="#1e0f41"/>
        </g>
      </g>
    </g>
    <g id="Group_3833" data-name="Group 3833" transform="translate(129.976 221.57)">
      <g id="Group_3825" data-name="Group 3825" transform="translate(1.186 1.332)">
        <g id="Group_3824" data-name="Group 3824">
          <path id="Path_201050" data-name="Path 201050" d="M135.869,238.675a11,11,0,1,1,4.79,14.8A11,11,0,0,1,135.869,238.675Z" transform="translate(-134.662 -232.678)" fill="#df445f"/>
        </g>
      </g>
      <g id="Group_3827" data-name="Group 3827" transform="translate(4.59 1.258)">
        <g id="Group_3826" data-name="Group 3826">
          <path id="Path_201051" data-name="Path 201051" d="M153.189,247.429c-2.579,5.048-9.065,6.97-14.947,4.638.382.242.778.474,1.19.685,6.183,3.158,13.436,1.334,16.2-4.074s-.01-12.354-6.193-15.513c-.414-.211-.832-.4-1.252-.563C153.521,236,155.766,242.382,153.189,247.429Z" transform="translate(-138.242 -232.601)" fill="#fff"/>
        </g>
      </g>
      <g id="Group_3832" data-name="Group 3832">
        <g id="Group_3829" data-name="Group 3829">
          <g id="Group_3828" data-name="Group 3828">
            <path id="Path_201052" data-name="Path 201052" d="M151.985,232.682a12.709,12.709,0,0,1,6.109,6.8,1.761,1.761,0,0,1-3.289,1.257,9.238,9.238,0,0,0-17.8,4.442,1.761,1.761,0,1,1-3.494.438,12.754,12.754,0,0,1,18.469-12.934Z" transform="translate(-133.415 -231.278)" fill="#1e0f41"/>
          </g>
        </g>
        <g id="Group_3831" data-name="Group 3831" transform="translate(4.072 7.069)">
          <g id="Group_3830" data-name="Group 3830">
            <path id="Path_201053" data-name="Path 201053" d="M157.462,238.9a1.756,1.756,0,0,1,.842.939A12.759,12.759,0,0,1,138.35,254.31a1.76,1.76,0,1,1,2.215-2.736,9.238,9.238,0,0,0,14.45-10.473,1.761,1.761,0,0,1,2.447-2.2Z" transform="translate(-137.697 -238.712)" fill="#1e0f41"/>
          </g>
        </g>
      </g>
    </g>
    <g id="Group_3843" data-name="Group 3843" transform="translate(384.026 165.981)">
      <g id="Group_3835" data-name="Group 3835" transform="translate(1.186 1.331)">
        <g id="Group_3834" data-name="Group 3834">
          <path id="Path_201054" data-name="Path 201054" d="M403.049,180.213a11,11,0,1,1,4.79,14.8A11,11,0,0,1,403.049,180.213Z" transform="translate(-401.842 -174.215)" fill="#df445f"/>
        </g>
      </g>
      <g id="Group_3837" data-name="Group 3837" transform="translate(4.591 1.259)">
        <g id="Group_3836" data-name="Group 3836">
          <path id="Path_201055" data-name="Path 201055" d="M420.369,188.967c-2.578,5.047-9.065,6.97-14.946,4.637.381.243.777.474,1.19.685,6.183,3.159,13.436,1.335,16.2-4.074s-.009-12.354-6.193-15.512c-.413-.211-.831-.4-1.252-.563C420.7,177.536,422.947,183.92,420.369,188.967Z" transform="translate(-405.423 -174.139)" fill="#fff"/>
        </g>
      </g>
      <g id="Group_3842" data-name="Group 3842">
        <g id="Group_3839" data-name="Group 3839">
          <g id="Group_3838" data-name="Group 3838">
            <path id="Path_201056" data-name="Path 201056" d="M419.166,174.22a12.7,12.7,0,0,1,6.108,6.8,1.761,1.761,0,1,1-3.289,1.257,9.238,9.238,0,0,0-17.8,4.443,1.761,1.761,0,0,1-3.494.437,12.754,12.754,0,0,1,18.47-12.934Z" transform="translate(-400.595 -172.815)" fill="#1e0f41"/>
          </g>
        </g>
        <g id="Group_3841" data-name="Group 3841" transform="translate(4.072 7.069)">
          <g id="Group_3840" data-name="Group 3840">
            <path id="Path_201057" data-name="Path 201057" d="M424.643,180.443a1.753,1.753,0,0,1,.842.939,12.759,12.759,0,0,1-19.955,14.466,1.761,1.761,0,1,1,2.216-2.737A9.238,9.238,0,0,0,422.2,182.639a1.761,1.761,0,0,1,2.447-2.2Z" transform="translate(-404.878 -180.25)" fill="#1e0f41"/>
          </g>
        </g>
      </g>
    </g>
    <g id="Group_3853" data-name="Group 3853" transform="translate(160.094 178.494)">
      <g id="Group_3845" data-name="Group 3845" transform="translate(1.325 1.58)">
        <g id="Group_3844" data-name="Group 3844">
          <path id="Path_201058" data-name="Path 201058" d="M167.153,190.968a6.108,6.108,0,1,1,2.66,8.218A6.108,6.108,0,0,1,167.153,190.968Z" transform="translate(-166.483 -187.637)" fill="#f5a25c"/>
        </g>
      </g>
      <g id="Group_3847" data-name="Group 3847" transform="translate(3.216 1.54)">
        <g id="Group_3846" data-name="Group 3846">
          <path id="Path_201059" data-name="Path 201059" d="M175.989,195.43a5.7,5.7,0,0,1-7.517,2.976c.212.135.432.262.661.379,3.435,1.754,7.462.742,9-2.262s-.006-6.861-3.44-8.616c-.229-.117-.461-.22-.7-.313A5.7,5.7,0,0,1,175.989,195.43Z" transform="translate(-168.472 -187.595)" fill="#fff"/>
        </g>
      </g>
      <g id="Group_3852" data-name="Group 3852" transform="translate(0)">
        <g id="Group_3849" data-name="Group 3849" transform="translate(1.926)">
          <g id="Group_3848" data-name="Group 3848">
            <path id="Path_201060" data-name="Path 201060" d="M176.538,186.841a7.873,7.873,0,0,1,3.852,9.544,1.76,1.76,0,1,1-3.332-1.137,4.348,4.348,0,0,0-7.011-4.649,1.761,1.761,0,1,1-2.342-2.63,7.887,7.887,0,0,1,7.781-1.573A8.11,8.11,0,0,1,176.538,186.841Z" transform="translate(-167.115 -185.975)" fill="#1e0f41"/>
          </g>
        </g>
        <g id="Group_3851" data-name="Group 3851" transform="translate(0 7.288)">
          <g id="Group_3850" data-name="Group 3850">
            <path id="Path_201061" data-name="Path 201061" d="M179.428,194.626a1.76,1.76,0,0,1,.862,2.136,7.868,7.868,0,0,1-9.989,4.9,7.9,7.9,0,0,1-5.177-5.921,1.76,1.76,0,0,1,3.454-.685,4.364,4.364,0,0,0,2.861,3.273,4.348,4.348,0,0,0,5.52-2.708,1.759,1.759,0,0,1,2.235-1.1A1.777,1.777,0,0,1,179.428,194.626Z" transform="translate(-165.09 -193.641)" fill="#1e0f41"/>
          </g>
        </g>
      </g>
    </g>
    <g id="Group_3863" data-name="Group 3863" transform="translate(230.007 98.696)">
      <g id="Group_3855" data-name="Group 3855" transform="translate(1.325 1.581)">
        <g id="Group_3854" data-name="Group 3854">
          <path id="Path_201062" data-name="Path 201062" d="M240.679,107.046a6.108,6.108,0,1,1,2.66,8.217A6.108,6.108,0,0,1,240.679,107.046Z" transform="translate(-240.009 -103.715)" fill="#f5a25c"/>
        </g>
      </g>
      <g id="Group_3857" data-name="Group 3857" transform="translate(3.216 1.54)">
        <g id="Group_3856" data-name="Group 3856">
          <path id="Path_201063" data-name="Path 201063" d="M249.515,111.507A5.7,5.7,0,0,1,242,114.483c.212.135.432.262.661.379,3.434,1.755,7.462.742,9-2.262s-.006-6.861-3.44-8.616c-.229-.117-.461-.22-.7-.313A5.7,5.7,0,0,1,249.515,111.507Z" transform="translate(-241.998 -103.672)" fill="#fff"/>
        </g>
      </g>
      <g id="Group_3862" data-name="Group 3862">
        <g id="Group_3859" data-name="Group 3859" transform="translate(1.925)">
          <g id="Group_3858" data-name="Group 3858">
            <path id="Path_201064" data-name="Path 201064" d="M250.064,102.918a7.873,7.873,0,0,1,3.852,9.544,1.761,1.761,0,0,1-3.333-1.137,4.348,4.348,0,0,0-7.01-4.649,1.761,1.761,0,0,1-2.343-2.63,7.892,7.892,0,0,1,7.782-1.573A8.167,8.167,0,0,1,250.064,102.918Z" transform="translate(-240.641 -102.053)" fill="#1e0f41"/>
          </g>
        </g>
        <g id="Group_3861" data-name="Group 3861" transform="translate(0 7.288)">
          <g id="Group_3860" data-name="Group 3860">
            <path id="Path_201065" data-name="Path 201065" d="M252.954,110.7a1.761,1.761,0,0,1,.862,2.136,7.866,7.866,0,0,1-9.989,4.9,7.9,7.9,0,0,1-5.177-5.921,1.76,1.76,0,0,1,3.454-.685,4.365,4.365,0,0,0,2.861,3.274,4.348,4.348,0,0,0,5.519-2.709,1.766,1.766,0,0,1,2.47-1Z" transform="translate(-238.616 -109.718)" fill="#1e0f41"/>
          </g>
        </g>
      </g>
    </g>
    <g id="Group_4106" data-name="Group 4106" transform="translate(142.736 35.419)">
      <g id="Group_3907" data-name="Group 3907" transform="translate(113.361)">
        <g id="Group_3865" data-name="Group 3865" transform="translate(24.637 56.41)">
          <g id="Group_3864" data-name="Group 3864" transform="translate(0 0)">
            <rect id="Rectangle_414" data-name="Rectangle 414" width="6.709" height="63.874" fill="#00c1e8"/>
          </g>
        </g>
        <g id="Group_3867" data-name="Group 3867" transform="translate(24.637 55.632)">
          <g id="Group_3866" data-name="Group 3866">
            <rect id="Rectangle_415" data-name="Rectangle 415" width="5.7" height="50.181" fill="#f5a25c"/>
          </g>
        </g>
        <g id="Group_3869" data-name="Group 3869" transform="translate(21.836 53.609)">
          <g id="Group_3868" data-name="Group 3868">
            <path id="Path_201066" data-name="Path 201066" d="M298.529,161.362H291.82a2.8,2.8,0,0,1-2.8-2.8V94.687a2.8,2.8,0,0,1,2.8-2.8h6.709a2.8,2.8,0,0,1,2.8,2.8v63.874A2.8,2.8,0,0,1,298.529,161.362Zm-3.908-5.6h1.107V97.488h-1.107Z" transform="translate(-289.019 -91.886)" fill="#1e0f41"/>
          </g>
        </g>
        <g id="Group_3871" data-name="Group 3871" transform="translate(16.473 161.495)">
          <g id="Group_3870" data-name="Group 3870">
            <rect id="Rectangle_416" data-name="Rectangle 416" width="23.037" height="119.934" rx="3.463" fill="#f5a25c"/>
          </g>
        </g>
        <g id="Group_3873" data-name="Group 3873" transform="translate(16.473 161.495)">
          <g id="Group_3872" data-name="Group 3872">
            <path id="Path_201067" data-name="Path 201067" d="M289.078,319.581V211.047a5.7,5.7,0,0,1,5.7-5.7h-5.7a5.7,5.7,0,0,0-5.7,5.7V319.581a5.7,5.7,0,0,0,5.7,5.7h5.7A5.7,5.7,0,0,1,289.078,319.581Z" transform="translate(-283.379 -205.347)" fill="#fff"/>
          </g>
        </g>
        <g id="Group_3875" data-name="Group 3875" transform="translate(20.802 105.418)">
          <g id="Group_3874" data-name="Group 3874">
            <path id="Rectangle_417" data-name="Rectangle 417" d="M3.463,0h7.453a3.463,3.463,0,0,1,3.463,3.463V56.137a0,0,0,0,1,0,0H0a0,0,0,0,1,0,0V3.463A3.463,3.463,0,0,1,3.463,0Z" fill="#df445f"/>
          </g>
        </g>
        <g id="Group_3877" data-name="Group 3877" transform="translate(20.802 105.418)">
          <g id="Group_3876" data-name="Group 3876">
            <path id="Path_201068" data-name="Path 201068" d="M297.971,146.553a5.683,5.683,0,0,0-1.361-.181h-2.979a5.7,5.7,0,0,0-5.7,5.7v50.437h5.7V152.071A5.69,5.69,0,0,1,297.971,146.553Z" transform="translate(-287.932 -146.372)" fill="#fff"/>
          </g>
        </g>
        <g id="Group_3879" data-name="Group 3879" transform="translate(18.001 102.616)">
          <g id="Group_3878" data-name="Group 3878">
            <path id="Path_201069" data-name="Path 201069" d="M302.166,205.164h-14.38a2.8,2.8,0,0,1-2.8-2.8V151.928a8.511,8.511,0,0,1,8.5-8.5h2.98a8.511,8.511,0,0,1,8.5,8.5V166.2a2.8,2.8,0,1,1-5.6,0V151.928a2.9,2.9,0,0,0-2.9-2.9h-2.98a2.9,2.9,0,0,0-2.9,2.9v47.634h8.777V177.6a2.8,2.8,0,1,1,5.6,0v24.759A2.8,2.8,0,0,1,302.166,205.164Z" transform="translate(-284.986 -143.425)" fill="#1e0f41"/>
          </g>
        </g>
        <g id="Group_3884" data-name="Group 3884" transform="translate(0 0.342)">
          <g id="Group_3881" data-name="Group 3881" transform="translate(0 0)">
            <g id="Group_3880" data-name="Group 3880">
              <circle id="Ellipse_122" data-name="Ellipse 122" cx="26.124" cy="26.124" r="26.124" transform="translate(0 51.991) rotate(-84.314)" fill="#00c1e8"/>
            </g>
          </g>
          <g id="Group_3883" data-name="Group 3883" transform="translate(2.459 2.46)">
            <g id="Group_3882" data-name="Group 3882">
              <path id="Path_201070" data-name="Path 201070" d="M274.341,64.577a26.122,26.122,0,0,1,23.274-25.962,26.124,26.124,0,1,0,0,51.924A26.122,26.122,0,0,1,274.341,64.577Z" transform="translate(-268.641 -38.453)" fill="#fff"/>
            </g>
          </g>
        </g>
        <g id="Group_3886" data-name="Group 3886" transform="translate(0.408)">
          <g id="Group_3885" data-name="Group 3885">
            <path id="Path_201071" data-name="Path 201071" d="M320.784,67.233a2.8,2.8,0,0,1-2.8-2.8,23.327,23.327,0,0,0-45.977-5.573,2.8,2.8,0,0,1-5.441-1.332,28.928,28.928,0,0,1,57.02,6.905A2.8,2.8,0,0,1,320.784,67.233Z" transform="translate(-266.483 -35.506)" fill="#1e0f41"/>
          </g>
        </g>
        <g id="Group_3888" data-name="Group 3888" transform="translate(0.188 26.125)">
          <g id="Group_3887" data-name="Group 3887">
            <path id="Path_201072" data-name="Path 201072" d="M294.648,94.708a29.014,29.014,0,0,1-28.338-23.1,2.8,2.8,0,0,1,5.488-1.125,23.326,23.326,0,0,0,46.173-4.7,2.8,2.8,0,1,1,5.6,0A28.958,28.958,0,0,1,294.648,94.708Z" transform="translate(-266.253 -62.981)" fill="#1e0f41"/>
          </g>
        </g>
        <g id="Group_3890" data-name="Group 3890" transform="translate(13.672 158.694)">
          <g id="Group_3889" data-name="Group 3889">
            <path id="Path_201073" data-name="Path 201073" d="M300.571,327.937H288.934a8.51,8.51,0,0,1-8.5-8.5V263.21a2.8,2.8,0,0,1,5.6,0v56.226a2.9,2.9,0,0,0,2.9,2.9h11.638a2.9,2.9,0,0,0,2.9-2.9V210.9a2.9,2.9,0,0,0-2.9-2.9H288.934a2.9,2.9,0,0,0-2.9,2.9v41.088a2.8,2.8,0,0,1-5.6,0V210.9a8.511,8.511,0,0,1,8.5-8.5h11.638a8.511,8.511,0,0,1,8.5,8.5V319.436A8.511,8.511,0,0,1,300.571,327.937Z" transform="translate(-280.433 -202.401)" fill="#1e0f41"/>
          </g>
        </g>
        <g id="Group_3896" data-name="Group 3896" transform="translate(28.691 218.59)">
          <g id="Group_3892" data-name="Group 3892">
            <g id="Group_3891" data-name="Group 3891">
              <path id="Path_201074" data-name="Path 201074" d="M298.329,312.344a2.1,2.1,0,0,1-2.1-2.1v-.733a2.1,2.1,0,0,1,4.2,0v.733A2.1,2.1,0,0,1,298.329,312.344Zm0-10.537a2.1,2.1,0,0,1-2.1-2.1V267.494a2.1,2.1,0,1,1,4.2,0v32.212A2.1,2.1,0,0,1,298.329,301.807Z" transform="translate(-296.228 -265.393)" fill="#1e0f41"/>
            </g>
          </g>
          <g id="Group_3895" data-name="Group 3895" transform="translate(0.521 43.271)">
            <g id="Group_3894" data-name="Group 3894">
              <g id="Group_3893" data-name="Group 3893">
                <path id="Path_201075" data-name="Path 201075" d="M296.776,312.479a1.58,1.58,0,1,0,1.579-1.579A1.58,1.58,0,0,0,296.776,312.479Z" transform="translate(-296.776 -310.9)" fill="#1e0f41"/>
              </g>
            </g>
          </g>
        </g>
        <g id="Group_3901" data-name="Group 3901" transform="translate(39.817 17.563)">
          <g id="Group_3898" data-name="Group 3898" transform="translate(0 18.488)">
            <g id="Group_3897" data-name="Group 3897">
              <path id="Path_201076" data-name="Path 201076" d="M312.2,75.558a2.137,2.137,0,1,1-2.137-2.138A2.137,2.137,0,0,1,312.2,75.558Z" transform="translate(-307.929 -73.42)" fill="#1e0f41"/>
            </g>
          </g>
          <g id="Group_3900" data-name="Group 3900" transform="translate(0.036)">
            <g id="Group_3899" data-name="Group 3899">
              <path id="Path_201077" data-name="Path 201077" d="M310.067,70.543a2.1,2.1,0,0,1-2.1-2.1V56.077a2.1,2.1,0,0,1,4.2,0V68.441A2.1,2.1,0,0,1,310.067,70.543Z" transform="translate(-307.967 -53.977)" fill="#1e0f41"/>
            </g>
          </g>
        </g>
        <g id="Group_3906" data-name="Group 3906" transform="translate(30.91 11.608)">
          <g id="Group_3903" data-name="Group 3903" transform="translate(0.037)">
            <g id="Group_3902" data-name="Group 3902">
              <path id="Path_201078" data-name="Path 201078" d="M300.7,75.911a2.1,2.1,0,0,1-2.1-2.1v-24a2.1,2.1,0,0,1,4.2,0v24A2.1,2.1,0,0,1,300.7,75.911Z" transform="translate(-298.601 -47.714)" fill="#1e0f41"/>
            </g>
          </g>
          <g id="Group_3905" data-name="Group 3905" transform="translate(0 30.397)">
            <g id="Group_3904" data-name="Group 3904">
              <circle id="Ellipse_123" data-name="Ellipse 123" cx="2.137" cy="2.137" r="2.137" fill="#1e0f41"/>
            </g>
          </g>
        </g>
      </g>
      <g id="Group_3944" data-name="Group 3944" transform="translate(0 27.148)">
        <g id="Group_3909" data-name="Group 3909" transform="translate(40.126 49.802)">
          <g id="Group_3908" data-name="Group 3908" transform="translate(0 0)">
            <rect id="Rectangle_418" data-name="Rectangle 418" width="9.384" height="52.084" transform="translate(0 5.803) rotate(-38.197)" fill="#f5a25c"/>
          </g>
        </g>
        <g id="Group_3911" data-name="Group 3911" transform="translate(37.324 47.001)">
          <g id="Group_3910" data-name="Group 3910">
            <path id="Path_201079" data-name="Path 201079" d="M230.2,159.421l-7.375,5.8a2.8,2.8,0,0,1-3.934-.469l-32.207-40.932a2.8,2.8,0,0,1,.47-3.934l7.375-5.8a2.8,2.8,0,0,1,3.934.469l32.207,40.933A2.8,2.8,0,0,1,230.2,159.421Zm-8.638-.331,2.972-2.339L195.8,120.221l-2.972,2.339Z" transform="translate(-186.088 -113.487)" fill="#1e0f41"/>
          </g>
        </g>
        <g id="Group_3920" data-name="Group 3920" transform="translate(133.442 166.267)">
          <g id="Group_3919" data-name="Group 3919">
            <g id="Group_3914" data-name="Group 3914">
              <g id="Group_3913" data-name="Group 3913">
                <g id="Group_3912" data-name="Group 3912">
                  <path id="Path_201080" data-name="Path 201080" d="M316.687,275.857a2.1,2.1,0,0,1-2.951-.352l-.131-.167a2.1,2.1,0,1,1,3.3-2.6l.132.168A2.1,2.1,0,0,1,316.687,275.857Zm-6.195-7.872a2.1,2.1,0,0,1-2.95-.352l-19.92-25.316a2.1,2.1,0,1,1,3.3-2.6l19.919,25.315A2.1,2.1,0,0,1,310.492,267.985Z" transform="translate(-287.173 -238.917)" fill="#1e0f41"/>
                </g>
              </g>
            </g>
            <g id="Group_3918" data-name="Group 3918" transform="translate(26.635 33.709)">
              <g id="Group_3917" data-name="Group 3917">
                <g id="Group_3916" data-name="Group 3916">
                  <g id="Group_3915" data-name="Group 3915">
                    <path id="Path_201081" data-name="Path 201081" d="M315.523,276.926a1.58,1.58,0,1,0,.264-2.218A1.58,1.58,0,0,0,315.523,276.926Z" transform="translate(-315.184 -274.369)" fill="#1e0f41"/>
                  </g>
                </g>
              </g>
            </g>
          </g>
        </g>
        <g id="Group_3922" data-name="Group 3922" transform="translate(2.815 2.816)">
          <g id="Group_3921" data-name="Group 3921">
            <path id="Path_201082" data-name="Path 201082" d="M197,119.485l-5.161,4.06c-2.777,2.185-7.271.861-9.945-2.829L150.74,77.729A4.915,4.915,0,0,1,151.625,71l3.766-2.963a4.915,4.915,0,0,1,6.746.721l34.452,40.393C199.548,112.619,199.778,117.3,197,119.485Z" transform="translate(-149.796 -67.019)" fill="#00c1e8"/>
          </g>
        </g>
        <g id="Group_3924" data-name="Group 3924" transform="translate(2.815 3.61)">
          <g id="Group_3923" data-name="Group 3923">
            <path id="Path_201083" data-name="Path 201083" d="M186.32,117.276,155.165,74.288a4.909,4.909,0,0,1,.583-6.434c-.118.077-.243.138-.356.226l-3.766,2.963a4.914,4.914,0,0,0-.885,6.726L181.9,120.758c2.673,3.689,7.169,5.014,9.945,2.829l4.425-3.482C193.489,122.29,188.993,120.965,186.32,117.276Z" transform="translate(-149.796 -67.854)" fill="#fff"/>
          </g>
        </g>
        <g id="Group_3926" data-name="Group 3926">
          <g id="Group_3925" data-name="Group 3925">
            <path id="Path_201084" data-name="Path 201084" d="M198.587,121.54l-5.16,4.061a8.043,8.043,0,0,1-6.157,1.569,11.873,11.873,0,0,1-7.789-4.956L166.209,103.9a2.8,2.8,0,0,1,4.537-3.287l13.272,18.313a6.364,6.364,0,0,0,4.026,2.695,2.447,2.447,0,0,0,1.919-.423l5.161-4.061a2.445,2.445,0,0,0,.863-1.765,6.369,6.369,0,0,0-1.673-4.548L159.862,70.433a2.116,2.116,0,0,0-2.884-.338l-3.765,2.963a2.114,2.114,0,0,0-.35,2.882l10.666,14.716a2.8,2.8,0,0,1-4.537,3.287L148.326,79.228a7.677,7.677,0,0,1,1.422-10.573l3.765-2.964A7.679,7.679,0,0,1,164.124,66.8l34.452,40.392a11.87,11.87,0,0,1,2.984,8.736A8.042,8.042,0,0,1,198.587,121.54Z" transform="translate(-146.835 -64.057)" fill="#1e0f41"/>
          </g>
        </g>
        <g id="Group_3928" data-name="Group 3928" transform="translate(56.901 73.565)">
          <g id="Group_3927" data-name="Group 3927">
            <path id="Path_201085" data-name="Path 201085" d="M334.8,286.99l-12.88,10.134a3.293,3.293,0,0,1-4.624-.551L207.383,156.888a3.293,3.293,0,0,1,.551-4.624l12.879-10.134a3.293,3.293,0,0,1,4.624.551L335.349,282.366A3.293,3.293,0,0,1,334.8,286.99Z" transform="translate(-206.677 -141.424)" fill="#df445f"/>
          </g>
        </g>
        <g id="Group_3930" data-name="Group 3930" transform="translate(57.855 79.411)">
          <g id="Group_3929" data-name="Group 3929">
            <path id="Path_201086" data-name="Path 201086" d="M320.364,291.522,213.344,155.512a5.657,5.657,0,0,1,.986-7.94l-4.468,3.515a5.658,5.658,0,0,0-.985,7.94L315.9,295.038a5.658,5.658,0,0,0,7.949.91l4.467-3.515A5.657,5.657,0,0,1,320.364,291.522Z" transform="translate(-207.68 -147.572)" fill="#fff"/>
          </g>
        </g>
        <g id="Group_3932" data-name="Group 3932" transform="translate(96.504 102.068)">
          <g id="Group_3931" data-name="Group 3931">
            <path id="Path_201087" data-name="Path 201087" d="M336.739,292.111l-9.2,7.243a8.442,8.442,0,0,1-11.841-1.412l-40.107-50.973a2.8,2.8,0,1,1,4.4-3.464L320.1,294.477a2.833,2.833,0,0,0,3.974.474l9.205-7.243a2.832,2.832,0,0,0,.474-3.974l-84.822-107.8a2.8,2.8,0,1,1,4.4-3.464l84.822,107.8A8.44,8.44,0,0,1,336.739,292.111Z" transform="translate(-248.326 -171.4)" fill="#1e0f41"/>
          </g>
        </g>
        <g id="Group_3934" data-name="Group 3934" transform="translate(55.049 71.713)">
          <g id="Group_3933" data-name="Group 3933">
            <path id="Path_201088" data-name="Path 201088" d="M270.091,236.61a2.8,2.8,0,0,1-3.933-.469l-59.627-75.78a8.442,8.442,0,0,1,1.413-11.841l9.2-7.243a8.443,8.443,0,0,1,11.841,1.413l14.943,18.991a2.8,2.8,0,1,1-4.4,3.464l-14.943-18.991a2.833,2.833,0,0,0-3.975-.474l-9.2,7.243a2.832,2.832,0,0,0-.474,3.974l59.626,75.779A2.8,2.8,0,0,1,270.091,236.61Z" transform="translate(-204.729 -139.477)" fill="#1e0f41"/>
          </g>
        </g>
        <g id="Group_3943" data-name="Group 3943" transform="translate(138.858 170.511)">
          <g id="Group_3942" data-name="Group 3942">
            <g id="Group_3937" data-name="Group 3937">
              <g id="Group_3936" data-name="Group 3936">
                <g id="Group_3935" data-name="Group 3935">
                  <path id="Path_201089" data-name="Path 201089" d="M322.383,280.32a2.1,2.1,0,0,1-2.951-.352l-.131-.168a2.1,2.1,0,1,1,3.3-2.6l.132.167A2.1,2.1,0,0,1,322.383,280.32Zm-6.195-7.872a2.1,2.1,0,0,1-2.95-.353l-19.92-25.315a2.1,2.1,0,1,1,3.3-2.6L316.54,269.5A2.1,2.1,0,0,1,316.188,272.448Z" transform="translate(-292.869 -243.38)" fill="#1e0f41"/>
                </g>
              </g>
            </g>
            <g id="Group_3941" data-name="Group 3941" transform="translate(26.635 33.709)">
              <g id="Group_3940" data-name="Group 3940">
                <g id="Group_3939" data-name="Group 3939">
                  <g id="Group_3938" data-name="Group 3938">
                    <path id="Path_201090" data-name="Path 201090" d="M321.219,281.388a1.579,1.579,0,1,0,.264-2.218A1.58,1.58,0,0,0,321.219,281.388Z" transform="translate(-320.88 -278.832)" fill="#1e0f41"/>
                  </g>
                </g>
              </g>
            </g>
          </g>
        </g>
      </g>
      <g id="Group_4001" data-name="Group 4001" transform="translate(95.084 7.948)">
        <g id="Group_3947" data-name="Group 3947" transform="translate(139.571 1.401)">
          <g id="Group_3946" data-name="Group 3946">
            <g id="Group_3945" data-name="Group 3945">
              <path id="Path_201091" data-name="Path 201091" d="M401.249,116.406,422.425,86.33a7.6,7.6,0,0,0,1.114-6.392l-9.361-34.033a.846.846,0,0,0-1.629.441s4.421,23.038,6.276,32.319a7.6,7.6,0,0,1-1.91,6.691l-23.3,24.832Z" transform="translate(-393.617 -45.338)" fill="#00c1e8"/>
            </g>
          </g>
        </g>
        <g id="Group_3950" data-name="Group 3950" transform="translate(139.571 1.401)">
          <g id="Group_3949" data-name="Group 3949">
            <g id="Group_3948" data-name="Group 3948">
              <path id="Path_201092" data-name="Path 201092" d="M421.026,80.459c-1.853-9.279-6.275-32.318-6.275-32.318a.878.878,0,0,1,0-.158l-.571-2.078a.846.846,0,0,0-1.629.441s4.421,23.038,6.276,32.319a7.6,7.6,0,0,1-1.91,6.691l-23.3,24.832,2.2,1.794,23.3-24.832A7.6,7.6,0,0,0,421.026,80.459Z" transform="translate(-393.617 -45.338)" fill="#fff"/>
            </g>
          </g>
        </g>
        <g id="Group_3953" data-name="Group 3953" transform="translate(138.171)">
          <g id="Group_3952" data-name="Group 3952">
            <g id="Group_3951" data-name="Group 3951">
              <path id="Path_201093" data-name="Path 201093" d="M400.291,117.42,392.66,111.2a1.4,1.4,0,0,1-.137-2.044l12.021-12.812a1.4,1.4,0,1,1,2.041,1.918l-10.992,11.716,5.3,4.32,20.311-28.846a6.179,6.179,0,0,0,.909-5.215l-5.57-20.252c1.281,6.62,2.716,14.007,3.581,18.334a9.025,9.025,0,0,1-2.264,7.925l-7.192,7.666a1.384,1.384,0,0,1-1.979.062,1.4,1.4,0,0,1-.064-1.98l7.193-7.666a6.22,6.22,0,0,0,1.558-5.46c-1.834-9.178-6.233-32.1-6.278-32.327a2.246,2.246,0,0,1,4.324-1.172l9.391,34.128a8.969,8.969,0,0,1-1.32,7.57l-21.177,30.075a1.4,1.4,0,0,1-2.03.28ZM413.851,46v0Z" transform="translate(-392.145 -43.864)" fill="#1e0f41"/>
            </g>
          </g>
        </g>
        <g id="Group_3956" data-name="Group 3956" transform="translate(2.801 66.238)">
          <g id="Group_3955" data-name="Group 3955" transform="translate(0 0)">
            <g id="Group_3954" data-name="Group 3954">
              <path id="Path_201094" data-name="Path 201094" d="M284,259.623l-.061-.05a894.037,894.037,0,0,0,110.3-139.757l-7.719-6.289A894.058,894.058,0,0,0,271.936,249.793l-19.373,20.254a10.038,10.038,0,1,0,15.516,12.641Z" transform="translate(-249.779 -113.526)" fill="#f5a25c"/>
            </g>
          </g>
        </g>
        <g id="Group_3963" data-name="Group 3963" transform="translate(2.769 201.663)">
          <g id="Group_3959" data-name="Group 3959">
            <g id="Group_3958" data-name="Group 3958">
              <g id="Group_3957" data-name="Group 3957">
                <path id="Path_201095" data-name="Path 201095" d="M268.043,289.66a10.037,10.037,0,1,1-15.512-12.639L271.9,256.773l.562-.824,12.132,9.885c-.228.235-.465.481-.693.717l.054.045Z" transform="translate(-249.745 -255.949)" fill="#df445f"/>
              </g>
            </g>
          </g>
          <g id="Group_3962" data-name="Group 3962" transform="translate(0)">
            <g id="Group_3961" data-name="Group 3961">
              <g id="Group_3960" data-name="Group 3960">
                <path id="Path_201096" data-name="Path 201096" d="M256.934,280.609l19.372-20.247c.184-.272.378-.553.562-.825l-4.4-3.588-.562.824-19.372,20.248a10.008,10.008,0,0,0,3.376,16.186A10.034,10.034,0,0,1,256.934,280.609Z" transform="translate(-249.745 -255.949)" fill="#fff"/>
              </g>
            </g>
          </g>
        </g>
        <g id="Group_3966" data-name="Group 3966" transform="translate(2.801 66.238)">
          <g id="Group_3965" data-name="Group 3965" transform="translate(0 0)">
            <g id="Group_3964" data-name="Group 3964">
              <path id="Path_201097" data-name="Path 201097" d="M256.966,273.634l19.373-20.254A894.063,894.063,0,0,1,390.924,117.114l-4.4-3.588A894.058,894.058,0,0,0,271.936,249.793l-19.373,20.254a10.014,10.014,0,0,0,3.38,16.19A10.034,10.034,0,0,1,256.966,273.634Z" transform="translate(-249.779 -113.526)" fill="#fff"/>
            </g>
          </g>
        </g>
        <g id="Group_3969" data-name="Group 3969" transform="translate(0 91.343)">
          <g id="Group_3968" data-name="Group 3968">
            <g id="Group_3967" data-name="Group 3967">
              <path id="Path_201098" data-name="Path 201098" d="M251.563,288.237a12.84,12.84,0,0,1-1.168-18.83l19.212-20.087q2.818-4.119,5.678-8.206a2.8,2.8,0,1,1,4.589,3.213q-2.907,4.155-5.77,8.343a2.87,2.87,0,0,1-.289.357L254.443,273.28a7.237,7.237,0,1,0,11.186,9.114l15.591-22.587a2.63,2.63,0,0,1,.559-.883,893.753,893.753,0,0,0,95.747-117.77,2.8,2.8,0,0,1,4.633,3.15,899.534,899.534,0,0,1-95.887,118.031c-.034.059-.071.119-.11.175L270.24,285.577a12.838,12.838,0,0,1-18.678,2.661Z" transform="translate(-246.833 -139.928)" fill="#1e0f41"/>
            </g>
          </g>
        </g>
        <g id="Group_3972" data-name="Group 3972" transform="translate(34.793 63.438)">
          <g id="Group_3971" data-name="Group 3971">
            <g id="Group_3970" data-name="Group 3970">
              <path id="Path_201099" data-name="Path 201099" d="M284.454,233.806a2.8,2.8,0,0,1-.5-3.807A899.5,899.5,0,0,1,386.219,111.375a2.8,2.8,0,0,1,3.724-.165l7.719,6.289a2.8,2.8,0,0,1,.592,3.679c-2.7,4.226-5.488,8.51-8.288,12.734a2.8,2.8,0,1,1-4.669-3.1c2.318-3.5,4.63-7.039,6.888-10.553l-3.844-3.133A893.887,893.887,0,0,0,288.5,233.272a2.8,2.8,0,0,1-3.91.636C284.542,233.875,284.5,233.841,284.454,233.806Z" transform="translate(-283.424 -110.581)" fill="#1e0f41"/>
            </g>
          </g>
        </g>
        <g id="Group_3997" data-name="Group 3997" transform="translate(46.95 100.533)">
          <g id="Group_3974" data-name="Group 3974" transform="translate(56.507)">
            <g id="Group_3973" data-name="Group 3973">
              <path id="Path_201100" data-name="Path 201100" d="M370.6,163.854l-14.452-11.774a1.4,1.4,0,0,1,1.77-2.172l14.451,11.775a1.4,1.4,0,1,1-1.769,2.172Z" transform="translate(-355.637 -149.593)" fill="#1e0f41"/>
            </g>
          </g>
          <g id="Group_3976" data-name="Group 3976" transform="translate(51.369 6.306)">
            <g id="Group_3975" data-name="Group 3975">
              <path id="Path_201101" data-name="Path 201101" d="M365.2,170.485l-14.452-11.774a1.4,1.4,0,0,1,1.77-2.172l14.451,11.774a1.4,1.4,0,1,1-1.769,2.171Z" transform="translate(-350.233 -156.225)" fill="#1e0f41"/>
            </g>
          </g>
          <g id="Group_3978" data-name="Group 3978" transform="translate(46.232 12.611)">
            <g id="Group_3977" data-name="Group 3977">
              <path id="Path_201102" data-name="Path 201102" d="M359.8,177.116l-14.451-11.774a1.4,1.4,0,1,1,1.77-2.172l14.451,11.774a1.4,1.4,0,1,1-1.77,2.172Z" transform="translate(-344.831 -162.856)" fill="#1e0f41"/>
            </g>
          </g>
          <g id="Group_3980" data-name="Group 3980" transform="translate(41.095 18.916)">
            <g id="Group_3979" data-name="Group 3979">
              <path id="Path_201103" data-name="Path 201103" d="M354.4,183.747l-14.451-11.774a1.4,1.4,0,1,1,1.77-2.172l14.451,11.774a1.4,1.4,0,0,1-1.77,2.172Z" transform="translate(-339.429 -169.486)" fill="#1e0f41"/>
            </g>
          </g>
          <g id="Group_3982" data-name="Group 3982" transform="translate(35.959 25.22)">
            <g id="Group_3981" data-name="Group 3981">
              <path id="Path_201104" data-name="Path 201104" d="M348.994,190.377,334.543,178.6a1.4,1.4,0,1,1,1.769-2.172l14.452,11.774a1.4,1.4,0,1,1-1.77,2.171Z" transform="translate(-334.027 -176.117)" fill="#1e0f41"/>
            </g>
          </g>
          <g id="Group_3984" data-name="Group 3984" transform="translate(30.821 31.526)">
            <g id="Group_3983" data-name="Group 3983">
              <path id="Path_201105" data-name="Path 201105" d="M343.591,197.009l-14.452-11.774a1.4,1.4,0,0,1,1.77-2.172l14.452,11.774a1.4,1.4,0,0,1-1.77,2.172Z" transform="translate(-328.624 -182.749)" fill="#1e0f41"/>
            </g>
          </g>
          <g id="Group_3986" data-name="Group 3986" transform="translate(25.684 37.831)">
            <g id="Group_3985" data-name="Group 3985">
              <path id="Path_201106" data-name="Path 201106" d="M338.189,203.64l-14.452-11.774a1.4,1.4,0,1,1,1.77-2.171l14.451,11.774a1.4,1.4,0,1,1-1.769,2.172Z" transform="translate(-323.221 -189.38)" fill="#1e0f41"/>
            </g>
          </g>
          <g id="Group_3988" data-name="Group 3988" transform="translate(20.547 44.136)">
            <g id="Group_3987" data-name="Group 3987">
              <path id="Path_201107" data-name="Path 201107" d="M332.786,210.27,318.335,198.5a1.4,1.4,0,0,1,1.77-2.172L334.556,208.1a1.4,1.4,0,1,1-1.77,2.171Z" transform="translate(-317.819 -196.01)" fill="#1e0f41"/>
            </g>
          </g>
          <g id="Group_3990" data-name="Group 3990" transform="translate(15.411 50.441)">
            <g id="Group_3989" data-name="Group 3989">
              <path id="Path_201108" data-name="Path 201108" d="M327.384,216.9l-14.451-11.773a1.4,1.4,0,1,1,1.77-2.172l14.451,11.774a1.4,1.4,0,0,1-1.77,2.172Z" transform="translate(-312.417 -202.641)" fill="#1e0f41"/>
            </g>
          </g>
          <g id="Group_3992" data-name="Group 3992" transform="translate(10.273 56.747)">
            <g id="Group_3991" data-name="Group 3991">
              <path id="Path_201109" data-name="Path 201109" d="M321.981,223.533,307.53,211.758a1.4,1.4,0,1,1,1.769-2.171l14.452,11.774a1.4,1.4,0,0,1-1.77,2.172Z" transform="translate(-307.014 -209.273)" fill="#1e0f41"/>
            </g>
          </g>
          <g id="Group_3994" data-name="Group 3994" transform="translate(5.137 63.051)">
            <g id="Group_3993" data-name="Group 3993">
              <path id="Path_201110" data-name="Path 201110" d="M316.579,230.164l-14.451-11.774a1.4,1.4,0,0,1,1.769-2.172l14.452,11.774a1.4,1.4,0,0,1-1.77,2.172Z" transform="translate(-301.612 -215.903)" fill="#1e0f41"/>
            </g>
          </g>
          <g id="Group_3996" data-name="Group 3996" transform="translate(0 69.356)">
            <g id="Group_3995" data-name="Group 3995">
              <path id="Path_201111" data-name="Path 201111" d="M311.177,236.794,296.725,225.02a1.4,1.4,0,0,1,1.77-2.172l14.451,11.773a1.4,1.4,0,1,1-1.769,2.172Z" transform="translate(-296.21 -222.534)" fill="#1e0f41"/>
            </g>
          </g>
        </g>
        <g id="Group_4000" data-name="Group 4000" transform="translate(22.717 198.885)">
          <g id="Group_3999" data-name="Group 3999">
            <g id="Group_3998" data-name="Group 3998">
              <path id="Path_201112" data-name="Path 201112" d="M282.774,266.977,271.756,258a2.8,2.8,0,1,1,3.539-4.343l11.018,8.977a2.8,2.8,0,1,1-3.538,4.343Z" transform="translate(-270.724 -253.028)" fill="#1e0f41"/>
            </g>
          </g>
        </g>
      </g>
      <g id="Group_4002" data-name="Group 4002" transform="translate(37.325 158.563)">
        <path id="Path_201113" data-name="Path 201113" d="M376.721,222.285h0c0-11.058-7.125-20.021-15.914-20.021h-127.7c-8.789,0-15.914,8.964-15.914,20.021v8.355c0,11.058,7.125,20.021,15.914,20.021h2.429c8.788,0,15.913,8.965,15.913,20.022h0c0,11.058-7.125,20.022-15.913,20.022H202c-8.788,0-15.913,8.964-15.913,20.021v8.355c0,11.058,7.125,20.021,15.913,20.021H360.807c8.789,0,15.914-8.964,15.914-20.021v-8.355c0-11.058,7.125-20.021,15.914-20.021h2.429c8.789,0,15.914-8.965,15.914-20.022V262.33c0-11.059-7.125-20.022-15.914-20.022h-2.429C383.846,242.308,376.721,233.344,376.721,222.285Z" transform="translate(-186.089 -202.264)" fill="#ebc2b4"/>
      </g>
      <g id="Group_4105" data-name="Group 4105" transform="translate(56.21 142.291)">
        <g id="Group_4044" data-name="Group 4044" transform="translate(4.941 6.169)">
          <g id="Group_4012" data-name="Group 4012">
            <g id="Group_4011" data-name="Group 4011">
              <g id="Group_4010" data-name="Group 4010">
                <g id="Group_4009" data-name="Group 4009">
                  <g id="Group_4008" data-name="Group 4008">
                    <g id="Group_4007" data-name="Group 4007">
                      <g id="Group_4006" data-name="Group 4006">
                        <g id="Group_4005" data-name="Group 4005">
                          <g id="Group_4004" data-name="Group 4004">
                            <g id="Group_4003" data-name="Group 4003">
                              <path id="Path_201114" data-name="Path 201114" d="M320.635,191.77a52.191,52.191,0,0,0-20.837,5.967,11.814,11.814,0,0,1-11.106,0,52.191,52.191,0,0,0-20.836-5.967A52.919,52.919,0,0,0,229.2,284.363a38.5,38.5,0,0,1,13.306,26.514l.029.476a69.575,69.575,0,0,0,23.118,49.382,50.251,50.251,0,0,0,4.962,3.833,6.811,6.811,0,0,0,10.408-7.1c-2.483-11.666-5.129-29.453-1.891-42.021v0a35.692,35.692,0,0,1,8.068-20.593,9.057,9.057,0,0,1,14.088,0,35.689,35.689,0,0,1,8.068,20.591v0c3.238,12.568.591,30.355-1.892,42.021a6.811,6.811,0,0,0,10.408,7.1,50.143,50.143,0,0,0,4.962-3.833,69.575,69.575,0,0,0,23.118-49.382l.03-.477a38.52,38.52,0,0,1,13.309-26.516,52.918,52.918,0,0,0-38.657-92.59Z" transform="translate(-211.147 -191.638)" fill="#00c1e8"/>
                            </g>
                          </g>
                        </g>
                      </g>
                    </g>
                  </g>
                </g>
              </g>
            </g>
          </g>
          <g id="Group_4043" data-name="Group 4043">
            <g id="Group_4022" data-name="Group 4022" transform="translate(89.266 0.014)">
              <g id="Group_4021" data-name="Group 4021">
                <g id="Group_4020" data-name="Group 4020">
                  <g id="Group_4019" data-name="Group 4019">
                    <g id="Group_4018" data-name="Group 4018">
                      <g id="Group_4017" data-name="Group 4017">
                        <g id="Group_4016" data-name="Group 4016">
                          <g id="Group_4015" data-name="Group 4015">
                            <g id="Group_4014" data-name="Group 4014">
                              <g id="Group_4013" data-name="Group 4013">
                                <path id="Path_201115" data-name="Path 201115" d="M305.639,197.738a11.814,11.814,0,0,0,11.106,0,52.235,52.235,0,0,1,18.531-5.682,53.622,53.622,0,0,0-10.028-.284,52.125,52.125,0,0,0-20.223,5.68C305.226,197.555,305.441,197.632,305.639,197.738Z" transform="translate(-305.026 -191.653)" fill="#fff"/>
                              </g>
                            </g>
                          </g>
                        </g>
                      </g>
                    </g>
                  </g>
                </g>
              </g>
            </g>
            <g id="Group_4032" data-name="Group 4032" transform="translate(89.266 99.874)">
              <g id="Group_4031" data-name="Group 4031">
                <g id="Group_4030" data-name="Group 4030">
                  <g id="Group_4029" data-name="Group 4029">
                    <g id="Group_4028" data-name="Group 4028">
                      <g id="Group_4027" data-name="Group 4027">
                        <g id="Group_4026" data-name="Group 4026">
                          <g id="Group_4025" data-name="Group 4025">
                            <g id="Group_4024" data-name="Group 4024">
                              <g id="Group_4023" data-name="Group 4023">
                                <path id="Path_201116" data-name="Path 201116" d="M324.413,362.626c2.483-11.666,5.13-29.453,1.891-42.021v0a35.689,35.689,0,0,0-8.068-20.591,9.019,9.019,0,0,0-13.21-.862,9.032,9.032,0,0,1,.877.862,35.689,35.689,0,0,1,8.068,20.591v0c3.238,12.568.591,30.355-1.892,42.021a6.811,6.811,0,0,0,10.408,7.1c.9-.609,1.849-1.312,2.814-2.07A6.659,6.659,0,0,1,324.413,362.626Z" transform="translate(-305.026 -296.674)" fill="#fff"/>
                              </g>
                            </g>
                          </g>
                        </g>
                      </g>
                    </g>
                  </g>
                </g>
              </g>
            </g>
            <g id="Group_4042" data-name="Group 4042">
              <g id="Group_4041" data-name="Group 4041">
                <g id="Group_4040" data-name="Group 4040">
                  <g id="Group_4039" data-name="Group 4039">
                    <g id="Group_4038" data-name="Group 4038">
                      <g id="Group_4037" data-name="Group 4037">
                        <g id="Group_4036" data-name="Group 4036">
                          <g id="Group_4035" data-name="Group 4035">
                            <g id="Group_4034" data-name="Group 4034">
                              <g id="Group_4033" data-name="Group 4033">
                                <path id="Path_201117" data-name="Path 201117" d="M277.989,360.735a69.575,69.575,0,0,1-23.118-49.382l-.029-.476a38.5,38.5,0,0,0-13.306-26.514,52.88,52.88,0,0,1,28.627-92.308c-.771-.088-1.525-.23-2.3-.284A52.919,52.919,0,0,0,229.2,284.363a38.5,38.5,0,0,1,13.306,26.514l.029.476a69.575,69.575,0,0,0,23.118,49.382,50.251,50.251,0,0,0,4.962,3.833,6.767,6.767,0,0,0,9.52-2.069C279.432,361.945,278.721,361.374,277.989,360.735Z" transform="translate(-211.147 -191.638)" fill="#fff"/>
                              </g>
                            </g>
                          </g>
                        </g>
                      </g>
                    </g>
                  </g>
                </g>
              </g>
            </g>
          </g>
        </g>
        <g id="Group_4054" data-name="Group 4054" transform="translate(0.035 64.451)">
          <g id="Group_4053" data-name="Group 4053">
            <g id="Group_4052" data-name="Group 4052">
              <g id="Group_4051" data-name="Group 4051">
                <g id="Group_4050" data-name="Group 4050">
                  <g id="Group_4049" data-name="Group 4049">
                    <g id="Group_4048" data-name="Group 4048">
                      <g id="Group_4047" data-name="Group 4047">
                        <g id="Group_4046" data-name="Group 4046">
                          <g id="Group_4045" data-name="Group 4045">
                            <path id="Path_201118" data-name="Path 201118" d="M274.1,374.9a12.836,12.836,0,0,1-7.18-2.2,56.707,56.707,0,0,1-5.572-4.3,75.832,75.832,0,0,1-25.225-53.809l-.023-.307a32.189,32.189,0,0,0-11.215-22.263,58.663,58.663,0,0,1-18.748-31.571,6.166,6.166,0,1,1,12.038-2.677,46.424,46.424,0,0,0,14.839,24.972,44.421,44.421,0,0,1,15.4,30.771l.03.468a63.369,63.369,0,0,0,21,45.11,44.472,44.472,0,0,0,4.37,3.38.479.479,0,0,0,.637-.023.586.586,0,0,0,.295-.685c-2.723-12.784-5.25-30.75-1.983-44.243a41.778,41.778,0,0,1,9.394-23.534,15.166,15.166,0,0,1,11.84-5.653h0a15.159,15.159,0,0,1,11.838,5.652,41.773,41.773,0,0,1,9.4,23.532c3.265,13.494.739,31.461-1.984,44.246a.586.586,0,0,0,.3.684.481.481,0,0,0,.64.021,44.5,44.5,0,0,0,4.349-3.363,62.925,62.925,0,0,0,17.184-25.377,6.167,6.167,0,0,1,11.578,4.251,74.566,74.566,0,0,1-20.671,30.435,56.785,56.785,0,0,1-5.551,4.285,12.978,12.978,0,0,1-19.887-13.5c3.516-16.515,4.21-30.435,1.951-39.2a6.2,6.2,0,0,1-.184-1.218,29.492,29.492,0,0,0-6.706-17.039,2.849,2.849,0,0,0-2.248-1.074h0a2.854,2.854,0,0,0-2.251,1.074,29.468,29.468,0,0,0-6.7,17.035,6.3,6.3,0,0,1-.186,1.219c-2.26,8.767-1.566,22.688,1.949,39.2a13.024,13.024,0,0,1-12.7,15.7Z" transform="translate(-205.987 -252.932)" fill="#1e0f41"/>
                          </g>
                        </g>
                      </g>
                    </g>
                  </g>
                </g>
              </g>
            </g>
          </g>
        </g>
        <g id="Group_4064" data-name="Group 4064">
          <g id="Group_4063" data-name="Group 4063">
            <g id="Group_4062" data-name="Group 4062">
              <g id="Group_4061" data-name="Group 4061">
                <g id="Group_4060" data-name="Group 4060">
                  <g id="Group_4059" data-name="Group 4059">
                    <g id="Group_4058" data-name="Group 4058">
                      <g id="Group_4057" data-name="Group 4057">
                        <g id="Group_4056" data-name="Group 4056">
                          <g id="Group_4055" data-name="Group 4055">
                            <path id="Path_201119" data-name="Path 201119" d="M345.705,317.2c-.125,0-.249,0-.375-.01a6.168,6.168,0,0,1-5.787-6.525l.029-.477a44.464,44.464,0,0,1,15.4-30.784,46.77,46.77,0,0,0,15.95-35.167,46.711,46.711,0,0,0-68.492-41.37,18,18,0,0,1-16.882,0,45.839,45.839,0,0,0-18.375-5.264,46.5,46.5,0,0,0-49.031,36.575,6.167,6.167,0,0,1-12.047-2.641A59.429,59.429,0,0,1,268.03,185.3a58.1,58.1,0,0,1,23.294,6.668,5.691,5.691,0,0,0,5.332,0,59,59,0,0,1,67.809,9.055,59.081,59.081,0,0,1-1.363,87.655,32.212,32.212,0,0,0-11.219,22.26l-.028.465A6.166,6.166,0,0,1,345.705,317.2Z" transform="translate(-205.95 -185.15)" fill="#1e0f41"/>
                          </g>
                        </g>
                      </g>
                    </g>
                  </g>
                </g>
              </g>
            </g>
          </g>
        </g>
        <g id="Group_4074" data-name="Group 4074" transform="translate(106.978 43.911)">
          <g id="Group_4073" data-name="Group 4073">
            <g id="Group_4072" data-name="Group 4072">
              <g id="Group_4071" data-name="Group 4071">
                <g id="Group_4070" data-name="Group 4070">
                  <g id="Group_4069" data-name="Group 4069">
                    <g id="Group_4068" data-name="Group 4068">
                      <g id="Group_4067" data-name="Group 4067">
                        <g id="Group_4066" data-name="Group 4066">
                          <g id="Group_4065" data-name="Group 4065">
                            <path id="Path_201120" data-name="Path 201120" d="M359.312,240.581h-36.23a4.625,4.625,0,1,1,0-9.25h36.23a4.625,4.625,0,0,1,0,9.25Z" transform="translate(-318.457 -231.331)" fill="#1e0f41"/>
                          </g>
                        </g>
                      </g>
                    </g>
                  </g>
                </g>
              </g>
            </g>
          </g>
        </g>
        <g id="Group_4084" data-name="Group 4084" transform="translate(89.248 64.746)">
          <g id="Group_4083" data-name="Group 4083">
            <g id="Group_4082" data-name="Group 4082">
              <g id="Group_4081" data-name="Group 4081">
                <g id="Group_4080" data-name="Group 4080">
                  <g id="Group_4079" data-name="Group 4079">
                    <g id="Group_4078" data-name="Group 4078">
                      <g id="Group_4077" data-name="Group 4077">
                        <g id="Group_4076" data-name="Group 4076">
                          <g id="Group_4075" data-name="Group 4075">
                            <path id="Path_201121" data-name="Path 201121" d="M358.4,262.493H304.436a4.625,4.625,0,1,1,0-9.25H358.4a4.625,4.625,0,0,1,0,9.25Z" transform="translate(-299.811 -253.243)" fill="#1e0f41"/>
                          </g>
                        </g>
                      </g>
                    </g>
                  </g>
                </g>
              </g>
            </g>
          </g>
        </g>
        <g id="Group_4094" data-name="Group 4094" transform="translate(90.791 43.911)">
          <g id="Group_4093" data-name="Group 4093">
            <g id="Group_4092" data-name="Group 4092">
              <g id="Group_4091" data-name="Group 4091">
                <g id="Group_4090" data-name="Group 4090">
                  <g id="Group_4089" data-name="Group 4089">
                    <g id="Group_4088" data-name="Group 4088">
                      <g id="Group_4087" data-name="Group 4087">
                        <g id="Group_4086" data-name="Group 4086">
                          <g id="Group_4085" data-name="Group 4085">
                            <path id="Path_201122" data-name="Path 201122" d="M310.683,235.956a4.625,4.625,0,1,1-4.625-4.625A4.625,4.625,0,0,1,310.683,235.956Z" transform="translate(-301.433 -231.331)" fill="#1e0f41"/>
                          </g>
                        </g>
                      </g>
                    </g>
                  </g>
                </g>
              </g>
            </g>
          </g>
        </g>
        <g id="Group_4104" data-name="Group 4104" transform="translate(75.374 64.746)">
          <g id="Group_4103" data-name="Group 4103">
            <g id="Group_4102" data-name="Group 4102">
              <g id="Group_4101" data-name="Group 4101">
                <g id="Group_4100" data-name="Group 4100">
                  <g id="Group_4099" data-name="Group 4099">
                    <g id="Group_4098" data-name="Group 4098">
                      <g id="Group_4097" data-name="Group 4097">
                        <g id="Group_4096" data-name="Group 4096">
                          <g id="Group_4095" data-name="Group 4095">
                            <circle id="Ellipse_124" data-name="Ellipse 124" cx="4.625" cy="4.625" r="4.625" fill="#1e0f41"/>
                          </g>
                        </g>
                      </g>
                    </g>
                  </g>
                </g>
              </g>
            </g>
          </g>
        </g>
      </g>
    </g>
    <g id="Group_4128" data-name="Group 4128" transform="translate(63.427 110.149)">
      <g id="Group_4113" data-name="Group 4113" transform="translate(26.098)">
        <g id="Group_4107" data-name="Group 4107" transform="translate(1.503 1.502)">
          <circle id="Ellipse_125" data-name="Ellipse 125" cx="10.958" cy="10.958" r="10.958" fill="#f5a25c"/>
        </g>
        <g id="Group_4111" data-name="Group 4111" transform="translate(1.647 1.646)">
          <g id="Group_4108" data-name="Group 4108" transform="translate(7.476)">
            <path id="Path_201123" data-name="Path 201123" d="M102.936,118.467a8.954,8.954,0,0,1-.9-2.638,10.64,10.64,0,0,1-1.569,7.041A12.835,12.835,0,0,0,102.936,118.467Z" transform="translate(-100.468 -115.829)" fill="#fff"/>
          </g>
          <g id="Group_4109" data-name="Group 4109" transform="translate(15.454 9.033)">
            <path id="Path_201124" data-name="Path 201124" d="M108.859,129.072a10.646,10.646,0,0,1,6.174-3.731,8.956,8.956,0,0,1-2.787-.011A12.839,12.839,0,0,0,108.859,129.072Z" transform="translate(-108.859 -125.329)" fill="#fff"/>
          </g>
          <g id="Group_4110" data-name="Group 4110" transform="translate(0 10.783)">
            <path id="Path_201125" data-name="Path 201125" d="M105.593,133.564a12.57,12.57,0,0,0-8.9-6.4,9.608,9.608,0,0,1-4.089,1.8c5.367-.879,11.705,3.678,12.584,9.045A9.581,9.581,0,0,1,105.593,133.564Z" transform="translate(-92.606 -127.169)" fill="#fff"/>
          </g>
        </g>
        <g id="Group_4112" data-name="Group 4112">
          <path id="Path_201126" data-name="Path 201126" d="M105.1,139.019a1.647,1.647,0,0,1-1.623-1.381,10.226,10.226,0,0,0-10.692-7.687,1.648,1.648,0,0,1-1.89-1.359,1.612,1.612,0,0,1-.023-.268,1.648,1.648,0,0,1,1.382-1.622c4.465-.73,8.416-6.226,7.685-10.692a1.718,1.718,0,0,1-.022-.268,1.647,1.647,0,0,1,3.272-.263,10.224,10.224,0,0,0,10.692,7.685,1.646,1.646,0,0,1,1.89,1.359,1.621,1.621,0,0,1,.023.268,1.649,1.649,0,0,1-1.382,1.623c-4.465.731-8.416,6.228-7.686,10.692a1.632,1.632,0,0,1,.023.269A1.648,1.648,0,0,1,105.37,139,1.717,1.717,0,0,1,105.1,139.019ZM98.189,127.4a14.71,14.71,0,0,1,5.986,4.3,14.6,14.6,0,0,1,4.3-5.987,14.718,14.718,0,0,1-5.986-4.3,14.715,14.715,0,0,1-4.3,5.989Z" transform="translate(-90.874 -114.098)" fill="#1e0f41"/>
        </g>
      </g>
      <g id="Group_4120" data-name="Group 4120" transform="translate(0 31.147)">
        <g id="Group_4114" data-name="Group 4114" transform="translate(2.267 0.763)">
          <circle id="Ellipse_126" data-name="Ellipse 126" cx="9.998" cy="9.998" r="9.998" fill="#df445f"/>
        </g>
        <g id="Group_4118" data-name="Group 4118" transform="translate(2.398 0.894)">
          <g id="Group_4115" data-name="Group 4115" transform="translate(6.821)">
            <path id="Path_201127" data-name="Path 201127" d="M75.374,150.2a8.175,8.175,0,0,1-.82-2.408,9.711,9.711,0,0,1-1.432,6.424A11.705,11.705,0,0,0,75.374,150.2Z" transform="translate(-73.122 -147.795)" fill="#fff"/>
          </g>
          <g id="Group_4116" data-name="Group 4116" transform="translate(14.1 8.242)">
            <path id="Path_201128" data-name="Path 201128" d="M80.778,159.878a9.707,9.707,0,0,1,5.633-3.4,8.175,8.175,0,0,1-2.543-.01A11.711,11.711,0,0,0,80.778,159.878Z" transform="translate(-80.778 -156.463)" fill="#fff"/>
          </g>
          <g id="Group_4117" data-name="Group 4117" transform="translate(0 9.839)">
            <path id="Path_201129" data-name="Path 201129" d="M77.8,163.977a11.464,11.464,0,0,0-8.117-5.835,8.757,8.757,0,0,1-3.731,1.642c4.9-.8,10.68,3.357,11.481,8.252A8.747,8.747,0,0,1,77.8,163.977Z" transform="translate(-65.949 -158.142)" fill="#fff"/>
          </g>
        </g>
        <g id="Group_4119" data-name="Group 4119">
          <path id="Path_201130" data-name="Path 201130" d="M76.553,169.879a1.646,1.646,0,0,1-1.623-1.38c-.656-4.006-5.58-7.548-9.589-6.894a1.651,1.651,0,0,1-1.891-1.359,1.74,1.74,0,0,1-.022-.269,1.648,1.648,0,0,1,1.382-1.622c4.005-.655,7.548-5.583,6.893-9.589a1.721,1.721,0,0,1-.022-.269,1.647,1.647,0,0,1,3.272-.262c.655,4.006,5.584,7.553,9.589,6.894a1.649,1.649,0,0,1,1.891,1.359,1.72,1.72,0,0,1,.022.269,1.647,1.647,0,0,1-1.382,1.621,9.187,9.187,0,0,0-6.893,9.589,1.727,1.727,0,0,1,.022.268,1.647,1.647,0,0,1-1.382,1.623A1.7,1.7,0,0,1,76.553,169.879Zm-6.029-10.79a13.524,13.524,0,0,1,5.14,3.694,13.58,13.58,0,0,1,3.694-5.138,13.507,13.507,0,0,1-5.14-3.694,13.608,13.608,0,0,1-3.694,5.138Z" transform="translate(-63.427 -146.855)" fill="#1e0f41"/>
        </g>
      </g>
      <g id="Group_4127" data-name="Group 4127" transform="translate(29.772 37.693)">
        <g id="Group_4121" data-name="Group 4121" transform="translate(0 0)">
          <ellipse id="Ellipse_127" data-name="Ellipse 127" cx="21.562" cy="13.096" rx="21.562" ry="13.096" transform="translate(0 13.309) rotate(-17.976)" fill="#00c1e8"/>
        </g>
        <g id="Group_4125" data-name="Group 4125" transform="translate(10.449 5.01)">
          <g id="Group_4122" data-name="Group 4122" transform="translate(13.444)">
            <path id="Path_201131" data-name="Path 201131" d="M126.506,162.848a12.929,12.929,0,0,1,1.21-3.84,15.382,15.382,0,0,1-7.85,6.854A18.576,18.576,0,0,0,126.506,162.848Z" transform="translate(-119.866 -159.008)" fill="#fff"/>
          </g>
          <g id="Group_4123" data-name="Group 4123" transform="translate(17.825 18.896)">
            <path id="Path_201132" data-name="Path 201132" d="M124.473,180.34a15.379,15.379,0,0,1,10.379.939,12.911,12.911,0,0,1-3.234-2.4A18.545,18.545,0,0,0,124.473,180.34Z" transform="translate(-124.473 -178.881)" fill="#fff"/>
          </g>
          <g id="Group_4124" data-name="Group 4124" transform="translate(0 6.909)">
            <path id="Path_201133" data-name="Path 201133" d="M116.913,182.733a18.154,18.154,0,0,0-4.886-15.057,13.859,13.859,0,0,1-6.3-1.4c7,3.57,10.478,14.3,6.91,21.294A13.861,13.861,0,0,1,116.913,182.733Z" transform="translate(-105.727 -166.274)" fill="#fff"/>
          </g>
        </g>
        <g id="Group_4126" data-name="Group 4126" transform="translate(7.14 3.617)">
          <path id="Path_201134" data-name="Path 201134" d="M110.8,189.039a1.644,1.644,0,0,1-1.465-2.393c3.131-6.142-.05-15.949-6.191-19.081a1.646,1.646,0,1,1,1.5-2.932c6.141,3.128,15.949-.05,19.08-6.191a1.647,1.647,0,1,1,2.933,1.5,15.494,15.494,0,0,0,6.19,19.079,1.646,1.646,0,1,1-1.5,2.932c-6.141-3.129-15.948.051-19.079,6.191A1.645,1.645,0,0,1,110.8,189.039Zm-.869-19.86a20.067,20.067,0,0,1,3.951,12.174,19.984,19.984,0,0,1,12.192-3.95,20.324,20.324,0,0,1-3.954-12.185A20.117,20.117,0,0,1,109.933,169.18Z" transform="translate(-102.247 -157.543)" fill="#1e0f41"/>
        </g>
      </g>
    </g>
    <g id="Group_4135" data-name="Group 4135" transform="translate(423.876 231.322)">
      <g id="Group_4129" data-name="Group 4129" transform="translate(0.216 0.215)">
        <circle id="Ellipse_128" data-name="Ellipse 128" cx="10.958" cy="10.958" r="10.958" fill="#f5a25c"/>
      </g>
      <g id="Group_4133" data-name="Group 4133" transform="translate(1.647 1.646)">
        <g id="Group_4130" data-name="Group 4130" transform="translate(13.169 11.906)">
          <path id="Path_201135" data-name="Path 201135" d="M458.1,260.771a8.944,8.944,0,0,1,1.759,2.162,10.649,10.649,0,0,1-.974-7.148A12.856,12.856,0,0,0,458.1,260.771Z" transform="translate(-458.086 -255.786)" fill="#fff"/>
        </g>
        <g id="Group_4131" data-name="Group 4131" transform="translate(0 9.298)">
          <path id="Path_201136" data-name="Path 201136" d="M448.731,253.044a10.649,10.649,0,0,1-4.495,5.642,8.962,8.962,0,0,1,2.618-.957A12.842,12.842,0,0,0,448.731,253.044Z" transform="translate(-444.236 -253.044)" fill="#fff"/>
        </g>
        <g id="Group_4132" data-name="Group 4132" transform="translate(4.112)">
          <path id="Path_201137" data-name="Path 201137" d="M449.729,247.577a12.563,12.563,0,0,0,10.564,2.908,9.6,9.6,0,0,1,3.209-3.107c-4.727,2.686-12.254.614-14.941-4.112A9.606,9.606,0,0,1,449.729,247.577Z" transform="translate(-448.561 -243.265)" fill="#fff"/>
        </g>
      </g>
      <g id="Group_4134" data-name="Group 4134">
        <path id="Path_201138" data-name="Path 201138" d="M459.094,263.88a1.646,1.646,0,0,1-1.433-.833,10.225,10.225,0,0,0-12.7-3.494,1.647,1.647,0,1,1-1.627-2.864c3.934-2.235,5.73-8.761,3.494-12.7a1.647,1.647,0,0,1,2.863-1.627,10.224,10.224,0,0,0,12.7,3.494,1.647,1.647,0,0,1,1.627,2.864c-3.934,2.235-5.731,8.761-3.494,12.7a1.646,1.646,0,0,1-1.43,2.46Zm-9.946-8.6a14.737,14.737,0,0,1,7.1,1.956,14.585,14.585,0,0,1,1.957-7.108,14.715,14.715,0,0,1-7.1-1.957A14.6,14.6,0,0,1,449.148,255.282Z" transform="translate(-442.504 -241.534)" fill="#1e0f41"/>
      </g>
    </g>
    <g id="Group_4142" data-name="Group 4142" transform="translate(331.945 33.883)">
      <g id="Group_4136" data-name="Group 4136" transform="translate(0.216 0.215)">
        <circle id="Ellipse_129" data-name="Ellipse 129" cx="10.958" cy="10.958" r="10.958" fill="#f5a25c"/>
      </g>
      <g id="Group_4140" data-name="Group 4140" transform="translate(1.647 1.647)">
        <g id="Group_4137" data-name="Group 4137" transform="translate(13.17 11.906)">
          <path id="Path_201139" data-name="Path 201139" d="M361.417,53.129a8.964,8.964,0,0,1,1.759,2.161,10.643,10.643,0,0,1-.974-7.148A12.822,12.822,0,0,0,361.417,53.129Z" transform="translate(-361.405 -48.143)" fill="#fff"/>
        </g>
        <g id="Group_4138" data-name="Group 4138" transform="translate(0 9.298)">
          <path id="Path_201140" data-name="Path 201140" d="M352.049,45.4a10.649,10.649,0,0,1-4.495,5.642,8.962,8.962,0,0,1,2.618-.958A12.825,12.825,0,0,0,352.049,45.4Z" transform="translate(-347.554 -45.401)" fill="#fff"/>
        </g>
        <g id="Group_4139" data-name="Group 4139" transform="translate(4.113)">
          <path id="Path_201141" data-name="Path 201141" d="M353.047,39.934a12.564,12.564,0,0,0,10.564,2.909,9.6,9.6,0,0,1,3.21-3.108c-4.728,2.687-12.255.615-14.941-4.112A9.606,9.606,0,0,1,353.047,39.934Z" transform="translate(-351.88 -35.622)" fill="#fff"/>
        </g>
      </g>
      <g id="Group_4141" data-name="Group 4141">
        <path id="Path_201142" data-name="Path 201142" d="M362.412,56.237a1.646,1.646,0,0,1-1.433-.833c-2.235-3.935-8.761-5.733-12.7-3.494a1.647,1.647,0,1,1-1.627-2.864c3.934-2.235,5.731-8.761,3.494-12.7a1.646,1.646,0,1,1,2.863-1.627,10.225,10.225,0,0,0,12.7,3.494,1.647,1.647,0,0,1,1.627,2.864c-3.934,2.235-5.73,8.761-3.494,12.7a1.646,1.646,0,0,1-1.43,2.46Zm-9.943-8.6a14.584,14.584,0,0,1,7.1,1.954,14.6,14.6,0,0,1,1.957-7.1,14.722,14.722,0,0,1-7.1-1.955A14.6,14.6,0,0,1,352.469,47.638Z" transform="translate(-345.822 -33.89)" fill="#1e0f41"/>
      </g>
    </g>
  </g>
</svg>
