<svg width="16" height="16" viewBox="0 0 16 16" fill="none" xmlns="http://www.w3.org/2000/svg">
<mask id="mask0_1013_6878" style="mask-type:luminance" maskUnits="userSpaceOnUse" x="1" y="1" width="14" height="14">
<path fill-rule="evenodd" clip-rule="evenodd" d="M1.33398 1.33398H14.3337V14.3345H1.33398V1.33398Z" fill="white"/>
</mask>
<g mask="url(#mask0_1013_6878)">
<path fill-rule="evenodd" clip-rule="evenodd" d="M5.84932 7.73332C5.86132 7.74398 5.87265 7.75398 5.88398 7.76598C6.60332 8.50332 6.99998 9.47998 6.99998 10.5167V13.1727L8.49065 12.3607C8.60798 12.2967 8.68065 12.1713 8.68065 12.0333V10.5087C8.68065 9.47598 9.07332 8.50265 9.78598 7.76932L13.0107 4.33932C13.2193 4.11732 13.334 3.82598 13.334 3.51865V2.89465C13.334 2.58532 13.09 2.33398 12.7913 2.33398H2.87732C2.57798 2.33398 2.33398 2.58532 2.33398 2.89465V3.51865C2.33398 3.82598 2.44865 4.11732 2.65732 4.33865L5.84932 7.73332ZM6.76465 14.3347C6.62998 14.3347 6.49665 14.2987 6.37532 14.2267C6.14065 14.0867 5.99998 13.8393 5.99998 13.5647V10.5167C5.99998 9.75998 5.71798 9.04732 5.20398 8.50132C5.18865 8.48865 5.17332 8.47465 5.15998 8.45998L1.92932 5.02465C1.54532 4.61665 1.33398 4.08132 1.33398 3.51865V2.89465C1.33398 2.03398 2.02665 1.33398 2.87732 1.33398H12.7913C13.6413 1.33398 14.334 2.03398 14.334 2.89465V3.51865C14.334 4.08065 14.1227 4.61532 13.74 5.02398L10.5087 8.45998C9.97332 9.01198 9.68065 9.73798 9.68065 10.5087V12.0333C9.68065 12.5373 9.40798 12.9987 8.96932 13.2387L7.12865 14.2413C7.01398 14.3033 6.88932 14.3347 6.76465 14.3347Z" fill="white"/>
</g>
</svg>
