<svg width="17" height="17" viewBox="0 0 17 17" fill="none" xmlns="http://www.w3.org/2000/svg">
<mask id="mask0_913_7568" style="mask-type:luminance" maskUnits="userSpaceOnUse" x="1" y="1" width="16" height="16">
<path fill-rule="evenodd" clip-rule="evenodd" d="M1.41602 1.41602H16.0761V16.0565H1.41602V1.41602Z" fill="white"/>
</mask>
<g mask="url(#mask0_913_7568)">
<path fill-rule="evenodd" clip-rule="evenodd" d="M5.41314 2.47852C3.35614 2.47852 2.47852 3.52402 2.47852 5.97272V11.497C2.47852 13.7523 3.72377 14.9941 5.98477 14.9941H11.497C13.7523 14.9941 14.9941 13.7523 14.9941 11.497V11.4949L15.0139 7.97802C15.0139 5.57039 14.188 4.63185 12.0665 4.63185H10.0619C9.38972 4.63114 8.74797 4.31027 8.34422 3.77335L7.69752 2.91343C7.49422 2.64072 7.1691 2.47922 6.8291 2.47852H5.41314ZM11.497 16.0566H5.98477C3.16702 16.0566 1.41602 14.3091 1.41602 11.497V5.97272C1.41602 2.94885 2.76114 1.41602 5.41314 1.41602H6.82981C7.50343 1.41672 8.14518 1.73831 8.54752 2.27593L9.19281 3.13443C9.39752 3.40643 9.72264 3.56864 10.0626 3.56935H12.0665C14.8021 3.56935 16.0764 4.97114 16.0764 7.98085L16.0566 11.4991C16.0559 14.3098 14.3091 16.0566 11.497 16.0566Z" fill="white"/>
</g>
<path fill-rule="evenodd" clip-rule="evenodd" d="M11.8396 11.1289H5.65234C5.35909 11.1289 5.12109 10.8909 5.12109 10.5977C5.12109 10.3044 5.35909 10.0664 5.65234 10.0664H11.8396C12.1329 10.0664 12.3709 10.3044 12.3709 10.5977C12.3709 10.8909 12.1329 11.1289 11.8396 11.1289Z" fill="white"/>
</svg>
