<svg xmlns="http://www.w3.org/2000/svg" width="34" height="34" viewBox="0 0 34 34">
  <g id="Group_11128" data-name="Group 11128" transform="translate(-325 -55)">
    <circle id="Ellipse_2" data-name="Ellipse 2" cx="17" cy="17" r="17" transform="translate(325 55)" fill="#41ccc9"/>
    <g id="Group_11127" data-name="Group 11127" transform="translate(-2.549 -2.859)">
      <path id="Path_200915" data-name="Path 200915" d="M8,11.126A3.939,3.939,0,0,0,11.288,14.5l.106.015a2.919,2.919,0,0,0,.821,0l.092-.013a3.953,3.953,0,0,0,3.3-3.394,16.021,16.021,0,0,0,0-4.67,3.96,3.96,0,0,0-3.292-3.4l-.089-.013a2.92,2.92,0,0,0-.833,0l-.1.015A3.946,3.946,0,0,0,8,6.425,15.968,15.968,0,0,0,8,11.126Z" transform="translate(332.797 63.548)" fill="#fff"/>
      <path id="Path_200916" data-name="Path 200916" d="M5.882,11.059a.692.692,0,1,0-1.382,0,7.368,7.368,0,0,0,6.449,7.461v1.244a.692.692,0,1,0,1.382,0V18.52a7.368,7.368,0,0,0,6.449-7.461.692.692,0,1,0-1.382,0A5.907,5.907,0,0,1,11.64,17.1,5.907,5.907,0,0,1,5.882,11.059Z" transform="translate(332.956 63.196)" fill="#fff"/>
    </g>
  </g>
</svg>
