<svg width="14" height="14" viewBox="0 0 14 14" fill="none" xmlns="http://www.w3.org/2000/svg">
<mask id="mask0_817_4717" style="mask-type:luminance" maskUnits="userSpaceOnUse" x="1" y="0" width="13" height="14">
<path fill-rule="evenodd" clip-rule="evenodd" d="M1.16602 0.583984H13.1242V13.1286H1.16602V0.583984Z" fill="white"/>
</mask>
<g mask="url(#mask0_817_4717)">
<path fill-rule="evenodd" clip-rule="evenodd" d="M8.00093 8.92055C8.70327 8.92055 9.27493 9.48813 9.27493 10.1858V11.9801C9.27493 12.13 9.3951 12.2502 9.5491 12.2537H10.6609C11.5371 12.2537 12.2493 11.5502 12.2493 10.6857V5.59671C12.2453 5.29921 12.1035 5.01921 11.8603 4.83313L8.01435 1.76596C7.4981 1.35705 6.77593 1.35705 6.25793 1.76713L2.43827 4.83196C2.18568 5.02388 2.04393 5.30388 2.04102 5.60663V10.6857C2.04102 11.5502 2.75327 12.2537 3.62943 12.2537H4.75177C4.90985 12.2537 5.03818 12.1283 5.03818 11.9743C5.03818 11.9405 5.04227 11.9066 5.04927 11.8745V10.1858C5.04927 9.49221 5.61743 8.92521 6.31452 8.92055H8.00093ZM10.6609 13.1287H9.5386C8.89577 13.1135 8.39993 12.609 8.39993 11.9801V10.1858C8.39993 9.97055 8.22085 9.79555 8.00093 9.79555H6.31743C6.10218 9.79671 5.92427 9.9723 5.92427 10.1858V11.9743C5.92427 12.018 5.91843 12.06 5.90618 12.0997C5.84318 12.6772 5.34968 13.1287 4.75177 13.1287H3.62943C2.27085 13.1287 1.16602 12.0326 1.16602 10.6857V5.60255C1.17185 5.02271 1.43902 4.49188 1.90043 4.14246L5.71252 1.08288C6.55193 0.41788 7.72152 0.41788 8.55918 1.08171L12.3987 4.14421C12.8496 4.4878 13.1168 5.01746 13.1243 5.5903V10.6857C13.1243 12.0326 12.0195 13.1287 10.6609 13.1287V13.1287Z" fill="#B5B5C3"/>
</g>
</svg>
