<svg id="mic-fill" xmlns="http://www.w3.org/2000/svg" width="24.046" height="24.046" viewBox="0 0 24.046 24.046">
  <path id="Path_1" data-name="Path 1" d="M0,0H24.046V24.046H0Z" fill="none"/>
  <path id="Path_2" data-name="Path 2" d="M10.919,1a4.592,4.592,0,0,1,4.4,4.766V9.579a4.592,4.592,0,0,1-4.4,4.766,4.592,4.592,0,0,1-4.4-4.766V5.766A4.592,4.592,0,0,1,10.919,1ZM3.055,10.532H4.827a6.339,6.339,0,0,0,6.092,5.713,6.339,6.339,0,0,0,6.092-5.713h1.772A8.273,8.273,0,0,1,11.8,18.1V21.97H10.04V18.1a8.273,8.273,0,0,1-6.985-7.573Z" transform="translate(1.164 0.029)" fill="#fff"/>
</svg>
