<svg xmlns="http://www.w3.org/2000/svg" width="56" height="56" viewBox="0 0 56 56">
  <g id="Group_4227" data-name="Group 4227" transform="translate(-0.132 0.293)">
    <circle id="Ellipse_111" data-name="Ellipse 111" cx="28" cy="28" r="28" transform="translate(0.132 -0.293)" fill="rgba(162,166,186,0.35)"/>
    <path id="Stop" d="M3,9.527c0-2.285,0-3.427.445-4.3A4.08,4.08,0,0,1,5.228,3.445C6.1,3,7.243,3,9.527,3h5.3c2.285,0,3.427,0,4.3.445a4.08,4.08,0,0,1,1.783,1.783c.445.873.445,2.015.445,4.3v5.3c0,2.285,0,3.427-.445,4.3a4.08,4.08,0,0,1-1.783,1.783c-.873.445-2.015.445-4.3.445h-5.3c-2.285,0-3.427,0-4.3-.445a4.08,4.08,0,0,1-1.783-1.783C3,18.258,3,17.116,3,14.831Z" transform="translate(15.995 15.974)" fill="#12131a"/>
  </g>
</svg>
