<svg xmlns="http://www.w3.org/2000/svg" width="19.802" height="19.802" viewBox="0 0 19.802 19.802">
  <g id="Pen" transform="translate(0 0)">
    <path id="Path_201143" data-name="Path 201143" d="M14.557,21.157,13,19.6,19.6,13l1.557,1.557a2.2,2.2,0,0,1,0,3.111l-3.489,3.489A2.2,2.2,0,0,1,14.557,21.157Z" transform="translate(-2 -2)" fill="#333"/>
    <path id="Path_201144" data-name="Path 201144" d="M4.661,14.2,3.033,4.837A2.2,2.2,0,0,1,3,4.46V4.1A1.1,1.1,0,0,1,4.1,3h.36a2.2,2.2,0,0,1,.377.033L14.2,4.661a5.5,5.5,0,0,1,4.207,3.487L20.6,14,14,20.6,8.148,18.406A5.5,5.5,0,0,1,4.661,14.2Z" transform="translate(-3 -3)" fill="#a2a6ba"/>
    <path id="Path_201145" data-name="Path 201145" d="M4.878,3.322A1.1,1.1,0,0,0,3.322,4.878L9.675,11.23A2.2,2.2,0,1,0,11.23,9.675Z" transform="translate(-3 -3)" fill="#333" fill-rule="evenodd"/>
  </g>
</svg>
