<svg xmlns="http://www.w3.org/2000/svg" width="20.806" height="19.605" viewBox="0 0 20.806 19.605">
  <g id="Pencil" transform="translate(19.769 -0.576) rotate(87)">
    <path id="Path_201146" data-name="Path 201146" d="M1.949,1.824.061,7.341a1.1,1.1,0,0,0,1.4,1.4l5.524-1.88a3.3,3.3,0,0,0,1.27-.79l.557-.557L3.3,0,2.738.558A3.3,3.3,0,0,0,1.949,1.824Z" transform="translate(0 10.997)" fill="#333"/>
    <path id="Path_201147" data-name="Path 201147" d="M8.8,0,0,8.8l5.511,5.511,8.8-8.8Z" transform="translate(3.296 2.197)" fill="#a2a6ba"/>
    <path id="Path_201148" data-name="Path 201148" d="M1.23.967,0,2.2,5.511,7.708,6.742,6.478a3.3,3.3,0,0,0,0-4.667L5.9.967A3.3,3.3,0,0,0,1.23.967Z" transform="translate(12.096 0)" fill="#333"/>
  </g>
</svg>
