<svg xmlns="http://www.w3.org/2000/svg" width="209" height="45" viewBox="0 0 209 45">
  <g id="Group_11093" data-name="Group 11093" transform="translate(-880.444 -479.586)">
    <g id="Group_11066" data-name="Group 11066" transform="translate(977.141 521.439) rotate(-180)">
      <rect id="Rectangle_567" data-name="Rectangle 567" width="3.146" height="35.513" transform="translate(0 1.046)" fill="#41ccc9"/>
      <rect id="Rectangle_568" data-name="Rectangle 568" width="3.146" height="37.608" transform="translate(9.439 0)" fill="#41ccc9"/>
      <rect id="Rectangle_569" data-name="Rectangle 569" width="3.146" height="37.608" transform="translate(17.829 0)" fill="#41ccc9"/>
      <rect id="Rectangle_570" data-name="Rectangle 570" width="3.146" height="29.229" transform="translate(28.317 4.184)" fill="#41ccc9"/>
      <rect id="Rectangle_572" data-name="Rectangle 572" width="3.007" height="18.039" transform="translate(46.589 11.298)" fill="#41ccc9"/>
      <rect id="Rectangle_571" data-name="Rectangle 571" width="3.146" height="27.134" transform="translate(36.707 5.231)" fill="#41ccc9"/>
      <rect id="Rectangle_573" data-name="Rectangle 573" width="3.007" height="18.039" transform="translate(56.61 11.298)" fill="#41ccc9"/>
      <rect id="Rectangle_574" data-name="Rectangle 574" width="3.007" height="14.03" transform="translate(64.628 12.965)" fill="#41ccc9"/>
      <rect id="Rectangle_575" data-name="Rectangle 575" width="3.007" height="18.039" transform="translate(74.65 11.298)" fill="#41ccc9"/>
      <rect id="Rectangle_576" data-name="Rectangle 576" width="3.007" height="16.035" transform="translate(83.669 12.117)" fill="#41ccc9"/>
      <rect id="Rectangle_577" data-name="Rectangle 577" width="3.007" height="8.017" transform="translate(93.691 15.632)" fill="#41ccc9"/>
    </g>
    <g id="Group_11099" data-name="Group 11099" transform="translate(982.373 479.586)">
      <rect id="Rectangle_566" data-name="Rectangle 566" width="3.17" height="45" transform="translate(0 0)" fill="#41ccc9"/>
      <rect id="Rectangle_567-2" data-name="Rectangle 567" width="3.17" height="36.361" transform="translate(10.022 4.009)" fill="#41ccc9"/>
      <rect id="Rectangle_568-2" data-name="Rectangle 568" width="3.17" height="38.987" transform="translate(19.041 3.007)" fill="#41ccc9"/>
      <rect id="Rectangle_569-2" data-name="Rectangle 569" width="3.007" height="38.987" transform="translate(28.061 3.007)" fill="#41ccc9"/>
      <rect id="Rectangle_570-2" data-name="Rectangle 570" width="3.007" height="30.97" transform="translate(38.083 7.015)" fill="#41ccc9"/>
      <rect id="Rectangle_572-2" data-name="Rectangle 572" width="3.007" height="18.039" transform="translate(56.962 13.48)" fill="#41ccc9"/>
      <rect id="Rectangle_571-2" data-name="Rectangle 571" width="3.17" height="26.961" transform="translate(47.102 9.02)" fill="#41ccc9"/>
      <rect id="Rectangle_573-2" data-name="Rectangle 573" width="3.007" height="18.039" transform="translate(66.984 13.48)" fill="#41ccc9"/>
      <rect id="Rectangle_574-2" data-name="Rectangle 574" width="3.007" height="14.03" transform="translate(75.001 15.484)" fill="#41ccc9"/>
      <rect id="Rectangle_575-2" data-name="Rectangle 575" width="3.007" height="18.039" transform="translate(85.023 13.48)" fill="#41ccc9"/>
      <rect id="Rectangle_576-2" data-name="Rectangle 576" width="3.007" height="16.035" transform="translate(94.043 14.482)" fill="#41ccc9"/>
      <rect id="Rectangle_577-2" data-name="Rectangle 577" width="3.007" height="8.017" transform="translate(104.064 18.491)" fill="#41ccc9"/>
    </g>
  </g>
</svg>
