<svg id="Group_2440" data-name="Group 2440" xmlns="http://www.w3.org/2000/svg" width="44" height="44" viewBox="0 0 44 44">
  <rect id="Rectangle_350" data-name="Rectangle 350" width="44" height="44" rx="8" fill="#41ccc9"/>
  <g id="rocket" transform="translate(6.331 8.05)">
    <g id="Group_2387" data-name="Group 2387" transform="translate(0 0)">
      <path id="Path_200568" data-name="Path 200568" d="M0,0H2.254V5.962H0Z" transform="translate(8.829 15.728) rotate(-45)" fill="#fff"/>
      <path id="Path_200569" data-name="Path 200569" d="M299.085,268.319a3.592,3.592,0,0,1-.9,3.6l-.767.767,1.2,1.2,3.881-3.881a5.406,5.406,0,0,0,1.575-3.954l-.053-1.948-4.98,4.074Z" transform="translate(-280.735 -249.289)" fill="#fff"/>
      <path id="Path_200570" data-name="Path 200570" d="M81.316,95.936a5.407,5.407,0,0,0-3.954,1.575l-3.881,3.881,1.2,1.2.767-.767a3.592,3.592,0,0,1,3.6-.9l.141.043,4.08-4.98Z" transform="translate(-69.356 -90.553)" fill="#fff"/>
      <path id="Path_200571" data-name="Path 200571" d="M0,0H1.693V1.693H0Z" transform="translate(0.086 22.334) rotate(-45)" fill="#fff"/>
      <path id="Path_200572" data-name="Path 200572" d="M0,0H5.505V1.693H0Z" transform="translate(2.485 19.935) rotate(-45)" fill="#fff"/>
      <path id="Path_200573" data-name="Path 200573" d="M0,0H1.693V1.693H0Z" transform="translate(5.187 27.436) rotate(-45)" fill="#fff"/>
      <path id="Path_200574" data-name="Path 200574" d="M0,0H5.505V1.693H0Z" transform="translate(7.586 25.037) rotate(-45)" fill="#fff"/>
      <path id="Path_200575" data-name="Path 200575" d="M0,0H10.043V1.693H0Z" transform="translate(0 27.521) rotate(-45)" fill="#fff"/>
      <path id="Path_200576" data-name="Path 200576" d="M438.585,3.121a3.643,3.643,0,0,0,3.034,1.035A11.6,11.6,0,0,0,441.527.8l-.1-.527L440.9.181A11.6,11.6,0,0,0,437.55.093,3.644,3.644,0,0,0,438.585,3.121Z" transform="translate(-412.975 -0.011)" fill="#fff"/>
      <path id="Path_200577" data-name="Path 200577" d="M206.794,12.908a5.316,5.316,0,0,1-5.32-5.438,11.577,11.577,0,0,0-6.023,4.012l-6.225,7.6,6.078,6.078,7.59-6.209a11.575,11.575,0,0,0,4.024-6.041l-.125,0Zm-5.906,4.3a2.622,2.622,0,1,1,0-3.709A2.614,2.614,0,0,1,200.888,17.2Z" transform="translate(-178.609 -7.052)" fill="#fff"/>
    </g>
    <circle id="Ellipse_85" data-name="Ellipse 85" cx="0.945" cy="0.945" r="0.945" transform="translate(19.462 7.346)" fill="#fff"/>
  </g>
</svg>
