<svg xmlns="http://www.w3.org/2000/svg" width="17.6" height="22" viewBox="0 0 17.6 22">
  <g id="Text" transform="translate(0 0)">
    <path id="Path_201149" data-name="Path 201149" d="M7,21.1A1.1,1.1,0,0,1,8.1,20h8.8a1.1,1.1,0,0,1,0,2.2H8.1A1.1,1.1,0,0,1,7,21.1Z" transform="translate(-3.7 -0.2)" fill="#333"/>
    <path id="Path_201150" data-name="Path 201150" d="M10,6h4.4V21.4H10Z" transform="translate(-3.4 -1.6)" fill="#a2a6ba"/>
    <path id="Path_201151" data-name="Path 201151" d="M4,4.2A2.2,2.2,0,0,1,6.2,2H19.4a2.2,2.2,0,0,1,2.2,2.2V8.6a1.1,1.1,0,1,1-2.2,0V6.4H6.2V8.6A1.1,1.1,0,1,1,4,8.6V4.2Z" transform="translate(-4 -2)" fill="#333" fill-rule="evenodd"/>
  </g>
</svg>
