<svg xmlns="http://www.w3.org/2000/svg" width="22" height="22" viewBox="0 0 22 22">
  <g id="Vector_Edit_Circle" data-name="Vector Edit Circle" transform="translate(0 0)">
    <path id="Path_201154" data-name="Path 201154" d="M21.6,12.8A8.8,8.8,0,1,1,12.8,4,8.8,8.8,0,0,1,21.6,12.8Z" transform="translate(-1.8 -1.8)" fill="#a2a6ba"/>
    <path id="Path_201155" data-name="Path 201155" d="M13,2a2.2,2.2,0,1,0,2.2,2.2A2.2,2.2,0,0,0,13,2ZM4.2,10.8A2.2,2.2,0,1,0,6.4,13,2.2,2.2,0,0,0,4.2,10.8ZM19.6,13a2.2,2.2,0,1,1,2.2,2.2A2.2,2.2,0,0,1,19.6,13ZM13,19.6a2.2,2.2,0,1,0,2.2,2.2A2.2,2.2,0,0,0,13,19.6Z" transform="translate(-2 -2)" fill="#333" fill-rule="evenodd"/>
  </g>
</svg>
