<svg xmlns="http://www.w3.org/2000/svg" width="22" height="17.6" viewBox="0 0 22 17.6">
  <g id="Vector_Edit_Rectangle_01" data-name="Vector Edit Rectangle 01" transform="translate(0 0)">
    <path id="Path_201152" data-name="Path 201152" d="M4,6H21.6V19.2H4Z" transform="translate(-1.8 -3.8)" fill="#a2a6ba"/>
    <path id="Path_201153" data-name="Path 201153" d="M4.2,4A2.2,2.2,0,1,0,6.4,6.2,2.2,2.2,0,0,0,4.2,4ZM21.8,4A2.2,2.2,0,1,0,24,6.2,2.2,2.2,0,0,0,21.8,4ZM2,19.4a2.2,2.2,0,1,1,2.2,2.2A2.2,2.2,0,0,1,2,19.4Zm19.8-2.2A2.2,2.2,0,1,0,24,19.4,2.2,2.2,0,0,0,21.8,17.2Z" transform="translate(-2 -4)" fill="#333" fill-rule="evenodd"/>
  </g>
</svg>
